{
.appVersion = "1206";
DisplayStrings = (
HEAB,
"&",
"¾",
W,
Eet,
"¢"
);
copyright = "Copyright © 2012 Natanael Gama (www.ndiscovered.com), with Reserved Font Name “Cinzel”";
customParameters = (
{
name = openTypeNameLicense;

glyphs = (
{
glyphname = A;
lastChange = "2012-04-12 12:13:21 +0000";
layers = (
{
anchors = (
{
name = ogonek;
position = "{535.72, 10}";
},
{
name = top;
position = "{356.664, 764}";
}
);
guideLines = (
{
position = "{744.412, -14}";
},
{
position = "{734.412, 714}";
showMeasurement = 1;
}
);
hints = (
{
horizontal = 1;
place = "{700, 14}";
type = Stem;
},
{
horizontal = 1;
place = "{-14, 14}";
type = Stem;
}
);
layerId = "A24B85EF-CA04-493E-A47C-A7B61068A6D7";
paths = (
{
closed = 1;
nodes = (
"339.4 619 LINE",
"569.573 6.095 LINE",
"654.633 6.095 LINE",
"359.414 714 LINE"
);
},
{
closed = 1;
nodes = (
"86.66 73.013 LINE",
"66.448 28.464 OFFCURVE",
"29.438 10 OFFCURVE",
"-1 10 CURVE SMOOTH",
"-1 10 OFFCURVE",
"-10 10 OFFCURVE",
"-10 10 CURVE",
"-10 0 LINE",
"191.278 0 LINE",
"191.278 9.908 LINE",
"182.486 9.908 LINE SMOOTH",
"156.669 9.908 OFFCURVE",
"129.884 32.663 OFFCURVE",
"144.486 72.681 CURVE"
);
},
{
closed = 1;
nodes = (
"350.408 714 LINE",
"350.408 692.013 OFFCURVE",
"313.382 611 OFFCURVE",
"313.382 611 CURVE",
"57.19 3.095 LINE",
"117.233 3.095 LINE",
"368.42 644 LINE",
"359.414 714 LINE"
);
},
{
closed = 1;
nodes = (
"187.293 273 LINE",
"187.293 243 LINE",
"499.513 243 LINE",
"499.513 273 LINE"
);
},
{
closed = 1;
nodes = (
"559.169 32.664 OFFCURVE",
"532.384 9.911 OFFCURVE",
"506.568 9.911 CURVE SMOOTH",
"497.776 9.911 LINE",
"497.776 0 LINE",
"722.956 0 LINE",
"722.956 10 LINE",
"722.956 10 OFFCURVE",
"714.593 10 OFFCURVE",
"714.593 10 CURVE SMOOTH",
"683.946 10 OFFCURVE",
"646.936 28.464 OFFCURVE",
"626.724 73.013 CURVE",
"544.567 72.681 LINE"
);
}
);
width = 712;
},
{
anchors = (
{
name = ogonek;
position = "{547, 10}";
},
{
name = top;
position = "{348.812, 764}";
}
);
layerId = "29CFC173-9C98-4BE1-970A-002FF3BCF672";
paths = (
{
closed = 1;
nodes = (
"263.51 468 LINE",
"456.573 6.095 LINE",
"696.633 6.095 LINE",
"351.414 724 LINE SMOOTH"
);
},
{
closed = 1;
nodes = (
"56.7 73.013 LINE",
"35.488 28.464 OFFCURVE",
"-1 10 OFFCURVE",
"-31 10 CURVE SMOOTH",
"-31 10 OFFCURVE",
"-40 10 OFFCURVE",
"-40 10 CURVE",
"-40 0 LINE",
"183.279 0 LINE",
"183.279 9.908 LINE",
"174.487 9.908 LINE SMOOTH",
"148.67 9.908 OFFCURVE",
"118.49 32.664 OFFCURVE",
"136.092 72.681 CURVE"
);
},
{
closed = 1;
nodes = (
"342.408 724 LINE",
"338.408 690.283 OFFCURVE",
"297.112 599.922 OFFCURVE",
"285.361 574.867 CURVE",
"24.19 3.095 LINE",
"105.233 3.095 LINE",
"351.3 567.543 LINE",
"351.414 724 LINE"
);
},
{
closed = 1;
nodes = (
"150.293 216 LINE",
"150.293 166 LINE",
"432.513 166 LINE",
"432.513 216 LINE"
);
},
{
closed = 1;
nodes = (
"444.745 32.664 OFFCURVE",
"415.815 9.911 OFFCURVE",
"389.999 9.911 CURVE SMOOTH",
"381.207 9.911 LINE",
"381.207 0 LINE",
"760.264 0 LINE",
"760.264 10 LINE",
"760.264 10 OFFCURVE",
"751.901 10 OFFCURVE",
"751.901 10 CURVE SMOOTH",
"721.254 10 OFFCURVE",
"686.244 28.464 OFFCURVE",
"664.032 73.013 CURVE",
"428.143 72.681 LINE"
);
}
);
width = 720;
},
{
anchors = (
{
name = ogonek;
position = "{524, 10}";
},
{
name = top;
position = "{349.521, 700}";
}
);
associatedMasterId = "29CFC173-9C98-4BE1-970A-002FF3BCF672";
layerId = "59CEB433-257F-415D-9120-586C401C6E37";
name = "Bold Mar 19 12, 21:22";
paths = (
{
closed = 1;
nodes = (
"285.51 500 LINE",
"478.573 6.095 LINE",
"673.633 6.095 LINE",
"353.414 714 LINE SMOOTH"
);
},
{
closed = 1;
nodes = (
"71.828 73.013 LINE",
"49.616 28.464 OFFCURVE",
"14.438 10 OFFCURVE",
"-16 10 CURVE SMOOTH",
"-16 10 OFFCURVE",
"-25 10 OFFCURVE",
"-25 10 CURVE",
"-25 0 LINE",
"197.67 0 LINE",
"197.67 9.908 LINE",
"188.878 9.908 LINE SMOOTH",
"163.061 9.908 OFFCURVE",
"135.881 32.664 OFFCURVE",
"150.483 72.681 CURVE"
);
},
{
closed = 1;
nodes = (
"344.408 714 LINE",
"340.408 680.283 OFFCURVE",
"299.112 589.922 OFFCURVE",
"287.361 564.867 CURVE",
"41.19 3.095 LINE",
"122.233 3.095 LINE",
"343.3 547.543 LINE",
"353.414 714 LINE"
);
},
{
closed = 1;
nodes = (
"171.293 234 LINE",
"171.293 184 LINE",
"483.513 184 LINE",
"483.513 234 LINE"
);
},
{
closed = 1;
nodes = (
"467.164 32.664 OFFCURVE",
"440.233 9.911 OFFCURVE",
"414.417 9.911 CURVE SMOOTH",
"405.625 9.911 LINE",
"405.625 0 LINE",
"739.59 0 LINE",
"739.59 10 LINE",
"739.59 10 OFFCURVE",
"731.227 10 OFFCURVE",
"731.227 10 CURVE SMOOTH",
"700.58 10 OFFCURVE",
"665.57 28.464 OFFCURVE",
"643.358 73.013 CURVE",
"452.562 72.681 LINE"
);
}
);
width = 713;
}
);
leftKerningGroup = A;
rightKerningGroup = A;
unicode = 0041;
},
{
glyphname = Aogonek;
lastChange = "2012-05-08 11:28:41 +0000";
layers = (
{
layerId = "A24B85EF-CA04-493E-A47C-A7B61068A6D7";
paths = (
{
closed = 1;
nodes = (
"352.736 619 LINE",
"597.909 2 LINE",
"682.969 6 LINE",
"372.75 714 LINE"
);
},
{
closed = 1;
nodes = (
"363.744 714 LINE",
"363.744 692.013 OFFCURVE",
"326.718 611 OFFCURVE",
"326.718 611 CURVE",
"55.526 3 LINE",
"115.569 3 LINE",
"381.756 644 LINE",
"372.75 714 LINE"
);
},
{
closed = 1;
nodes = (
"200.629 273 LINE",
"200.629 243 LINE",
"512.849 243 LINE",
"512.849 273 LINE"
);
},
{
closed = 1;
nodes = (
"86.627 72.918 LINE",
"66.415 28.369 OFFCURVE",
"29.405 10.21 OFFCURVE",
"-1 10.21 CURVE SMOOTH",
"-1 10.21 OFFCURVE",
"-10 10.21 OFFCURVE",
"-10 10.21 CURVE",
"-10 0.21 LINE",
"191.245 0.115 LINE",
"191.245 10.115 LINE",
"182.453 10.115 LINE SMOOTH",
"156.636 10.115 OFFCURVE",
"129.851 32.569 OFFCURVE",
"144.453 72.586 CURVE"
);
},
{
closed = 1;
nodes = (
"655.046 7.331 OFFCURVE",
"664.685 0.1 OFFCURVE",
"748.035 0.1 CURVE",
"748.035 9.191 LINE",
"748.035 9.191 OFFCURVE",
"739.235 9.191 OFFCURVE",
"739.235 9.191 CURVE SMOOTH",
"709.453 9.191 OFFCURVE",
"674.184 27.199 OFFCURVE",
"655.81 68.016 CURVE",
"570.184 71.824 LINE",
"586.095 29.734 OFFCURVE",
"580.601 7.709 OFFCURVE",
"551.821 -8 CURVE SMOOTH",
"527.053 -22 OFFCURVE",
"502.106 -49 OFFCURVE",
"502.508 -84 CURVE SMOOTH",
"503.832 -200 OFFCURVE",
"649.298 -201 OFFCURVE",
"679.521 -119 CURVE",
"673.521 -113 LINE",
"624.393 -164 OFFCURVE",
"549.55 -128 OFFCURVE",
"549.55 -71 CURVE SMOOTH",
"549.55 -40 OFFCURVE",
"569.969 -7 OFFCURVE",
"612.321 0 CURVE SMOOTH"
);
}
);
width = 737;
},
{
layerId = "29CFC173-9C98-4BE1-970A-002FF3BCF672";
paths = (
{
closed = 1;
nodes = (
"263.51 458 LINE",
"448.812 24.262 LINE",
"681.781 36.551 LINE",
"351.414 714 LINE SMOOTH"
);
},
{
closed = 1;
nodes = (
"342.408 714 LINE",
"338.408 680.283 OFFCURVE",
"297.112 589.922 OFFCURVE",
"285.361 564.867 CURVE",
"24.19 3.095 LINE",
"105.233 3.095 LINE",
"351.3 557.543 LINE",
"351.414 714 LINE"
);
},
{
closed = 1;
nodes = (
"150.293 216 LINE",
"150.293 166 LINE",
"432.513 166 LINE",
"432.513 216 LINE"
);
},
{
closed = 1;
nodes = (
"56.7 73.013 LINE",
"35.488 28.464 OFFCURVE",
"-1 10 OFFCURVE",
"-31 10 CURVE SMOOTH",
"-31 10 OFFCURVE",
"-40 10 OFFCURVE",
"-40 10 CURVE",
"-40 0 LINE",
"183.279 0 LINE",
"183.279 9.908 LINE",
"174.487 9.908 LINE SMOOTH",
"148.67 9.908 OFFCURVE",
"118.49 32.664 OFFCURVE",
"136.092 72.681 CURVE"
);
},
{
closed = 1;
nodes = (
"574 17 OFFCURVE",
"734 1 OFFCURVE",
"760.264 0 CURVE",
"760.264 10.38 LINE",
"760.264 10.38 OFFCURVE",
"751.901 12 OFFCURVE",
"751.901 12 CURVE SMOOTH",
"721.254 18 OFFCURVE",
"686.244 28.464 OFFCURVE",
"664.032 73.013 CURVE",
"428.143 73.013 LINE",
"444 33 OFFCURVE",
"442 14 OFFCURVE",
"421 0 CURVE SMOOTH",
"388 -22 OFFCURVE",
"359 -37 OFFCURVE",
"351 -84 CURVE SMOOTH",
"328 -220 OFFCURVE",
"548 -257 OFFCURVE",
"555.404 -121 CURVE",
"549.404 -115 LINE",
"501 -155 OFFCURVE",
"442 -133 OFFCURVE",
"437 -73 CURVE SMOOTH",
"434 -42 OFFCURVE",
"448 -12 OFFCURVE",
"501 0 CURVE SMOOTH"
);
}
);
width = 720;
}
);
leftKerningGroup = A;
leftMetricsKey = A;
rightKerningGroup = A;
rightMetricsKey = A;
unicode = 0104;
},
{
glyphname = Aring;
lastChange = "2012-03-27 17:27:50 +0000";
layers = (
{
layerId = "A24B85EF-CA04-493E-A47C-A7B61068A6D7";
paths = (
{
closed = 1;
nodes = (
"339.4 619 LINE",
"569.573 6.095 LINE",
"654.633 6.095 LINE",
"359.414 714 LINE"
);
},
{
closed = 1;
nodes = (
"86.66 73.013 LINE",
"66.448 28.464 OFFCURVE",
"29.438 10 OFFCURVE",
"-1 10 CURVE SMOOTH",
"-1 10 OFFCURVE",
"-10 10 OFFCURVE",
"-10 10 CURVE",
"-10 0 LINE",
"191.278 0 LINE",
"191.278 9.908 LINE",
"182.486 9.908 LINE SMOOTH",
"156.669 9.908 OFFCURVE",
"129.884 32.663 OFFCURVE",
"144.486 72.681 CURVE"
);
},
{
closed = 1;
nodes = (
"350.408 714 LINE",
"350.408 692.013 OFFCURVE",
"313.382 611 OFFCURVE",
"313.382 611 CURVE",
"57.19 3.095 LINE",
"117.233 3.095 LINE",
"368.42 644 LINE",
"359.414 714 LINE"
);
},
{
closed = 1;
nodes = (
"187.293 273 LINE",
"187.293 243 LINE",
"499.513 243 LINE",
"499.513 273 LINE"
);
},
{
closed = 1;
nodes = (
"559.169 32.664 OFFCURVE",
"532.384 9.911 OFFCURVE",
"506.568 9.911 CURVE SMOOTH",
"497.776 9.911 LINE",
"497.776 0 LINE",
"722.956 0 LINE",
"722.956 10 LINE",
"722.956 10 OFFCURVE",
"714.593 10 OFFCURVE",
"714.593 10 CURVE SMOOTH",
"683.946 10 OFFCURVE",
"646.936 28.464 OFFCURVE",
"626.724 73.013 CURVE",
"544.567 72.681 LINE"
);
},
{
closed = 1;
nodes = (
"307.444 837.345 OFFCURVE",
"270.773 809.127 OFFCURVE",
"270.773 769.351 CURVE SMOOTH",
"270.773 729.575 OFFCURVE",
"307.444 701.357 OFFCURVE",
"355.855 701.357 CURVE SMOOTH",
"404.267 701.357 OFFCURVE",
"440.938 729.575 OFFCURVE",
"440.938 769.351 CURVE SMOOTH",
"440.938 812.127 OFFCURVE",
"404.267 837.345 OFFCURVE",
"355.855 837.345 CURVE SMOOTH"
);
},
{
closed = 1;
nodes = (
"380.934 821.784 OFFCURVE",
"400.305 803.1 OFFCURVE",
"400.305 769.351 CURVE SMOOTH",
"400.305 735.602 OFFCURVE",
"380.934 716.918 OFFCURVE",
"355.856 716.918 CURVE SMOOTH",
"330.777 716.918 OFFCURVE",
"311.406 735.602 OFFCURVE",
"311.406 769.351 CURVE SMOOTH",
"311.406 803.1 OFFCURVE",
"330.777 821.784 OFFCURVE",
"355.856 821.784 CURVE SMOOTH"
);
}
);
width = 712;
},
{
layerId = "29CFC173-9C98-4BE1-970A-002FF3BCF672";
paths = (
{
closed = 1;
nodes = (
"263.51 458 LINE",
"456.573 6.095 LINE",
"696.633 6.095 LINE",
"351.414 714 LINE SMOOTH"
);
},
{
closed = 1;
nodes = (
"56.7 73.013 LINE",
"35.488 28.464 OFFCURVE",
"-1 10 OFFCURVE",
"-31 10 CURVE SMOOTH",
"-31 10 OFFCURVE",
"-40 10 OFFCURVE",
"-40 10 CURVE",
"-40 0 LINE",
"183.279 0 LINE",
"183.279 9.908 LINE",
"174.487 9.908 LINE SMOOTH",
"148.67 9.908 OFFCURVE",
"118.49 32.664 OFFCURVE",
"136.092 72.681 CURVE"
);
},
{
closed = 1;
nodes = (
"342.408 714 LINE",
"338.408 680.283 OFFCURVE",
"297.112 589.922 OFFCURVE",
"285.361 564.867 CURVE",
"24.19 3.095 LINE",
"105.233 3.095 LINE",
"351.3 557.543 LINE",
"351.414 714 LINE"
);
},
{
closed = 1;
nodes = (
"150.293 216 LINE",
"150.293 166 LINE",
"432.513 166 LINE",
"432.513 216 LINE"
);
},
{
closed = 1;
nodes = (
"444.745 32.664 OFFCURVE",
"415.815 9.911 OFFCURVE",
"389.999 9.911 CURVE SMOOTH",
"381.207 9.911 LINE",
"381.207 0 LINE",
"760.264 0 LINE",
"760.264 10 LINE",
"760.264 10 OFFCURVE",
"751.901 10 OFFCURVE",
"751.901 10 CURVE SMOOTH",
"721.254 10 OFFCURVE",
"686.244 28.464 OFFCURVE",
"664.032 73.013 CURVE",
"428.143 72.681 LINE"
);
},
{
closed = 1;
nodes = (
"293.673 843.063 OFFCURVE",
"248.471 813.296 OFFCURVE",
"248.739 768.422 CURVE SMOOTH",
"248.471 723.993 OFFCURVE",
"294.776 693.123 OFFCURVE",
"347.096 693.388 CURVE SMOOTH",
"400.616 693.123 OFFCURVE",
"445.818 725.096 OFFCURVE",
"446.268 769.335 CURVE SMOOTH",
"445.818 814.398 OFFCURVE",
"401.718 843.063 OFFCURVE",
"347.84 843.314 CURVE"
);
},
{
closed = 1;
nodes = (
"372.007 820.984 OFFCURVE",
"390.647 798.572 OFFCURVE",
"390.445 768.351 CURVE SMOOTH",
"390.64 738.67 OFFCURVE",
"372 716.258 OFFCURVE",
"346.953 716.056 CURVE SMOOTH",
"322.837 716.246 OFFCURVE",
"304.669 738.658 OFFCURVE",
"304.562 768.351 CURVE SMOOTH",
"304.676 798.551 OFFCURVE",
"322.844 820.963 OFFCURVE",
"346.953 820.646 CURVE SMOOTH"
);
}
);
width = 720;
}
);
leftKerningGroup = A;
leftMetricsKey = A;
rightKerningGroup = A;
rightMetricsKey = A;
unicode = 00C5;
},
{
glyphname = AE;
lastChange = "2012-05-09 14:58:41 +0000";
layers = (
{
anchors = (
{
name = top;
position = "{612, 700}";
}
);
layerId = "A24B85EF-CA04-493E-A47C-A7B61068A6D7";
paths = (
{
closed = 1;
nodes = (
"89.205 71.347 LINE",
"69.468 39.672 OFFCURVE",
"30.182 10 OFFCURVE",
"-3 10 CURVE SMOOTH",
"-3 10 OFFCURVE",
"-10 10 OFFCURVE",
"-10 10 CURVE",
"-10 0 LINE",
"188.523 0 LINE",
"188.523 10 LINE",
"179.077 10 LINE SMOOTH",
"149.011 8.202 OFFCURVE",
"135.686 38.665 OFFCURVE",
"152.534 67.329 CURVE"
);
},
{
closed = 1;
nodes = (
"465.555 653.94 LINE",
"465.555 0 LINE",
"530.588 0 LINE",
"530.588 700 LINE"
);
},
{
closed = 1;
nodes = (
"465.55 58.357 LINE",
"465.046 31.561 OFFCURVE",
"443.202 9.984 OFFCURVE",
"416.278 9.984 CURVE SMOOTH",
"416.161 9.984 OFFCURVE",
"406.668 10 OFFCURVE",
"406.547 10 CURVE",
"406.423 0 LINE",
"467.788 0 LINE",
"467.788 58.357 LINE"
);
},
{
closed = 1;
nodes = (
"527.769 30.59 LINE",
"527.769 0 LINE",
"800.544 0 LINE",
"800.544 30.59 LINE"
);
},
{
closed = 1;
nodes = (
"297.949 350.218 LINE",
"292.949 320.218 LINE",
"757.946 320.218 LINE",
"757.946 350.218 LINE"
);
},
{
closed = 1;
nodes = (
"437.553 700 LINE",
"437.553 690 LINE",
"441.553 690 LINE",
"460.307 690 OFFCURVE",
"471.17 672.717 OFFCURVE",
"463.278 655.434 CURVE",
"45.526 3 LINE",
"114.569 3 LINE",
"487.757 635.308 LINE SMOOTH",
"490.757 669.409 LINE",
"800.498 669.409 LINE",
"800.498 700 LINE"
);
},
{
closed = 1;
nodes = (
"847.685 138.8 LINE",
"821.347 75.876 OFFCURVE",
"772.841 30.576 OFFCURVE",
"692.706 30.576 CURVE",
"662.703 0 LINE",
"801.993 0 LINE",
"857.685 138.8 LINE"
);
},
{
closed = 1;
nodes = (
"699.59 322.487 LINE",
"699.59 320.249 LINE",
"726.385 319.745 OFFCURVE",
"747.961 297.901 OFFCURVE",
"747.961 270.977 CURVE SMOOTH",
"747.946 256.243 LINE",
"757.946 256.119 LINE",
"757.946 322.487 LINE"
);
},
{
closed = 1;
nodes = (
"747.946 414.25 LINE",
"747.963 399.516 LINE SMOOTH",
"747.963 372.593 OFFCURVE",
"726.385 350.753 OFFCURVE",
"699.59 350.248 CURVE",
"699.59 348.012 LINE",
"757.946 348.012 LINE",
"757.946 414.375 LINE"
);
},
{
closed = 1;
nodes = (
"742.143 671.625 LINE",
"742.143 669.387 LINE",
"768.94 668.883 OFFCURVE",
"790.514 647.038 OFFCURVE",
"790.514 620.115 CURVE SMOOTH",
"790.498 605.384 LINE",
"800.498 605.26 LINE",
"800.498 671.625 LINE"
);
},
{
closed = 1;
nodes = (
"781.549 710.201 OFFCURVE",
"721.926 699.987 OFFCURVE",
"678.567 699.987 CURVE",
"800.498 688.909 LINE",
"800.498 718.187 LINE"
);
}
);
width = 902;
},
{
anchors = (
{
name = top;
position = "{300, 700}";
}
);
layerId = "29CFC173-9C98-4BE1-970A-002FF3BCF672";
paths = (
{
closed = 1;
nodes = (
"63.613 73.013 LINE",
"32.401 28.464 OFFCURVE",
"5.913 10 OFFCURVE",
"-24 10 CURVE SMOOTH",
"-24 10 OFFCURVE",
"-33 10 OFFCURVE",
"-33 10 CURVE",
"-33 0 LINE",
"204.972 0 LINE",
"204.972 9.908 LINE",
"196.18 9.908 LINE SMOOTH",
"170.363 9.908 OFFCURVE",
"133.183 32.664 OFFCURVE",
"157.785 72.681 CURVE"
);
},
{
closed = 1;
nodes = (
"465.555 653.94 LINE",
"465.555 0 LINE",
"670.588 0 LINE",
"670.588 700 LINE"
);
},
{
closed = 1;
nodes = (
"465.55 58.357 LINE",
"465.046 31.561 OFFCURVE",
"443.202 9.984 OFFCURVE",
"416.278 9.984 CURVE SMOOTH",
"416.161 9.984 OFFCURVE",
"406.668 10 OFFCURVE",
"406.547 10 CURVE",
"406.423 0 LINE",
"467.788 0 LINE",
"467.788 58.357 LINE"
);
},
{
closed = 1;
nodes = (
"667.769 50.59 LINE",
"667.769 0 LINE",
"940.544 0 LINE",
"940.544 50.59 LINE"
);
},
{
closed = 1;
nodes = (
"297.949 367.218 LINE",
"292.949 317.218 LINE",
"887.604 317.218 LINE",
"887.604 367.218 LINE"
);
},
{
closed = 1;
nodes = (
"426.553 700 LINE",
"426.553 690 LINE",
"431.553 690 LINE",
"456.779 690 OFFCURVE",
"471.068 667.91 OFFCURVE",
"453.227 640.789 CURVE",
"15.526 3 LINE",
"114.569 3 LINE",
"487.757 605.308 LINE SMOOTH",
"550.757 649.409 LINE",
"940.441 649.409 LINE",
"940.441 700 LINE"
);
},
{
closed = 1;
nodes = (
"991.417 231.543 LINE",
"960.325 117.359 OFFCURVE",
"879.855 50.592 OFFCURVE",
"783.892 50.592 CURVE",
"747.588 0 LINE",
"963.129 0 LINE",
"1001.42 231.543 LINE"
);
},
{
closed = 1;
nodes = (
"769.476 319.644 LINE",
"769.476 317.406 LINE",
"832.95 316.212 OFFCURVE",
"878.059 270.942 OFFCURVE",
"877.847 208.134 CURVE SMOOTH",
"877.831 203.4 LINE",
"887.604 203.276 LINE",
"887.604 319.644 LINE"
);
},
{
closed = 1;
nodes = (
"877.831 481.11 LINE",
"877.848 476.376 LINE SMOOTH",
"878.073 413.574 OFFCURVE",
"833.023 368.306 OFFCURVE",
"769.476 367.108 CURVE",
"769.476 364.872 LINE",
"887.604 364.872 LINE",
"887.604 481.235 LINE"
);
},
{
closed = 1;
nodes = (
"801.808 652.218 LINE",
"801.808 649.51 LINE",
"882.792 647.987 OFFCURVE",
"930.531 599.769 OFFCURVE",
"930.337 519.891 CURVE SMOOTH",
"930.318 512.067 LINE",
"940.441 511.917 LINE",
"940.441 652.218 LINE"
);
},
{
closed = 1;
nodes = (
"921.491 710.201 OFFCURVE",
"861.812 699.987 OFFCURVE",
"818.452 699.987 CURVE",
"940.441 688.909 LINE",
"940.441 718.187 LINE"
);
}
);
width = 1017;
}
);
leftKerningGroup = A;
rightKerningGroup = E;
unicode = 00C6;
},
{
glyphname = B;
lastChange = "2012-05-09 14:49:48 +0000";
layers = (
{
layerId = "A24B85EF-CA04-493E-A47C-A7B61068A6D7";
paths = (
{
closed = 1;
nodes = (
"152.611 700 OFFCURVE",
"162.663 669.483 OFFCURVE",
"162.663 667.949 CURVE",
"255.176 667.818 LINE",
"350 668 OFFCURVE",
"401 616 OFFCURVE",
"401.384 525.604 CURVE SMOOTH",
"401 397 OFFCURVE",
"297 379 OFFCURVE",
"236.016 379.222 CURVE",
"236.244 369.81 LINE",
"333 370 OFFCURVE",
"462 345 OFFCURVE",
"461.907 195.122 CURVE SMOOTH",
"462 94 OFFCURVE",
"403 36 OFFCURVE",
"300.375 36.469 CURVE",
"193.994 36.469 LINE",
"193.994 36.469 OFFCURVE",
"193.136 0 OFFCURVE",
"193.136 0 CURVE",
"303.994 0 LINE SMOOTH",
"453 0 OFFCURVE",
"537 75 OFFCURVE",
"536.907 187.941 CURVE SMOOTH",
"537 287 OFFCURVE",
"472 365 OFFCURVE",
"365.549 380.853 CURVE",
"422 397 OFFCURVE",
"476 448 OFFCURVE",
"476.384 532.796 CURVE SMOOTH",
"476 633 OFFCURVE",
"399 700 OFFCURVE",
"258.795 700 CURVE SMOOTH",
"152.611 700 LINE SMOOTH"
);
},
{
closed = 1;
nodes = (
"137.197 700 LINE",
"137.197 0 LINE",
"202.314 0 LINE",
"202.314 700 LINE"
);
},
{
closed = 1;
nodes = (
"137.213 72.864 LINE",
"136.558 38.029 OFFCURVE",
"108.161 9.979 OFFCURVE",
"73.16 9.979 CURVE SMOOTH",
"71 10 OFFCURVE",
"63 10 OFFCURVE",
"60.51 10 CURVE",
"60.348 0 LINE",
"140.123 0 LINE",
"140.123 72.864 LINE"
);
},
{
closed = 1;
nodes = (
"140.126 700 LINE",
"60.351 700 LINE",
"60.513 690.06 LINE",
"63 690 OFFCURVE",
"71 690 OFFCURVE",
"73 690 CURVE SMOOTH",
"108.164 690.08 OFFCURVE",
"136.561 662.03 OFFCURVE",
"137.217 627.195 CURVE",
"140.126 627.195 LINE"
);
}
);
width = 586;
},
{
layerId = "29CFC173-9C98-4BE1-970A-002FF3BCF672";
paths = (
{
closed = 1;
nodes = (
"162.263 700 OFFCURVE",
"172.315 651.483 OFFCURVE",
"172.315 649.949 CURVE",
"324.828 649.818 LINE",
"390 650 OFFCURVE",
"441 617 OFFCURVE",
"441.036 510.072 CURVE SMOOTH",
"441 427 OFFCURVE",
"410 379 OFFCURVE",
"345.668 379.222 CURVE",
"345.896 369.81 LINE",
"430 370 OFFCURVE",
"472 311 OFFCURVE",
"471.559 215.389 CURVE SMOOTH",
"472 94 OFFCURVE",
"405 51 OFFCURVE",
"324.828 51.47 CURVE",
"303.646 51.47 LINE",
"303.646 51.47 OFFCURVE",
"302.788 0 OFFCURVE",
"302.788 0 CURVE",
"393.646 0 LINE SMOOTH",
"576 0 OFFCURVE",
"707 61 OFFCURVE",
"706.559 199.868 CURVE SMOOTH",
"707 311 OFFCURVE",
"623 376 OFFCURVE",
"525.201 380.853 CURVE",
"592 383 OFFCURVE",
"656 430 OFFCURVE",
"656.036 526.101 CURVE SMOOTH",
"656 663 OFFCURVE",
"527 700 OFFCURVE",
"378.447 700 CURVE SMOOTH",
"162.263 700 LINE SMOOTH"
);
},
{
closed = 1;
nodes = (
"106.849 700 LINE",
"106.849 0 LINE",
"311.966 0 LINE",
"311.966 700 LINE"
);
},
{
closed = 1;
nodes = (
"106.865 72.864 LINE",
"106.21 38.029 OFFCURVE",
"77.813 9.979 OFFCURVE",
"42.812 9.979 CURVE SMOOTH",
"41 10 OFFCURVE",
"32 10 OFFCURVE",
"30.162 10 CURVE",
"30 0 LINE",
"109.775 0 LINE",
"109.775 72.864 LINE"
);
},
{
closed = 1;
nodes = (
"109.778 700 LINE",
"30.003 700 LINE",
"30.165 690.06 LINE",
"32 690 OFFCURVE",
"41 690 OFFCURVE",
"43 690 CURVE SMOOTH",
"77.816 690.08 OFFCURVE",
"106.213 662.03 OFFCURVE",
"106.869 627.195 CURVE",
"109.778 627.195 LINE"
);
}
);
width = 731;
},
{
associatedMasterId = "29CFC173-9C98-4BE1-970A-002FF3BCF672";
layerId = "1E958117-1102-42AD-91AA-E507AA1BD0B4";
name = "Bold Mar 19 12, 21:20";
paths = (
{
closed = 1;
nodes = (
"142.263 700 OFFCURVE",
"152.315 649.483 OFFCURVE",
"152.315 647.949 CURVE",
"324.828 647.818 LINE",
"389.425 647.818 OFFCURVE",
"421.036 604.308 OFFCURVE",
"421.036 515.397 CURVE SMOOTH",
"421.036 423.965 OFFCURVE",
"389.701 379.222 OFFCURVE",
"325.668 379.222 CURVE",
"325.896 369.81 LINE",
"410.27 369.81 OFFCURVE",
"451.559 315.953 OFFCURVE",
"451.559 205.897 CURVE SMOOTH",
"451.559 99.163 OFFCURVE",
"405.35 56.47 OFFCURVE",
"324.828 56.47 CURVE",
"283.646 56.47 LINE",
"283.646 56.47 OFFCURVE",
"282.788 0 OFFCURVE",
"282.788 0 CURVE",
"373.646 0 LINE SMOOTH",
"556.888 0 OFFCURVE",
"646.559 67.652 OFFCURVE",
"646.559 205.897 CURVE SMOOTH",
"646.559 304.989 OFFCURVE",
"575.568 376.471 OFFCURVE",
"475.201 380.853 CURVE",
"545.976 383.548 OFFCURVE",
"596.036 433.431 OFFCURVE",
"596.036 525.397 CURVE SMOOTH",
"596.036 642.63 OFFCURVE",
"517.971 700 OFFCURVE",
"358.447 700 CURVE SMOOTH",
"142.263 700 LINE SMOOTH"
);
},
{
closed = 1;
nodes = (
"126.849 700 LINE",
"126.849 0 LINE",
"291.966 0 LINE",
"291.966 700 LINE"
);
},
{
closed = 1;
nodes = (
"126.865 72.864 LINE",
"126.21 38.029 OFFCURVE",
"97.813 9.979 OFFCURVE",
"62.812 9.979 CURVE SMOOTH",
"62.66 9.979 OFFCURVE",
"50.319 10 OFFCURVE",
"50.162 10 CURVE",
"50 0 LINE",
"129.775 0 LINE",
"129.775 72.864 LINE"
);
},
{
closed = 1;
nodes = (
"129.778 700.06 LINE",
"50.003 700.06 LINE",
"50.165 690.06 LINE",
"50.322 690.06 OFFCURVE",
"62.663 690.08 OFFCURVE",
"62.815 690.08 CURVE SMOOTH",
"97.816 690.08 OFFCURVE",
"126.213 662.03 OFFCURVE",
"126.869 627.195 CURVE",
"129.778 627.195 LINE"
);
}
);
width = 656;
}
);
leftKerningGroup = H;
rightKerningGroup = B;
unicode = 0042;
},
{
glyphname = C;
lastChange = "2012-04-12 17:47:35 +0000";
layers = (
{
anchors = (
{
name = bottom;
position = "{418.068, -9.388}";
},
{
name = top;
position = "{417.19, 764}";
}
);
layerId = "A24B85EF-CA04-493E-A47C-A7B61068A6D7";
paths = (
{
closed = 1;
nodes = (
"702.006 291.85 LINE",
"679.263 87.058 OFFCURVE",
"559.123 16.354 OFFCURVE",
"417.129 15.929 CURVE",
"249 20 OFFCURVE",
"135 151 OFFCURVE",
"135 352 CURVE SMOOTH",
"135 551 OFFCURVE",
"247 684 OFFCURVE",
"422.814 684.074 CURVE SMOOTH",
"543 684 OFFCURVE",
"641 622 OFFCURVE",
"671.378 505.264 CURVE",
"679.701 505.232 LINE",
"659.525 646.468 LINE",
"601 685 OFFCURVE",
"521 714 OFFCURVE",
"423 714 CURVE SMOOTH",
"203 714 OFFCURVE",
"60 568 OFFCURVE",
"60 351 CURVE SMOOTH",
"60 130 OFFCURVE",
"208 -13 OFFCURVE",
"417.128 -14 CURVE",
"555.992 -14 OFFCURVE",
"645.441 48.8 OFFCURVE",
"698.139 134.938 CURVE",
"710.328 291.886 LINE"
);
}
);
width = 760;
},
{
anchors = (
{
name = bottom;
position = "{445.32, -9.388}";
},
{
name = top;
position = "{436, 764}";
}
);
layerId = "29CFC173-9C98-4BE1-970A-002FF3BCF672";
paths = (
{
closed = 1;
nodes = (
"721.006 291.85 LINE",
"684.435 100.51 OFFCURVE",
"633.678 35.929 OFFCURVE",
"472.128 35.929 CURVE",
"335.648 39.866 OFFCURVE",
"255 158.007 OFFCURVE",
"255 354 CURVE SMOOTH",
"255 548.837 OFFCURVE",
"342.161 664.008 OFFCURVE",
"489.665 664.074 CURVE SMOOTH",
"593 664 OFFCURVE",
"671 618 OFFCURVE",
"711.378 477.264 CURVE",
"719.701 477.232 LINE",
"729.525 668.468 LINE",
"674 692 OFFCURVE",
"585 714 OFFCURVE",
"473 714 CURVE SMOOTH",
"197 714 OFFCURVE",
"35 579 OFFCURVE",
"35 351 CURVE SMOOTH",
"35 118 OFFCURVE",
"203 -13 OFFCURVE",
"472.128 -14 CURVE",
"630.992 -14 OFFCURVE",
"713.441 43.8 OFFCURVE",
"753.139 109.938 CURVE",
"729.328 291.886 LINE"
);
}
);
width = 793;
}
);
leftKerningGroup = O;
rightKerningGroup = C;
unicode = 0043;
},
{
glyphname = D;
lastChange = "2012-05-09 14:50:12 +0000";
layers = (
{
anchors = (
{
name = center;
position = "{415.243, 350}";
},
{
name = top;
position = "{399.243, 764}";
}
);
layerId = "A24B85EF-CA04-493E-A47C-A7B61068A6D7";
paths = (
{
closed = 1;
nodes = (
"174.125 699.975 LINE",
"174.125 669.931 LINE",
"174.531 669.931 OFFCURVE",
"398.536 669.944 OFFCURVE",
"398.536 669.944 CURVE SMOOTH",
"568.94 669.944 OFFCURVE",
"682.678 541.85 OFFCURVE",
"682.678 349.709 CURVE SMOOTH",
"682.678 158.148 OFFCURVE",
"569.94 30.44 OFFCURVE",
"398.536 30.44 CURVE SMOOTH",
"398.536 30.44 OFFCURVE",
"184.369 30.452 OFFCURVE",
"183.963 30.452 CURVE",
"185.499 0 LINE",
"398.536 0 LINE",
"612.129 0 OFFCURVE",
"757.678 139.952 OFFCURVE",
"757.678 349.709 CURVE SMOOTH",
"757.678 559.884 OFFCURVE",
"612.129 699.975 OFFCURVE",
"398.536 699.975 CURVE"
);
},
{
closed = 1;
nodes = (
"136.862 699.975 LINE",
"136.862 0 LINE",
"201.983 0 LINE",
"201.983 699.975 LINE"
);
},
{
closed = 1;
nodes = (
"136.865 72.864 LINE",
"136.21 38.029 OFFCURVE",
"107.813 9.979 OFFCURVE",
"72.811 9.979 CURVE SMOOTH",
"72.659 9.979 OFFCURVE",
"60.318 10 OFFCURVE",
"60.161 10 CURVE",
"60 0 LINE",
"139.775 0 LINE",
"139.775 72.864 LINE"
);
},
{
closed = 1;
nodes = (
"140.126 699.975 LINE",
"60.351 699.975 LINE",
"60.513 690.06 LINE",
"60.67 690.06 OFFCURVE",
"73.011 690.08 OFFCURVE",
"73.163 690.08 CURVE SMOOTH",
"108.164 690.08 OFFCURVE",
"136.561 662.03 OFFCURVE",
"137.217 627.196 CURVE",
"140.126 627.196 LINE"
);
}
);
width = 807;
},
{
anchors = (
{
name = center;
position = "{290, 350}";
},
{
name = top;
position = "{421.238, 764}";
}
);
layerId = "29CFC173-9C98-4BE1-970A-002FF3BCF672";
paths = (
{
closed = 1;
nodes = (
"144.125 699.975 LINE",
"144.125 649.931 LINE",
"310.326 649.931 OFFCURVE",
"388.528 649.944 OFFCURVE",
"388.536 649.944 CURVE SMOOTH",
"513.711 649.944 OFFCURVE",
"587.678 538.428 OFFCURVE",
"587.678 349.709 CURVE SMOOTH",
"587.678 161.597 OFFCURVE",
"513.711 50.44 OFFCURVE",
"388.536 50.44 CURVE SMOOTH",
"388.528 50.44 OFFCURVE",
"313.98 50.452 OFFCURVE",
"153.963 50.452 CURVE",
"155.499 0 LINE",
"408.536 0 LINE",
"659.425 0 OFFCURVE",
"807.678 129.928 OFFCURVE",
"807.678 349.709 CURVE SMOOTH",
"807.678 569.876 OFFCURVE",
"659.425 699.975 OFFCURVE",
"408.536 699.975 CURVE"
);
},
{
closed = 1;
nodes = (
"106.862 699.975 LINE",
"106.862 0 LINE",
"311.983 0 LINE",
"311.983 699.975 LINE"
);
},
{
closed = 1;
nodes = (
"106.865 72.864 LINE",
"106.21 38.029 OFFCURVE",
"77.813 9.979 OFFCURVE",
"42.811 9.979 CURVE SMOOTH",
"42.659 9.979 OFFCURVE",
"30.318 10 OFFCURVE",
"30.161 10 CURVE",
"30 0 LINE",
"109.775 0 LINE",
"109.775 72.864 LINE"
);
},
{
closed = 1;
nodes = (
"110.126 699.975 LINE",
"30.351 699.975 LINE",
"30.513 690.06 LINE",
"30.67 690.06 OFFCURVE",
"43.011 690.08 OFFCURVE",
"43.163 690.08 CURVE SMOOTH",
"78.164 690.08 OFFCURVE",
"106.561 662.03 OFFCURVE",
"107.217 627.196 CURVE",
"110.126 627.196 LINE"
);
}
);
width = 842;
}
);
leftKerningGroup = H;
rightKerningGroup = O;
unicode = 0044;
},
{
glyphname = Eth;
lastChange = "2012-05-09 14:50:43 +0000";
layers = (
{
layerId = "A24B85EF-CA04-493E-A47C-A7B61068A6D7";
paths = (
{
closed = 1;
nodes = (
"60 335.016 LINE",
"370 335.016 LINE",
"370 365.016 LINE",
"60 365.016 LINE"
);
},
{
closed = 1;
nodes = (
"179.031 699.975 LINE",
"179.031 669.931 LINE",
"179.437 669.931 OFFCURVE",
"403.442 669.944 OFFCURVE",
"403.442 669.944 CURVE SMOOTH",
"573.846 669.944 OFFCURVE",
"687.584 541.85 OFFCURVE",
"687.584 349.709 CURVE SMOOTH",
"687.584 158.148 OFFCURVE",
"573.846 30.44 OFFCURVE",
"403.442 30.44 CURVE SMOOTH",
"403.442 30.44 OFFCURVE",
"189.275 30.452 OFFCURVE",
"188.869 30.452 CURVE",
"190.405 0.057 LINE",
"403.442 0.057 LINE",
"617.035 0.057 OFFCURVE",
"757.584 139.952 OFFCURVE",
"757.584 349.709 CURVE SMOOTH",
"757.584 559.884 OFFCURVE",
"617.035 699.975 OFFCURVE",
"403.442 699.975 CURVE"
);
},
{
closed = 1;
nodes = (
"141.768 699.975 LINE",
"141.768 0.057 LINE",
"206.889 0.057 LINE",
"206.889 699.975 LINE"
);
},
{
closed = 1;
nodes = (
"141.771 72.864 LINE",
"141.116 38.029 OFFCURVE",
"112.719 9.979 OFFCURVE",
"77.717 9.979 CURVE SMOOTH",
"77.565 9.979 OFFCURVE",
"65.224 10 OFFCURVE",
"65.067 10 CURVE",
"64.906 0 LINE",
"144.681 0 LINE",
"144.681 72.864 LINE"
);
},
{
closed = 1;
nodes = (
"145.032 700.06 LINE",
"65.257 700.06 LINE",
"65.419 690.06 LINE",
"65.576 690.06 OFFCURVE",
"77.917 690.08 OFFCURVE",
"78.069 690.08 CURVE SMOOTH",
"113.07 690.08 OFFCURVE",
"141.467 662.03 OFFCURVE",
"142.123 627.196 CURVE",
"145.032 627.196 LINE"
);
}
);
width = 807;
},
{
layerId = "29CFC173-9C98-4BE1-970A-002FF3BCF672";
paths = (
{
closed = 1;
nodes = (
"30 325.016 LINE",
"420 325.016 LINE",
"420 375.016 LINE",
"30 375.016 LINE"
);
},
{
closed = 1;
nodes = (
"144.125 699.975 LINE",
"144.125 649.931 LINE",
"310.326 649.931 OFFCURVE",
"388.528 649.944 OFFCURVE",
"388.536 649.944 CURVE SMOOTH",
"514.282 649.944 OFFCURVE",
"592.678 538.428 OFFCURVE",
"592.678 349.709 CURVE SMOOTH",
"592.678 161.597 OFFCURVE",
"514.282 50.44 OFFCURVE",
"388.536 50.44 CURVE SMOOTH",
"388.528 50.44 OFFCURVE",
"313.98 50.452 OFFCURVE",
"153.963 50.452 CURVE",
"155.499 0 LINE",
"408.536 0 LINE",
"659.425 0 OFFCURVE",
"807.678 129.928 OFFCURVE",
"807.678 349.709 CURVE SMOOTH",
"807.678 569.876 OFFCURVE",
"659.425 699.975 OFFCURVE",
"408.536 699.975 CURVE"
);
},
{
closed = 1;
nodes = (
"106.862 699.975 LINE",
"106.862 0 LINE",
"311.983 0 LINE",
"311.983 699.975 LINE"
);
},
{
closed = 1;
nodes = (
"106.865 72.864 LINE",
"106.21 38.029 OFFCURVE",
"77.813 9.979 OFFCURVE",
"42.811 9.979 CURVE SMOOTH",
"42.659 9.979 OFFCURVE",
"30.318 10 OFFCURVE",
"30.161 10 CURVE",
"30 0 LINE",
"109.775 0 LINE",
"109.775 72.864 LINE"
);
},
{
closed = 1;
nodes = (
"110.126 699.975 LINE",
"30.351 699.975 LINE",
"30.513 690.06 LINE",
"30.67 690.06 OFFCURVE",
"43.011 690.08 OFFCURVE",
"43.163 690.08 CURVE SMOOTH",
"78.164 690.08 OFFCURVE",
"106.561 662.03 OFFCURVE",
"107.217 627.196 CURVE",
"110.126 627.196 LINE"
);
}
);
width = 842;
}
);
leftMetricsKey = D;
rightKerningGroup = O;
rightMetricsKey = d;
unicode = 00D0;
},
{
glyphname = E;
lastChange = "2019-07-31 09:27:49 +0000";
layers = (
{
anchors = (
{
name = bottom;
position = "{288.313, 0}";
},
{
name = ogonek;
position = "{424.175, 3}";
},
{
name = top;
position = "{298.313, 764}";
}
);
layerId = "A24B85EF-CA04-493E-A47C-A7B61068A6D7";
paths = (
{
closed = 1;
nodes = (
"136.869 700 LINE",
"136.869 0 LINE",
"201.901 0 LINE",
"201.901 700 LINE"
);
},
{
closed = 1;
nodes = (
"199.082 30.59 LINE",
"199.082 0 LINE",
"471.857 0 LINE",
"471.857 30.59 LINE"
);
},
{
closed = 1;
nodes = (
"199.082 360.218 LINE",
"199.082 330.218 LINE",
"429.032 330.218 LINE",
"429.032 360.218 LINE"
);
},
{
closed = 1;
nodes = (
"199.082 700 LINE",
"199.082 669.409 LINE SMOOTH",
"471.797 669.409 LINE",
"471.797 700 LINE"
);
},
{
closed = 1;
nodes = (
"522.845 161.543 LINE",
"491.976 85.405 OFFCURVE",
"451.283 30.592 OFFCURVE",
"345.32 30.592 CURVE",
"309.016 0 LINE",
"474.557 0 LINE",
"532.845 161.543 LINE"
);
},
{
closed = 1;
nodes = (
"370.904 332.487 LINE",
"370.904 330.249 LINE",
"397.698 329.745 OFFCURVE",
"419.275 307.901 OFFCURVE",
"419.275 280.977 CURVE SMOOTH",
"419.259 266.243 LINE",
"429.032 266.119 LINE",
"429.032 332.487 LINE"
);
},
{
closed = 1;
nodes = (
"419.259 424.25 LINE",
"419.276 409.516 LINE SMOOTH",
"419.276 382.593 OFFCURVE",
"397.698 360.753 OFFCURVE",
"370.904 360.248 CURVE",
"370.904 358.012 LINE",
"429.032 358.012 LINE",
"429.032 424.375 LINE"
);
},
{
closed = 1;
nodes = (
"403.236 672.218 LINE",
"403.236 669.51 LINE",
"435.66 668.9 OFFCURVE",
"461.765 642.468 OFFCURVE",
"461.765 609.891 CURVE SMOOTH",
"461.746 592.067 LINE",
"471.846 591.917 LINE",
"471.846 672.218 LINE"
);
},
{
closed = 1;
nodes = (
"452.862 710.201 OFFCURVE",
"393.24 699.987 OFFCURVE",
"349.88 699.987 CURVE",
"471.811 688.909 LINE",
"471.811 718.187 LINE"
);
},
{
closed = 1;
nodes = (
"136.865 72.864 LINE",
"136.21 38.029 OFFCURVE",
"107.813 9.979 OFFCURVE",
"72.811 9.979 CURVE SMOOTH",
"72.659 9.979 OFFCURVE",
"60.318 10 OFFCURVE",
"60.161 10 CURVE",
"60 0 LINE",
"139.775 0 LINE",
"139.775 72.864 LINE"
);
},
{
closed = 1;
nodes = (
"140.126 700.06 LINE",
"60.351 700.06 LINE",
"60.513 690.06 LINE",
"60.67 690.06 OFFCURVE",
"73.011 690.08 OFFCURVE",
"73.163 690.08 CURVE SMOOTH",
"108.164 690.08 OFFCURVE",
"136.561 662.03 OFFCURVE",
"137.217 627.196 CURVE",
"140.126 627.196 LINE"
);
}
);
width = 577;
},
{
anchors = (
{
name = bottom;
position = "{358.706, 0}";
},
{
name = ogonek;
position = "{567.919, 4.638}";
},
{
name = top;
position = "{339.039, 764}";
}
);
layerId = "29CFC173-9C98-4BE1-970A-002FF3BCF672";
paths = (
{
closed = 1;
nodes = (
"106.869 700 LINE",
"106.869 0 LINE",
"311.901 0 LINE",
"311.901 700 LINE"
);
},
{
closed = 1;
nodes = (
"309.082 50.59 LINE",
"309.082 0 LINE",
"611.857 0 LINE",
"571.857 50.59 LINE"
);
},
{
closed = 1;
nodes = (
"309.082 370.218 LINE",
"309.082 320.218 LINE",
"539.032 320.218 LINE",
"539.032 370.218 LINE"
);
},
{
closed = 1;
nodes = (
"309.082 700 LINE",
"309.082 649.409 LINE SMOOTH",
"591.822 649.409 LINE",
"591.822 700 LINE"
);
},
{
closed = 1;
nodes = (
"642.845 231.543 LINE",
"611.753 117.359 OFFCURVE",
"531.283 50.592 OFFCURVE",
"435.32 50.592 CURVE",
"399.016 0 LINE",
"614.557 0 LINE",
"652.845 231.543 LINE"
);
},
{
closed = 1;
nodes = (
"420.904 322.487 LINE",
"420.904 320.249 LINE",
"484.378 319.055 OFFCURVE",
"529.487 273.785 OFFCURVE",
"529.275 210.977 CURVE SMOOTH",
"529.259 206.243 LINE",
"539.032 206.119 LINE",
"539.032 322.487 LINE"
);
},
{
closed = 1;
nodes = (
"529.259 484.25 LINE",
"529.276 479.516 LINE SMOOTH",
"529.501 416.714 OFFCURVE",
"484.451 371.446 OFFCURVE",
"420.904 370.248 CURVE",
"420.904 368.012 LINE",
"539.032 368.012 LINE",
"539.032 484.375 LINE"
);
},
{
closed = 1;
nodes = (
"453.236 652.218 LINE",
"453.236 649.51 LINE",
"534.22 647.987 OFFCURVE",
"581.959 599.769 OFFCURVE",
"581.765 519.891 CURVE SMOOTH",
"581.746 512.067 LINE",
"591.822 511.917 LINE",
"591.822 652.218 LINE"
);
},
{
closed = 1;
nodes = (
"572.872 710.201 OFFCURVE",
"513.24 699.987 OFFCURVE",
"469.88 699.987 CURVE",
"591.822 688.909 LINE",
"591.822 718.187 LINE"
);
},
{
closed = 1;
nodes = (
"106.865 72.864 LINE",
"106.21 38.029 OFFCURVE",
"77.813 9.979 OFFCURVE",
"42.811 9.979 CURVE SMOOTH",
"42.659 9.979 OFFCURVE",
"30.318 10 OFFCURVE",
"30.161 10 CURVE",
"30 0 LINE",
"109.775 0 LINE",
"109.775 72.864 LINE"
);
},
{
closed = 1;
nodes = (
"109.782 700.06 LINE",
"30.007 700.06 LINE",
"30.169 690.06 LINE",
"30.326 690.06 OFFCURVE",
"42.667 690.08 OFFCURVE",
"42.819 690.08 CURVE SMOOTH",
"77.82 690.08 OFFCURVE",
"106.217 662.03 OFFCURVE",
"106.873 627.196 CURVE",
"109.782 627.196 LINE"
);
}
);
width = 667;
}
);
leftKerningGroup = H;
rightKerningGroup = E;
unicode = 0045;
},
{
glyphname = F;
lastChange = "2012-03-22 14:36:59 +0000";
layers = (
{
layerId = "A24B85EF-CA04-493E-A47C-A7B61068A6D7";
paths = (
{
closed = 1;
nodes = (
"136.869 700 LINE",
"136.869 0 LINE",
"201.901 0 LINE",
"201.901 700 LINE"
);
},
{
closed = 1;
nodes = (
"199.082 360.218 LINE",
"199.082 330.218 LINE",
"429.032 330.218 LINE",
"429.032 360.218 LINE"
);
},
{
closed = 1;
nodes = (
"199.082 700 LINE",
"199.082 669.409 LINE SMOOTH",
"471.797 669.409 LINE",
"471.797 700 LINE"
);
},
{
closed = 1;
nodes = (
"370.904 332.487 LINE",
"370.904 330.249 LINE",
"397.698 329.745 OFFCURVE",
"419.275 307.901 OFFCURVE",
"419.275 280.977 CURVE SMOOTH",
"419.259 266.243 LINE",
"429.032 266.119 LINE",
"429.032 332.487 LINE"
);
},
{
closed = 1;
nodes = (
"419.259 424.25 LINE",
"419.276 409.516 LINE SMOOTH",
"419.276 382.593 OFFCURVE",
"397.698 360.753 OFFCURVE",
"370.904 360.248 CURVE",
"370.904 358.012 LINE",
"429.032 358.012 LINE",
"429.032 424.375 LINE"
);
},
{
closed = 1;
nodes = (
"413.456 671.625 LINE",
"413.456 669.387 LINE",
"440.253 668.883 OFFCURVE",
"461.827 647.038 OFFCURVE",
"461.827 620.115 CURVE SMOOTH",
"461.811 605.384 LINE",
"471.811 605.26 LINE",
"471.811 671.625 LINE"
);
},
{
closed = 1;
nodes = (
"452.862 710.201 OFFCURVE",
"393.24 699.987 OFFCURVE",
"349.88 699.987 CURVE",
"471.811 688.909 LINE",
"471.811 718.187 LINE"
);
},
{
closed = 1;
nodes = (
"136.865 72.864 LINE",
"136.21 38.029 OFFCURVE",
"107.813 9.979 OFFCURVE",
"72.811 9.979 CURVE SMOOTH",
"72.659 9.979 OFFCURVE",
"60.318 10 OFFCURVE",
"60.161 10 CURVE",
"60 0 LINE",
"139.775 0 LINE",
"139.775 72.864 LINE"
);
},
{
closed = 1;
nodes = (
"140.126 700.06 LINE",
"60.351 700.06 LINE",
"60.513 690.06 LINE",
"60.67 690.06 OFFCURVE",
"73.011 690.08 OFFCURVE",
"73.163 690.08 CURVE SMOOTH",
"108.164 690.08 OFFCURVE",
"136.561 662.03 OFFCURVE",
"137.217 627.196 CURVE",
"140.126 627.196 LINE"
);
},
{
closed = 1;
nodes = (
"199.007 0 LINE",
"278.782 0 LINE",
"278.621 10 LINE",
"278.464 10 OFFCURVE",
"266.123 9.979 OFFCURVE",
"265.971 9.979 CURVE SMOOTH",
"230.969 9.979 OFFCURVE",
"202.572 38.029 OFFCURVE",
"201.917 72.864 CURVE",
"199.007 72.864 LINE"
);
}
);
width = 541;
},
{
layerId = "29CFC173-9C98-4BE1-970A-002FF3BCF672";
paths = (
{
closed = 1;
nodes = (
"106.869 700 LINE",
"106.869 0 LINE",
"311.901 0 LINE",
"311.901 700 LINE"
);
},
{
closed = 1;
nodes = (
"309.082 370.218 LINE",
"309.082 320.218 LINE",
"539.032 320.218 LINE",
"539.032 370.218 LINE"
);
},
{
closed = 1;
nodes = (
"309.082 700 LINE",
"309.082 649.409 LINE SMOOTH",
"591.797 649.409 LINE",
"591.797 700 LINE"
);
},
{
closed = 1;
nodes = (
"420.904 322.487 LINE",
"420.904 320.249 LINE",
"484.378 319.055 OFFCURVE",
"529.487 273.785 OFFCURVE",
"529.275 210.977 CURVE SMOOTH",
"529.259 206.243 LINE",
"539.032 206.119 LINE",
"539.032 322.487 LINE"
);
},
{
closed = 1;
nodes = (
"529.259 484.25 LINE",
"529.276 479.516 LINE SMOOTH",
"529.501 416.714 OFFCURVE",
"484.451 371.446 OFFCURVE",
"420.904 370.248 CURVE",
"420.904 368.012 LINE",
"539.032 368.012 LINE",
"539.032 484.375 LINE"
);
},
{
closed = 1;
nodes = (
"453.236 652.218 LINE",
"453.236 649.51 LINE",
"534.22 647.987 OFFCURVE",
"581.959 599.769 OFFCURVE",
"581.765 519.891 CURVE SMOOTH",
"581.746 512.067 LINE",
"591.846 511.917 LINE",
"591.846 652.218 LINE"
);
},
{
closed = 1;
nodes = (
"572.862 710.201 OFFCURVE",
"513.24 699.987 OFFCURVE",
"469.88 699.987 CURVE",
"591.811 688.909 LINE",
"591.811 718.187 LINE"
);
},
{
closed = 1;
nodes = (
"106.865 72.864 LINE",
"106.21 38.029 OFFCURVE",
"77.813 9.979 OFFCURVE",
"42.811 9.979 CURVE SMOOTH",
"42.659 9.979 OFFCURVE",
"30.318 10 OFFCURVE",
"30.161 10 CURVE",
"30 0 LINE",
"109.775 0 LINE",
"109.775 72.864 LINE"
);
},
{
closed = 1;
nodes = (
"109.783 700.067 LINE",
"30.008 700.067 LINE",
"30.17 690.067 LINE",
"30.327 690.067 OFFCURVE",
"42.668 690.087 OFFCURVE",
"42.82 690.087 CURVE SMOOTH",
"77.821 690.087 OFFCURVE",
"106.218 662.037 OFFCURVE",
"106.874 627.203 CURVE",
"109.783 627.203 LINE"
);
},
{
closed = 1;
nodes = (
"309.029 0 LINE",
"388.804 0 LINE",
"388.643 10 LINE",
"388.486 10 OFFCURVE",
"376.145 9.979 OFFCURVE",
"375.993 9.979 CURVE SMOOTH",
"340.991 9.979 OFFCURVE",
"312.594 38.029 OFFCURVE",
"311.939 72.864 CURVE",
"309.029 72.864 LINE"
);
}
);
width = 631;
}
);
leftKerningGroup = H;
rightKerningGroup = F;
unicode = 0046;
},
{
glyphname = G;
lastChange = "2012-04-11 12:20:22 +0000";
layers = (
{
anchors = (
{
name = bottom;
position = "{419.42, -64}";
},
{
name = top;
position = "{419.421, 764}";
}
);
layerId = "A24B85EF-CA04-493E-A47C-A7B61068A6D7";
paths = (
{
closed = 1;
nodes = (
"708.151 309.103 OFFCURVE",
"726.339 325.41 OFFCURVE",
"758.673 325.41 CURVE SMOOTH",
"773.743 325.389 LINE",
"773.743 335.389 LINE",
"577.875 335.389 LINE",
"577.875 325.389 LINE",
"593.642 325.41 LINE SMOOTH",
"625.918 325.455 OFFCURVE",
"645.075 309.049 OFFCURVE",
"645.075 279.843 CURVE",
"643.565 102.656 LINE",
"587.402 49.354 OFFCURVE",
"506.333 15.926 OFFCURVE",
"419.42 15.926 CURVE SMOOTH",
"249.918 16.817 OFFCURVE",
"135 150.447 OFFCURVE",
"135 350 CURVE SMOOTH",
"135 550.445 OFFCURVE",
"249.919 684.074 OFFCURVE",
"419.422 684.074 CURVE SMOOTH",
"551.47 684.074 OFFCURVE",
"642.999 619.702 OFFCURVE",
"673.378 505.264 CURVE",
"681.701 505.232 LINE",
"661.525 646.468 LINE",
"602.775 684.286 OFFCURVE",
"529.117 714 OFFCURVE",
"419.128 714 CURVE SMOOTH",
"206.768 714 OFFCURVE",
"60 568.401 OFFCURVE",
"60 350.002 CURVE SMOOTH",
"60 132.363 OFFCURVE",
"206.768 -13 OFFCURVE",
"419.42 -14 CURVE SMOOTH",
"569.586 -14 OFFCURVE",
"663.024 54.215 OFFCURVE",
"708.625 114.81 CURVE",
"708.625 280.182 LINE"
);
}
);
width = 798;
},
{
anchors = (
{
name = bottom;
position = "{444.347, -64}";
},
{
name = top;
position = "{426, 764}";
}
);
layerId = "29CFC173-9C98-4BE1-970A-002FF3BCF672";
paths = (
{
closed = 1;
nodes = (
"783.151 309.103 OFFCURVE",
"801.339 325.41 OFFCURVE",
"833.673 325.41 CURVE SMOOTH",
"848.743 325.389 LINE",
"848.743 335.389 LINE",
"512.875 335.389 LINE",
"512.875 325.389 LINE",
"528.642 325.41 LINE SMOOTH",
"560.918 325.455 OFFCURVE",
"580.396 309.047 OFFCURVE",
"580.075 279.843 CURVE SMOOTH",
"578.565 142.656 LINE",
"578.565 73 OFFCURVE",
"512 36 OFFCURVE",
"446.881 35.926 CURVE SMOOTH",
"314 35.775 OFFCURVE",
"255 153 OFFCURVE",
"255 342 CURVE SMOOTH",
"255 547 OFFCURVE",
"325 664 OFFCURVE",
"484.711 664.074 CURVE SMOOTH",
"575 664 OFFCURVE",
"672 627 OFFCURVE",
"714.378 477.264 CURVE",
"722.701 477.232 LINE",
"732.525 668.468 LINE",
"673.775 693.286 OFFCURVE",
"545.117 714 OFFCURVE",
"435.128 714 CURVE",
"184 714 OFFCURVE",
"35 578 OFFCURVE",
"35 352 CURVE SMOOTH",
"35 122 OFFCURVE",
"189 -14 OFFCURVE",
"425.347 -14 CURVE SMOOTH",
"592 -14 OFFCURVE",
"736 54 OFFCURVE",
"783.625 114.81 CURVE",
"784 280 LINE"
);
}
);
width = 861;
}
);
leftKerningGroup = O;
rightKerningGroup = G;
unicode = 0047;
},
{
glyphname = H;
lastChange = "2012-05-08 11:52:55 +0000";
layers = (
{
anchors = (
{
name = center;
position = "{406.306, 350}";
},
{
name = top;
position = "{406.306, 700}";
}
);
layerId = "A24B85EF-CA04-493E-A47C-A7B61068A6D7";
paths = (
{
closed = 1;
nodes = (
"611.142 700.03 LINE",
"611.142 0 LINE",
"676.189 0 LINE",
"676.189 700.03 LINE"
);
},
{
closed = 1;
nodes = (
"136.873 700.03 LINE",
"136.873 0 LINE",
"201.92 0 LINE",
"201.92 700.03 LINE"
);
},
{
closed = 1;
nodes = (
"191.574 361.058 LINE",
"191.574 331.058 LINE",
"620.318 331.058 LINE",
"620.318 361.058 LINE"
);
},
{
closed = 1;
nodes = (
"136.865 72.864 LINE",
"136.21 38.029 OFFCURVE",
"107.813 9.979 OFFCURVE",
"72.811 9.979 CURVE SMOOTH",
"72.659 9.979 OFFCURVE",
"60.318 10 OFFCURVE",
"60.161 10 CURVE",
"60 0 LINE",
"139.775 0 LINE",
"139.775 72.864 LINE"
);
},
{
closed = 1;
nodes = (
"139.791 700.03 LINE",
"60.016 700.03 LINE",
"60.178 690.06 LINE",
"60.335 690.06 OFFCURVE",
"72.676 690.08 OFFCURVE",
"72.828 690.08 CURVE SMOOTH",
"107.829 690.08 OFFCURVE",
"136.226 662.03 OFFCURVE",
"136.882 627.196 CURVE",
"139.791 627.196 LINE"
);
},
{
closed = 1;
nodes = (
"199.012 0 LINE",
"278.787 0 LINE",
"278.626 10 LINE",
"278.469 10 OFFCURVE",
"266.128 9.979 OFFCURVE",
"265.976 9.979 CURVE SMOOTH",
"230.974 9.979 OFFCURVE",
"202.577 38.029 OFFCURVE",
"201.922 72.864 CURVE",
"199.012 72.864 LINE"
);
},
{
closed = 1;
nodes = (
"201.905 627.196 LINE",
"202.561 662.03 OFFCURVE",
"230.958 690.08 OFFCURVE",
"265.959 690.08 CURVE SMOOTH",
"266.111 690.08 OFFCURVE",
"278.452 690.06 OFFCURVE",
"278.609 690.06 CURVE",
"278.771 700.03 LINE",
"198.996 700.03 LINE",
"198.996 627.196 LINE"
);
},
{
closed = 1;
nodes = (
"611.161 72.864 LINE",
"610.506 38.029 OFFCURVE",
"582.109 9.979 OFFCURVE",
"547.107 9.979 CURVE SMOOTH",
"546.955 9.979 OFFCURVE",
"534.614 10 OFFCURVE",
"534.457 10 CURVE",
"534.296 0 LINE",
"614.071 0 LINE",
"614.071 72.864 LINE"
);
},
{
closed = 1;
nodes = (
"614.087 700.03 LINE",
"534.312 700.03 LINE",
"534.474 690.06 LINE",
"534.631 690.06 OFFCURVE",
"546.972 690.08 OFFCURVE",
"547.124 690.08 CURVE SMOOTH",
"582.125 690.08 OFFCURVE",
"610.522 662.03 OFFCURVE",
"611.178 627.196 CURVE",
"614.087 627.196 LINE"
);
},
{
closed = 1;
nodes = (
"673.308 0 LINE",
"753.083 0 LINE",
"752.922 10 LINE",
"752.765 10 OFFCURVE",
"740.424 9.979 OFFCURVE",
"740.272 9.979 CURVE SMOOTH",
"705.27 9.979 OFFCURVE",
"676.873 38.029 OFFCURVE",
"676.218 72.864 CURVE",
"673.308 72.864 LINE"
);
},
{
closed = 1;
nodes = (
"676.201 627.196 LINE",
"676.857 662.03 OFFCURVE",
"705.254 690.08 OFFCURVE",
"740.255 690.08 CURVE SMOOTH",
"740.407 690.08 OFFCURVE",
"752.748 690.06 OFFCURVE",
"752.905 690.06 CURVE",
"753.067 700.03 LINE",
"673.292 700.03 LINE",
"673.292 627.196 LINE"
);
}
);
width = 813;
},
{
anchors = (
{
name = center;
position = "{410, 350}";
},
{
name = top;
position = "{410, 700}";
}
);
layerId = "29CFC173-9C98-4BE1-970A-002FF3BCF672";
paths = (
{
closed = 1;
nodes = (
"581.142 700 LINE",
"581.142 0 LINE",
"786.189 0 LINE",
"786.189 700 LINE"
);
},
{
closed = 1;
nodes = (
"106.873 700 LINE",
"106.873 0 LINE",
"311.92 0 LINE",
"311.92 700 LINE"
);
},
{
closed = 1;
nodes = (
"301.574 375 LINE",
"301.574 325 LINE",
"590.318 325 LINE",
"590.318 375 LINE"
);
},
{
closed = 1;
nodes = (
"106.865 72.864 LINE",
"106.21 38.029 OFFCURVE",
"77.813 9.979 OFFCURVE",
"42.811 9.979 CURVE SMOOTH",
"42.659 9.979 OFFCURVE",
"30.318 10 OFFCURVE",
"30.161 10 CURVE",
"30 0 LINE",
"109.775 0 LINE",
"109.775 72.864 LINE"
);
},
{
closed = 1;
nodes = (
"109.791 700.06 LINE",
"30.016 700.06 LINE",
"30.178 690.06 LINE",
"30.335 690.06 OFFCURVE",
"42.676 690.08 OFFCURVE",
"42.828 690.08 CURVE SMOOTH",
"77.829 690.08 OFFCURVE",
"106.226 662.03 OFFCURVE",
"106.882 627.196 CURVE",
"109.791 627.196 LINE"
);
},
{
closed = 1;
nodes = (
"309.012 0 LINE",
"388.787 0 LINE",
"388.626 10 LINE",
"388.469 10 OFFCURVE",
"376.128 9.979 OFFCURVE",
"375.976 9.979 CURVE SMOOTH",
"340.974 9.979 OFFCURVE",
"312.577 38.029 OFFCURVE",
"311.922 72.864 CURVE",
"309.012 72.864 LINE"
);
},
{
closed = 1;
nodes = (
"311.905 627.196 LINE",
"312.561 662.03 OFFCURVE",
"340.958 690.08 OFFCURVE",
"375.959 690.08 CURVE SMOOTH",
"376.111 690.08 OFFCURVE",
"388.452 690.06 OFFCURVE",
"388.609 690.06 CURVE",
"388.771 700.06 LINE",
"308.996 700.06 LINE",
"308.996 627.196 LINE"
);
},
{
closed = 1;
nodes = (
"581.161 72.864 LINE",
"580.506 38.029 OFFCURVE",
"552.109 9.979 OFFCURVE",
"517.107 9.979 CURVE SMOOTH",
"516.955 9.979 OFFCURVE",
"504.614 10 OFFCURVE",
"504.457 10 CURVE",
"504.296 0 LINE",
"584.071 0 LINE",
"584.071 72.864 LINE"
);
},
{
closed = 1;
nodes = (
"584.087 700.06 LINE",
"504.312 700.06 LINE",
"504.474 690.06 LINE",
"504.631 690.06 OFFCURVE",
"516.972 690.08 OFFCURVE",
"517.124 690.08 CURVE SMOOTH",
"552.125 690.08 OFFCURVE",
"580.522 662.03 OFFCURVE",
"581.178 627.196 CURVE",
"584.087 627.196 LINE"
);
},
{
closed = 1;
nodes = (
"783.308 0 LINE",
"863.083 0 LINE",
"862.922 10 LINE",
"862.765 10 OFFCURVE",
"850.424 9.979 OFFCURVE",
"850.272 9.979 CURVE SMOOTH",
"815.27 9.979 OFFCURVE",
"786.873 38.029 OFFCURVE",
"786.218 72.864 CURVE",
"783.308 72.864 LINE"
);
},
{
closed = 1;
nodes = (
"786.201 627.196 LINE",
"786.857 662.03 OFFCURVE",
"815.254 690.08 OFFCURVE",
"850.255 690.08 CURVE SMOOTH",
"850.407 690.08 OFFCURVE",
"862.748 690.06 OFFCURVE",
"862.905 690.06 CURVE",
"863.067 700.06 LINE",
"783.292 700.06 LINE",
"783.292 627.196 LINE"
);
}
);
width = 893;
}
);
leftKerningGroup = H;
rightKerningGroup = H;
unicode = 0048;
},
{
glyphname = Hbar;
lastChange = "2012-03-29 15:40:22 +0000";
layers = (
{
layerId = "A24B85EF-CA04-493E-A47C-A7B61068A6D7";
paths = (
{
closed = 1;
nodes = (
"56.268 528.11 LINE",
"56.268 498.11 LINE",
"725.012 498.11 LINE",
"725.012 528.11 LINE"
);
},
{
closed = 1;
nodes = (
"593.836 700 LINE",
"593.836 0 LINE",
"658.883 0 LINE",
"658.883 700 LINE"
);
},
{
closed = 1;
nodes = (
"119.567 700 LINE",
"119.567 0 LINE",
"184.614 0 LINE",
"184.614 700 LINE"
);
},
{
closed = 1;
nodes = (
"174.268 361.058 LINE",
"174.268 331.058 LINE",
"603.012 331.058 LINE",
"603.012 361.058 LINE"
);
},
{
closed = 1;
nodes = (
"119.559 72.864 LINE",
"118.904 38.029 OFFCURVE",
"90.507 9.979 OFFCURVE",
"55.505 9.979 CURVE SMOOTH",
"55.353 9.979 OFFCURVE",
"43.012 10 OFFCURVE",
"42.855 10 CURVE",
"42.694 0 LINE",
"122.469 0 LINE",
"122.469 72.864 LINE"
);
},
{
closed = 1;
nodes = (
"122.485 700.06 LINE",
"42.71 700.06 LINE",
"42.872 690.06 LINE",
"43.029 690.06 OFFCURVE",
"55.37 690.08 OFFCURVE",
"55.522 690.08 CURVE SMOOTH",
"90.523 690.08 OFFCURVE",
"118.92 662.03 OFFCURVE",
"119.576 627.196 CURVE",
"122.485 627.196 LINE"
);
},
{
closed = 1;
nodes = (
"181.706 0 LINE",
"261.481 0 LINE",
"261.32 10 LINE",
"261.163 10 OFFCURVE",
"248.822 9.979 OFFCURVE",
"248.67 9.979 CURVE SMOOTH",
"213.668 9.979 OFFCURVE",
"185.271 38.029 OFFCURVE",
"184.616 72.864 CURVE",
"181.706 72.864 LINE"
);
},
{
closed = 1;
nodes = (
"184.599 627.196 LINE",
"185.255 662.03 OFFCURVE",
"213.652 690.08 OFFCURVE",
"248.653 690.08 CURVE SMOOTH",
"248.805 690.08 OFFCURVE",
"261.146 690.06 OFFCURVE",
"261.303 690.06 CURVE",
"261.465 700.06 LINE",
"181.69 700.06 LINE",
"181.69 627.196 LINE"
);
},
{
closed = 1;
nodes = (
"593.855 72.864 LINE",
"593.2 38.029 OFFCURVE",
"564.803 9.979 OFFCURVE",
"529.801 9.979 CURVE SMOOTH",
"529.649 9.979 OFFCURVE",
"517.308 10 OFFCURVE",
"517.151 10 CURVE",
"516.99 0 LINE",
"596.765 0 LINE",
"596.765 72.864 LINE"
);
},
{
closed = 1;
nodes = (
"596.781 700.06 LINE",
"517.006 700.06 LINE",
"517.168 690.06 LINE",
"517.325 690.06 OFFCURVE",
"529.666 690.08 OFFCURVE",
"529.818 690.08 CURVE SMOOTH",
"564.819 690.08 OFFCURVE",
"593.216 662.03 OFFCURVE",
"593.872 627.196 CURVE",
"596.781 627.196 LINE"
);
},
{
closed = 1;
nodes = (
"656.002 0 LINE",
"735.777 0 LINE",
"735.616 10 LINE",
"735.459 10 OFFCURVE",
"723.118 9.979 OFFCURVE",
"722.966 9.979 CURVE SMOOTH",
"687.964 9.979 OFFCURVE",
"659.567 38.029 OFFCURVE",
"658.912 72.864 CURVE",
"656.002 72.864 LINE"
);
},
{
closed = 1;
nodes = (
"658.895 627.196 LINE",
"659.551 662.03 OFFCURVE",
"687.948 690.08 OFFCURVE",
"722.949 690.08 CURVE SMOOTH",
"723.101 690.08 OFFCURVE",
"735.442 690.06 OFFCURVE",
"735.599 690.06 CURVE",
"735.761 700.06 LINE",
"655.986 700.06 LINE",
"655.986 627.196 LINE"
);
}
);
width = 778;
},
{
layerId = "29CFC173-9C98-4BE1-970A-002FF3BCF672";
paths = (
{
closed = 1;
nodes = (
"42.268 538.11 LINE",
"42.268 488.11 LINE",
"853.012 488.11 LINE",
"853.012 538.11 LINE"
);
},
{
closed = 1;
nodes = (
"581.142 700 LINE",
"581.142 0 LINE",
"786.189 0 LINE",
"786.189 700 LINE"
);
},
{
closed = 1;
nodes = (
"106.873 700 LINE",
"106.873 0 LINE",
"311.92 0 LINE",
"311.92 700 LINE"
);
},
{
closed = 1;
nodes = (
"301.574 375 LINE",
"301.574 325 LINE",
"590.318 325 LINE",
"590.318 375 LINE"
);
},
{
closed = 1;
nodes = (
"106.865 72.864 LINE",
"106.21 38.029 OFFCURVE",
"77.813 9.979 OFFCURVE",
"42.811 9.979 CURVE SMOOTH",
"42.659 9.979 OFFCURVE",
"30.318 10 OFFCURVE",
"30.161 10 CURVE",
"30 0 LINE",
"109.775 0 LINE",
"109.775 72.864 LINE"
);
},
{
closed = 1;
nodes = (
"109.791 700.06 LINE",
"30.016 700.06 LINE",
"30.178 690.06 LINE",
"30.335 690.06 OFFCURVE",
"42.676 690.08 OFFCURVE",
"42.828 690.08 CURVE SMOOTH",
"77.829 690.08 OFFCURVE",
"106.226 662.03 OFFCURVE",
"106.882 627.196 CURVE",
"109.791 627.196 LINE"
);
},
{
closed = 1;
nodes = (
"309.012 0 LINE",
"388.787 0 LINE",
"388.626 10 LINE",
"388.469 10 OFFCURVE",
"376.128 9.979 OFFCURVE",
"375.976 9.979 CURVE SMOOTH",
"340.974 9.979 OFFCURVE",
"312.577 38.029 OFFCURVE",
"311.922 72.864 CURVE",
"309.012 72.864 LINE"
);
},
{
closed = 1;
nodes = (
"311.905 627.196 LINE",
"312.561 662.03 OFFCURVE",
"340.958 690.08 OFFCURVE",
"375.959 690.08 CURVE SMOOTH",
"376.111 690.08 OFFCURVE",
"388.452 690.06 OFFCURVE",
"388.609 690.06 CURVE",
"388.771 700.06 LINE",
"308.996 700.06 LINE",
"308.996 627.196 LINE"
);
},
{
closed = 1;
nodes = (
"581.161 72.864 LINE",
"580.506 38.029 OFFCURVE",
"552.109 9.979 OFFCURVE",
"517.107 9.979 CURVE SMOOTH",
"516.955 9.979 OFFCURVE",
"504.614 10 OFFCURVE",
"504.457 10 CURVE",
"504.296 0 LINE",
"584.071 0 LINE",
"584.071 72.864 LINE"
);
},
{
closed = 1;
nodes = (
"584.087 700.06 LINE",
"504.312 700.06 LINE",
"504.474 690.06 LINE",
"504.631 690.06 OFFCURVE",
"516.972 690.08 OFFCURVE",
"517.124 690.08 CURVE SMOOTH",
"552.125 690.08 OFFCURVE",
"580.522 662.03 OFFCURVE",
"581.178 627.196 CURVE",
"584.087 627.196 LINE"
);
},
{
closed = 1;
nodes = (
"783.308 0 LINE",
"863.083 0 LINE",
"862.922 10 LINE",
"862.765 10 OFFCURVE",
"850.424 9.979 OFFCURVE",
"850.272 9.979 CURVE SMOOTH",
"815.27 9.979 OFFCURVE",
"786.873 38.029 OFFCURVE",
"786.218 72.864 CURVE",
"783.308 72.864 LINE"
);
},
{
closed = 1;
nodes = (
"786.201 627.196 LINE",
"786.857 662.03 OFFCURVE",
"815.254 690.08 OFFCURVE",
"850.255 690.08 CURVE SMOOTH",
"850.407 690.08 OFFCURVE",
"862.748 690.06 OFFCURVE",
"862.905 690.06 CURVE",
"863.067 700.06 LINE",
"783.292 700.06 LINE",
"783.292 627.196 LINE"
);
}
);
width = 893;
}
);
leftKerningGroup = H;
rightKerningGroup = H;
unicode = 0126;
},
{
glyphname = I;
lastChange = "2012-04-12 17:00:11 +0000";
layers = (
{
anchors = (
{
name = ogonek;
position = "{138.048, 3}";
},
{
name = top;
position = "{169.306, 764}";
}
);
layerId = "A24B85EF-CA04-493E-A47C-A7B61068A6D7";
paths = (
{
closed = 1;
nodes = (
"136.873 700 LINE",
"136.873 0 LINE",
"201.92 0 LINE",
"201.92 700 LINE"
);
},
{
closed = 1;
nodes = (
"136.865 72.864 LINE",
"136.21 38.029 OFFCURVE",
"107.813 9.979 OFFCURVE",
"72.811 9.979 CURVE SMOOTH",
"72.659 9.979 OFFCURVE",
"60.318 10 OFFCURVE",
"60.161 10 CURVE",
"60 0 LINE",
"139.775 0 LINE",
"139.775 72.864 LINE"
);
},
{
closed = 1;
nodes = (
"139.791 700.06 LINE",
"60.016 700.06 LINE",
"60.178 690.06 LINE",
"60.335 690.06 OFFCURVE",
"72.676 690.08 OFFCURVE",
"72.828 690.08 CURVE SMOOTH",
"107.829 690.08 OFFCURVE",
"136.226 662.03 OFFCURVE",
"136.882 627.196 CURVE",
"139.791 627.196 LINE"
);
},
{
closed = 1;
nodes = (
"199.012 0 LINE",
"278.787 0 LINE",
"278.626 10 LINE",
"278.469 10 OFFCURVE",
"266.128 9.979 OFFCURVE",
"265.976 9.979 CURVE SMOOTH",
"230.974 9.979 OFFCURVE",
"202.577 38.029 OFFCURVE",
"201.922 72.864 CURVE",
"199.012 72.864 LINE"
);
},
{
closed = 1;
nodes = (
"201.905 627.196 LINE",
"202.561 662.03 OFFCURVE",
"230.958 690.08 OFFCURVE",
"265.959 690.08 CURVE SMOOTH",
"266.111 690.08 OFFCURVE",
"278.452 690.06 OFFCURVE",
"278.609 690.06 CURVE",
"278.771 700.06 LINE",
"198.996 700.06 LINE",
"198.996 627.196 LINE"
);
}
);
width = 338;
},
{
anchors = (
{
name = ogonek;
position = "{210.048, 3}";
},
{
name = top;
position = "{208.306, 764}";
}
);
layerId = "29CFC173-9C98-4BE1-970A-002FF3BCF672";
paths = (
{
closed = 1;
nodes = (
"106.873 700 LINE",
"106.873 0 LINE",
"311.92 0 LINE",
"311.92 700 LINE"
);
},
{
closed = 1;
nodes = (
"106.865 72.864 LINE",
"106.21 38.029 OFFCURVE",
"77.813 9.979 OFFCURVE",
"42.811 9.979 CURVE SMOOTH",
"42.659 9.979 OFFCURVE",
"30.318 10 OFFCURVE",
"30.161 10 CURVE",
"30 0 LINE",
"109.775 0 LINE",
"109.775 72.864 LINE"
);
},
{
closed = 1;
nodes = (
"109.791 700.06 LINE",
"30.016 700.06 LINE",
"30.178 690.06 LINE",
"30.335 690.06 OFFCURVE",
"42.676 690.08 OFFCURVE",
"42.828 690.08 CURVE SMOOTH",
"77.829 690.08 OFFCURVE",
"106.226 662.03 OFFCURVE",
"106.882 627.196 CURVE",
"109.791 627.196 LINE"
);
},
{
closed = 1;
nodes = (
"309.012 0 LINE",
"388.787 0 LINE",
"388.626 10 LINE",
"388.469 10 OFFCURVE",
"376.128 9.979 OFFCURVE",
"375.976 9.979 CURVE SMOOTH",
"340.974 9.979 OFFCURVE",
"312.577 38.029 OFFCURVE",
"311.922 72.864 CURVE",
"309.012 72.864 LINE"
);
},
{
closed = 1;
nodes = (
"311.905 627.196 LINE",
"312.561 662.03 OFFCURVE",
"340.958 690.08 OFFCURVE",
"375.959 690.08 CURVE SMOOTH",
"376.111 690.08 OFFCURVE",
"388.452 690.06 OFFCURVE",
"388.609 690.06 CURVE",
"388.771 700.06 LINE",
"308.996 700.06 LINE",
"308.996 627.196 LINE"
);
}
);
width = 418;
}
);
leftKerningGroup = H;
rightKerningGroup = H;
unicode = 0049;
},
{
glyphname = Igrave;
lastChange = "2012-03-27 18:12:45 +0000";
layers = (
{
layerId = "A24B85EF-CA04-493E-A47C-A7B61068A6D7";
paths = (
{
closed = 1;
nodes = (
"136.873 700 LINE",
"136.873 0 LINE",
"201.92 0 LINE",
"201.92 700 LINE"
);
},
{
closed = 1;
nodes = (
"136.865 72.864 LINE",
"136.21 38.029 OFFCURVE",
"107.813 9.979 OFFCURVE",
"72.811 9.979 CURVE SMOOTH",
"72.659 9.979 OFFCURVE",
"60.318 10 OFFCURVE",
"60.161 10 CURVE",
"60 0 LINE",
"139.775 0 LINE",
"139.775 72.864 LINE"
);
},
{
closed = 1;
nodes = (
"139.791 700.06 LINE",
"60.016 700.06 LINE",
"60.178 690.06 LINE",
"60.335 690.06 OFFCURVE",
"72.676 690.08 OFFCURVE",
"72.828 690.08 CURVE SMOOTH",
"107.829 690.08 OFFCURVE",
"136.226 662.03 OFFCURVE",
"136.882 627.196 CURVE",
"139.791 627.196 LINE"
);
},
{
closed = 1;
nodes = (
"199.012 0 LINE",
"278.787 0 LINE",
"278.626 10 LINE",
"278.469 10 OFFCURVE",
"266.128 9.979 OFFCURVE",
"265.976 9.979 CURVE SMOOTH",
"230.974 9.979 OFFCURVE",
"202.577 38.029 OFFCURVE",
"201.922 72.864 CURVE",
"199.012 72.864 LINE"
);
},
{
closed = 1;
nodes = (
"201.905 627.196 LINE",
"202.561 662.03 OFFCURVE",
"230.958 690.08 OFFCURVE",
"265.959 690.08 CURVE SMOOTH",
"266.111 690.08 OFFCURVE",
"278.452 690.06 OFFCURVE",
"278.609 690.06 CURVE",
"278.771 700.06 LINE",
"198.996 700.06 LINE",
"198.996 627.196 LINE"
);
},
{
closed = 1;
nodes = (
"133.984 817.631 OFFCURVE",
"91.661 861.263 OFFCURVE",
"49.339 901.894 CURVE",
"33.705 887.358 OFFCURVE",
"19.07 869.821 OFFCURVE",
"8.436 849.285 CURVE",
"62.059 817.857 OFFCURVE",
"115.683 789.428 OFFCURVE",
"169.306 764 CURVE",
"176.306 771 LINE"
);
}
);
width = 338;
},
{
layerId = "29CFC173-9C98-4BE1-970A-002FF3BCF672";
paths = (
{
closed = 1;
nodes = (
"106.873 700 LINE",
"106.873 0 LINE",
"311.92 0 LINE",
"311.92 700 LINE"
);
},
{
closed = 1;
nodes = (
"106.865 72.864 LINE",
"106.21 38.029 OFFCURVE",
"77.813 9.979 OFFCURVE",
"42.811 9.979 CURVE SMOOTH",
"42.659 9.979 OFFCURVE",
"30.318 10 OFFCURVE",
"30.161 10 CURVE",
"30 0 LINE",
"109.775 0 LINE",
"109.775 72.864 LINE"
);
},
{
closed = 1;
nodes = (
"109.791 700.06 LINE",
"30.016 700.06 LINE",
"30.178 690.06 LINE",
"30.335 690.06 OFFCURVE",
"42.676 690.08 OFFCURVE",
"42.828 690.08 CURVE SMOOTH",
"77.829 690.08 OFFCURVE",
"106.226 662.03 OFFCURVE",
"106.882 627.196 CURVE",
"109.791 627.196 LINE"
);
},
{
closed = 1;
nodes = (
"309.012 0 LINE",
"388.787 0 LINE",
"388.626 10 LINE",
"388.469 10 OFFCURVE",
"376.128 9.979 OFFCURVE",
"375.976 9.979 CURVE SMOOTH",
"340.974 9.979 OFFCURVE",
"312.577 38.029 OFFCURVE",
"311.922 72.864 CURVE",
"309.012 72.864 LINE"
);
},
{
closed = 1;
nodes = (
"311.905 627.196 LINE",
"312.561 662.03 OFFCURVE",
"340.958 690.08 OFFCURVE",
"375.959 690.08 CURVE SMOOTH",
"376.111 690.08 OFFCURVE",
"388.452 690.06 OFFCURVE",
"388.609 690.06 CURVE",
"388.771 700.06 LINE",
"308.996 700.06 LINE",
"308.996 627.196 LINE"
);
},
{
closed = 1;
nodes = (
"216.96 836.791 OFFCURVE",
"134.708 918.676 OFFCURVE",
"90.456 956.561 CURVE",
"42.076 936.325 OFFCURVE",
"18.697 903.09 OFFCURVE",
"5.317 856.854 CURVE",
"68.615 814.871 OFFCURVE",
"164.914 772.889 OFFCURVE",
"238.212 763.906 CURVE",
"245.212 770.906 LINE"
);
}
);
width = 418;
}
);
leftKerningGroup = H;
leftMetricsKey = I;
rightKerningGroup = H;
rightMetricsKey = I;
unicode = 00CC;
},
{
glyphname = J;
lastChange = "2012-04-12 18:04:31 +0000";
layers = (
{
anchors = (
{
name = top;
position = "{171, 700}";
}
);
layerId = "A24B85EF-CA04-493E-A47C-A7B61068A6D7";
paths = (
{
closed = 1;
nodes = (
"136.961 699.742 LINE",
"136.961 2.923 LINE SMOOTH",
"136.961 -83 OFFCURVE",
"85.498 -168 OFFCURVE",
"20 -191 CURVE",
"20 -200 LINE",
"122.011 -200 OFFCURVE",
"202.163 -112 OFFCURVE",
"202.163 0.099 CURVE SMOOTH",
"202.163 700 LINE"
);
},
{
closed = 1;
nodes = (
"139.86 700.06 LINE",
"60.085 700.06 LINE",
"60.247 690.06 LINE",
"60.404 690.06 OFFCURVE",
"72.745 690.08 OFFCURVE",
"72.897 690.08 CURVE SMOOTH",
"107.898 690.08 OFFCURVE",
"136.295 662.03 OFFCURVE",
"136.951 627.196 CURVE",
"139.86 627.196 LINE"
);
},
{
closed = 1;
nodes = (
"202.158 627.196 LINE",
"202.814 662.03 OFFCURVE",
"231.211 690.08 OFFCURVE",
"266.212 690.08 CURVE SMOOTH",
"266.364 690.08 OFFCURVE",
"278.705 690.06 OFFCURVE",
"278.862 690.06 CURVE",
"279.024 700.06 LINE",
"199.249 700.06 LINE",
"199.249 627.196 LINE"
);
}
);
width = 324;
},
{
anchors = (
{
name = top;
position = "{275, 700}";
}
);
layerId = "29CFC173-9C98-4BE1-970A-002FF3BCF672";
paths = (
{
closed = 1;
nodes = (
"111.961 699.742 LINE",
"111.961 52.923 LINE SMOOTH",
"111.961 -43 OFFCURVE",
"92.459 -147 OFFCURVE",
"-5 -191 CURVE",
"-5 -200 LINE",
"157.557 -221 OFFCURVE",
"317.163 -120 OFFCURVE",
"317.163 50.099 CURVE SMOOTH",
"317.163 700 LINE"
);
},
{
closed = 1;
nodes = (
"114.86 700.06 LINE",
"35.085 700.06 LINE",
"35.247 690.06 LINE",
"35.404 690.06 OFFCURVE",
"47.745 690.08 OFFCURVE",
"47.897 690.08 CURVE SMOOTH",
"82.898 690.08 OFFCURVE",
"111.295 662.03 OFFCURVE",
"111.951 627.196 CURVE",
"114.86 627.196 LINE"
);
},
{
closed = 1;
nodes = (
"317.158 627.196 LINE",
"317.814 662.03 OFFCURVE",
"346.211 690.08 OFFCURVE",
"381.212 690.08 CURVE SMOOTH",
"381.364 690.08 OFFCURVE",
"393.705 690.06 OFFCURVE",
"393.862 690.06 CURVE",
"394.024 700.06 LINE",
"314.249 700.06 LINE",
"314.249 627.196 LINE"
);
}
);
width = 424;
}
);
leftKerningGroup = J;
rightKerningGroup = J;
unicode = 004A;
},
{
glyphname = K;
lastChange = "2012-04-12 15:25:31 +0000";
layers = (
{
anchors = (
{
name = bottom;
position = "{386.306, -64}";
},
{
name = top;
position = "{369.306, 750}";
}
);
layerId = "A24B85EF-CA04-493E-A47C-A7B61068A6D7";
paths = (
{
closed = 1;
nodes = (
"234.077 348.182 LINE",
"234.077 348.18 OFFCURVE",
"474.771 56.779 OFFCURVE",
"474.77 56.779 CURVE",
"520.7 3.193 OFFCURVE",
"597.306 0.219 OFFCURVE",
"625.449 0.131 CURVE SMOOTH",
"667.725 0 LINE",
"667.725 10.075 LINE",
"627.078 11.11 OFFCURVE",
"600.63 23.542 OFFCURVE",
"573.266 50.906 CURVE",
"288.648 385.286 LINE"
);
},
{
closed = 1;
nodes = (
"509.047 692.968 LINE",
"234.077 348.182 LINE",
"278.81 348.182 LINE",
"577.581 692.968 LINE"
);
},
{
closed = 1;
nodes = (
"643.033 700 LINE",
"436.186 700 LINE",
"436.186 691.157 LINE",
"445.85 691.164 LINE",
"473.477 691.164 OFFCURVE",
"487.087 665.949 OFFCURVE",
"469.644 643.547 CURVE",
"533.086 641.63 LINE",
"558.857 672.062 OFFCURVE",
"598.886 690.881 OFFCURVE",
"643.033 690.98 CURVE SMOOTH",
"647.413 690.98 LINE",
"647.413 700 LINE"
);
},
{
closed = 1;
nodes = (
"136.873 700 LINE",
"136.873 0 LINE",
"201.92 0 LINE",
"201.92 700 LINE"
);
},
{
closed = 1;
nodes = (
"136.865 72.864 LINE",
"136.21 38.029 OFFCURVE",
"107.813 9.979 OFFCURVE",
"72.811 9.979 CURVE SMOOTH",
"72.659 9.979 OFFCURVE",
"60.318 10 OFFCURVE",
"60.161 10 CURVE",
"60 0 LINE",
"139.775 0 LINE",
"139.775 72.864 LINE"
);
},
{
closed = 1;
nodes = (
"139.791 700.06 LINE",
"60.016 700.06 LINE",
"60.178 690.06 LINE",
"60.335 690.06 OFFCURVE",
"72.676 690.08 OFFCURVE",
"72.828 690.08 CURVE SMOOTH",
"107.829 690.08 OFFCURVE",
"136.226 662.03 OFFCURVE",
"136.882 627.196 CURVE",
"139.791 627.196 LINE"
);
},
{
closed = 1;
nodes = (
"199.012 0 LINE",
"278.787 0 LINE",
"278.626 10 LINE",
"278.469 10 OFFCURVE",
"266.128 9.979 OFFCURVE",
"265.976 9.979 CURVE SMOOTH",
"230.974 9.979 OFFCURVE",
"202.577 38.029 OFFCURVE",
"201.922 72.864 CURVE",
"199.012 72.864 LINE"
);
},
{
closed = 1;
nodes = (
"201.905 627.196 LINE",
"202.561 662.03 OFFCURVE",
"230.958 690.08 OFFCURVE",
"265.959 690.08 CURVE SMOOTH",
"266.111 690.08 OFFCURVE",
"278.452 690.06 OFFCURVE",
"278.609 690.06 CURVE",
"278.771 700.06 LINE",
"198.996 700.06 LINE",
"198.996 627.196 LINE"
);
}
);
width = 657;
},
{
anchors = (
{
name = bottom;
position = "{470, 0}";
},
{
name = top;
position = "{465, 700}";
}
);
layerId = "29CFC173-9C98-4BE1-970A-002FF3BCF672";
paths = (
{
closed = 1;
nodes = (
"344.077 318.182 LINE",
"344 316 OFFCURVE",
"451.767 142.444 OFFCURVE",
"483 100 CURVE SMOOTH",
"561 -6 OFFCURVE",
"711 0.166 OFFCURVE",
"739.533 0.131 CURVE SMOOTH",
"847.725 0 LINE",
"847.725 10.075 LINE",
"807.078 11.11 OFFCURVE",
"773.316 36.873 OFFCURVE",
"740.941 85.689 CURVE SMOOTH",
"492.845 459.778 LINE"
);
},
{
closed = 1;
nodes = (
"619.047 692.968 LINE",
"344.077 318.182 LINE",
"416.81 328.182 LINE",
"718.581 692.968 LINE"
);
},
{
closed = 1;
nodes = (
"786.055 700 LINE",
"549.336 700 LINE",
"549.336 691.157 LINE",
"559 691.164 LINE",
"586.627 691.164 OFFCURVE",
"599.237 665.949 OFFCURVE",
"582.794 643.547 CURVE",
"676.108 641.63 LINE",
"701.879 671.062 OFFCURVE",
"741.908 690.881 OFFCURVE",
"786.055 690.98 CURVE SMOOTH",
"790.435 690.98 LINE",
"790.435 700 LINE"
);
},
{
closed = 1;
nodes = (
"106.873 700 LINE",
"106.873 0 LINE",
"311.92 0 LINE",
"311.92 700 LINE"
);
},
{
closed = 1;
nodes = (
"106.865 72.864 LINE",
"106.21 38.029 OFFCURVE",
"77.813 9.979 OFFCURVE",
"42.811 9.979 CURVE SMOOTH",
"41 10 OFFCURVE",
"32 10 OFFCURVE",
"30.161 10 CURVE",
"30 0 LINE",
"109.775 0 LINE",
"109.775 72.864 LINE"
);
},
{
closed = 1;
nodes = (
"109.791 700.06 LINE",
"30.016 700.06 LINE",
"30.178 690.06 LINE",
"32 690 OFFCURVE",
"41 690 OFFCURVE",
"43 690 CURVE SMOOTH",
"77.829 690.08 OFFCURVE",
"106.226 662.03 OFFCURVE",
"106.882 627.196 CURVE",
"109.791 627.196 LINE"
);
},
{
closed = 1;
nodes = (
"309.012 0 LINE",
"388.787 0 LINE",
"388.626 10 LINE",
"387 10 OFFCURVE",
"378 10 OFFCURVE",
"376 10 CURVE SMOOTH",
"340.974 9.979 OFFCURVE",
"312.577 38.029 OFFCURVE",
"311.922 72.864 CURVE",
"309.012 72.864 LINE"
);
},
{
closed = 1;
nodes = (
"311.905 627.196 LINE",
"312.561 662.03 OFFCURVE",
"340.958 690.08 OFFCURVE",
"375.959 690.08 CURVE SMOOTH",
"378 690 OFFCURVE",
"387 690 OFFCURVE",
"388.609 690.06 CURVE",
"388.771 700.06 LINE",
"308.996 700.06 LINE",
"308.996 627.196 LINE"
);
}
);
width = 822;
}
);
leftKerningGroup = H;
rightKerningGroup = K;
unicode = 004B;
},
{
glyphname = L;
lastChange = "2012-04-12 19:04:13 +0000";
layers = (
{
anchors = (
{
name = bottom;
position = "{307.331, -50}";
},
{
name = top;
position = "{169.562, 764}";
}
);
layerId = "A24B85EF-CA04-493E-A47C-A7B61068A6D7";
paths = (
{
closed = 1;
nodes = (
"136.885 700 LINE",
"136.885 0 LINE",
"201.915 0 LINE",
"201.915 700 LINE"
);
},
{
closed = 1;
nodes = (
"199.096 30.588 LINE",
"199.096 0 LINE",
"471.86 0 LINE",
"471.86 30.588 LINE"
);
},
{
closed = 1;
nodes = (
"522.86 161.543 LINE",
"491.991 85.405 OFFCURVE",
"451.298 30.592 OFFCURVE",
"345.335 30.592 CURVE",
"309.031 0 LINE",
"474.572 0 LINE",
"532.86 161.543 LINE"
);
},
{
closed = 1;
nodes = (
"136.88 72.864 LINE",
"136.225 38.029 OFFCURVE",
"107.828 9.979 OFFCURVE",
"72.826 9.979 CURVE SMOOTH",
"72.674 9.979 OFFCURVE",
"60.333 10 OFFCURVE",
"60.176 10 CURVE",
"60.015 0 LINE",
"139.79 0 LINE",
"139.79 72.864 LINE"
);
},
{
closed = 1;
nodes = (
"139.775 699.941 LINE",
"60 699.941 LINE",
"60.162 689.941 LINE",
"60.319 689.941 OFFCURVE",
"72.66 689.961 OFFCURVE",
"72.812 689.961 CURVE SMOOTH",
"107.813 689.961 OFFCURVE",
"136.21 661.911 OFFCURVE",
"136.866 627.077 CURVE",
"139.775 627.077 LINE"
);
},
{
closed = 1;
nodes = (
"201.915 627.077 LINE",
"202.571 661.911 OFFCURVE",
"230.968 689.961 OFFCURVE",
"265.969 689.961 CURVE SMOOTH",
"266.121 689.961 OFFCURVE",
"278.462 689.941 OFFCURVE",
"278.619 689.941 CURVE",
"278.781 699.941 LINE",
"199.006 699.941 LINE",
"199.006 627.077 LINE"
);
}
);
width = 562;
},
{
anchors = (
{
name = bottom;
position = "{353.796, -64}";
},
{
name = top;
position = "{210, 764}";
}
);
layerId = "29CFC173-9C98-4BE1-970A-002FF3BCF672";
paths = (
{
closed = 1;
nodes = (
"106.869 700 LINE",
"106.869 0 LINE",
"311.901 0 LINE",
"311.901 700 LINE"
);
},
{
closed = 1;
nodes = (
"309.082 50.59 LINE",
"309.082 0 LINE",
"611.857 0 LINE",
"571.857 50.59 LINE"
);
},
{
closed = 1;
nodes = (
"642.845 231.543 LINE",
"611.753 117.359 OFFCURVE",
"531.283 50.592 OFFCURVE",
"435.32 50.592 CURVE",
"399.016 0 LINE",
"614.557 0 LINE",
"652.845 231.543 LINE"
);
},
{
closed = 1;
nodes = (
"106.865 72.864 LINE",
"106.21 38.029 OFFCURVE",
"77.813 9.979 OFFCURVE",
"42.811 9.979 CURVE SMOOTH",
"42.659 9.979 OFFCURVE",
"30.318 10 OFFCURVE",
"30.161 10 CURVE",
"30 0 LINE",
"109.775 0 LINE",
"109.775 72.864 LINE"
);
},
{
closed = 1;
nodes = (
"109.776 700.06 LINE",
"30 700.06 LINE",
"30.163 690.06 LINE",
"30.32 690.06 OFFCURVE",
"42.661 690.08 OFFCURVE",
"42.813 690.08 CURVE SMOOTH",
"77.814 690.08 OFFCURVE",
"106.211 662.03 OFFCURVE",
"106.867 627.196 CURVE",
"109.776 627.196 LINE"
);
},
{
closed = 1;
nodes = (
"311.937 627.196 LINE",
"312.593 662.03 OFFCURVE",
"340.99 690.08 OFFCURVE",
"375.991 690.08 CURVE SMOOTH",
"376.143 690.08 OFFCURVE",
"388.484 690.06 OFFCURVE",
"388.641 690.06 CURVE",
"388.803 700.06 LINE",
"309.028 700.06 LINE",
"309.028 627.196 LINE"
);
}
);
width = 652;
}
);
leftKerningGroup = H;
rightKerningGroup = L;
unicode = 004C;
},
{
glyphname = Lcaron;
lastChange = "2012-04-09 18:11:52 +0000";
layers = (
{
layerId = "A24B85EF-CA04-493E-A47C-A7B61068A6D7";
paths = (
{
closed = 1;
nodes = (
"136.885 700 LINE",
"136.885 0 LINE",
"201.915 0 LINE",
"201.915 700 LINE"
);
},
{
closed = 1;
nodes = (
"199.096 30.589 LINE",
"199.096 0 LINE",
"471.86 0 LINE",
"471.86 30.589 LINE"
);
},
{
closed = 1;
nodes = (
"522.86 161.543 LINE",
"491.991 85.405 OFFCURVE",
"451.298 30.592 OFFCURVE",
"345.335 30.592 CURVE",
"309.031 0 LINE",
"474.572 0 LINE",
"532.86 161.543 LINE"
);
},
{
closed = 1;
nodes = (
"136.88 72.864 LINE",
"136.225 38.029 OFFCURVE",
"107.828 9.979 OFFCURVE",
"72.826 9.979 CURVE SMOOTH",
"72.674 9.979 OFFCURVE",
"60.333 10 OFFCURVE",
"60.176 10 CURVE",
"60.015 0 LINE",
"139.79 0 LINE",
"139.79 72.864 LINE"
);
},
{
closed = 1;
nodes = (
"139.775 699.941 LINE",
"60 699.941 LINE",
"60.162 689.941 LINE",
"60.319 689.941 OFFCURVE",
"72.66 689.961 OFFCURVE",
"72.812 689.961 CURVE SMOOTH",
"107.813 689.961 OFFCURVE",
"136.21 661.911 OFFCURVE",
"136.866 627.077 CURVE",
"139.775 627.077 LINE"
);
},
{
closed = 1;
nodes = (
"201.915 627.077 LINE",
"202.571 661.911 OFFCURVE",
"230.968 689.961 OFFCURVE",
"265.969 689.961 CURVE SMOOTH",
"266.121 689.961 OFFCURVE",
"278.462 689.941 OFFCURVE",
"278.619 689.941 CURVE",
"278.781 699.941 LINE",
"199.006 699.941 LINE",
"199.006 627.077 LINE"
);
},
{
closed = 1;
nodes = (
"361.437 668.085 OFFCURVE",
"378.347 654.081 OFFCURVE",
"388.77 641.607 CURVE SMOOTH",
"402.451 625.177 OFFCURVE",
"410.413 583.855 OFFCURVE",
"361.772 568.152 CURVE",
"363.723 561.541 LINE",
"416.004 563.194 OFFCURVE",
"459.066 618.566 OFFCURVE",
"433.072 680.9 CURVE SMOOTH",
"419.542 713.247 OFFCURVE",
"380.593 711.6 OFFCURVE",
"370.399 688.442 CURVE SMOOTH"
);
}
);
width = 562;
},
{
layerId = "29CFC173-9C98-4BE1-970A-002FF3BCF672";
paths = (
{
closed = 1;
nodes = (
"106.869 700 LINE",
"106.869 0 LINE",
"311.901 0 LINE",
"311.901 700 LINE"
);
},
{
closed = 1;
nodes = (
"309.082 50.59 LINE",
"309.082 0 LINE",
"611.857 0 LINE",
"571.857 50.59 LINE"
);
},
{
closed = 1;
nodes = (
"642.845 231.543 LINE",
"611.753 117.359 OFFCURVE",
"531.283 50.592 OFFCURVE",
"435.32 50.592 CURVE",
"399.016 0 LINE",
"614.557 0 LINE",
"652.845 231.543 LINE"
);
},
{
closed = 1;
nodes = (
"106.865 72.864 LINE",
"106.21 38.029 OFFCURVE",
"77.813 9.979 OFFCURVE",
"42.811 9.979 CURVE SMOOTH",
"42.659 9.979 OFFCURVE",
"30.318 10 OFFCURVE",
"30.161 10 CURVE",
"30 0 LINE",
"109.775 0 LINE",
"109.775 72.864 LINE"
);
},
{
closed = 1;
nodes = (
"109.776 700.06 LINE",
"30 700.06 LINE",
"30.163 690.06 LINE",
"30.32 690.06 OFFCURVE",
"42.661 690.08 OFFCURVE",
"42.813 690.08 CURVE SMOOTH",
"77.814 690.08 OFFCURVE",
"106.211 662.03 OFFCURVE",
"106.867 627.196 CURVE",
"109.776 627.196 LINE"
);
},
{
closed = 1;
nodes = (
"311.937 627.196 LINE",
"312.593 662.03 OFFCURVE",
"340.99 690.08 OFFCURVE",
"375.991 690.08 CURVE SMOOTH",
"376.143 690.08 OFFCURVE",
"388.484 690.06 OFFCURVE",
"388.641 690.06 CURVE",
"388.803 700.06 LINE",
"309.028 700.06 LINE",
"309.028 627.196 LINE"
);
},
{
closed = 1;
nodes = (
"423.141 677.266 OFFCURVE",
"418.825 628.266 OFFCURVE",
"444.461 599.266 CURVE SMOOTH",
"482.127 557.266 OFFCURVE",
"457.253 520.266 OFFCURVE",
"431.601 509.266 CURVE",
"434.335 500.266 LINE",
"519.793 483.266 OFFCURVE",
"590.151 584.266 OFFCURVE",
"551.774 668.266 CURVE SMOOTH",
"534.007 707.266 OFFCURVE",
"482.838 720.984 OFFCURVE",
"450.857 697.266 CURVE SMOOTH"
);
}
);
width = 652;
}
);
leftKerningGroup = H;
leftMetricsKey = L;
rightKerningGroup = L;
rightMetricsKey = L;
unicode = 013D;
},
{
glyphname = Ldot;
lastChange = "2012-04-12 15:28:59 +0000";
layers = (
{
layerId = "A24B85EF-CA04-493E-A47C-A7B61068A6D7";
paths = (
{
closed = 1;
nodes = (
"136.885 700 LINE",
"136.885 0 LINE",
"201.915 0 LINE",
"201.915 700 LINE"
);
},
{
closed = 1;
nodes = (
"136.88 72.864 LINE",
"136.225 38.029 OFFCURVE",
"107.828 9.979 OFFCURVE",
"72.826 9.979 CURVE SMOOTH",
"72.674 9.979 OFFCURVE",
"60.333 10 OFFCURVE",
"60.176 10 CURVE",
"60.015 0 LINE",
"139.79 0 LINE",
"139.79 72.864 LINE"
);
},
{
closed = 1;
nodes = (
"199.096 30.589 LINE",
"199.096 0 LINE",
"471.86 0 LINE",
"471.86 30.589 LINE"
);
},
{
closed = 1;
nodes = (
"522.86 161.543 LINE",
"491.991 85.405 OFFCURVE",
"451.298 30.592 OFFCURVE",
"345.335 30.592 CURVE",
"309.031 0 LINE",
"474.572 0 LINE",
"532.86 161.543 LINE"
);
},
{
closed = 1;
nodes = (
"60 699.941 LINE",
"60.162 689.941 LINE",
"60.319 689.941 OFFCURVE",
"72.66 689.961 OFFCURVE",
"72.812 689.961 CURVE SMOOTH",
"107.813 689.961 OFFCURVE",
"136.21 661.911 OFFCURVE",
"136.866 627.077 CURVE",
"139.775 627.077 LINE",
"139.775 699.941 LINE"
);
},
{
closed = 1;
nodes = (
"199.006 699.941 LINE",
"199.006 627.077 LINE",
"201.915 627.077 LINE",
"202.571 661.911 OFFCURVE",
"230.968 689.961 OFFCURVE",
"265.969 689.961 CURVE SMOOTH",
"266.121 689.961 OFFCURVE",
"278.462 689.941 OFFCURVE",
"278.619 689.941 CURVE",
"278.781 699.941 LINE"
);
},
{
closed = 1;
nodes = (
"359.276 403 OFFCURVE",
"379.423 423.147 OFFCURVE",
"379.423 448 CURVE SMOOTH",
"379.423 472.853 OFFCURVE",
"359.276 493 OFFCURVE",
"334.423 493 CURVE SMOOTH",
"309.57 493 OFFCURVE",
"289.423 472.853 OFFCURVE",
"289.423 448 CURVE SMOOTH",
"289.423 423.147 OFFCURVE",
"309.57 403 OFFCURVE",
"334.423 403 CURVE SMOOTH"
);
}
);
width = 562;
},
{
layerId = "29CFC173-9C98-4BE1-970A-002FF3BCF672";
paths = (
{
closed = 1;
nodes = (
"106.869 700 LINE",
"106.869 0 LINE",
"311.901 0 LINE",
"311.901 700 LINE"
);
},
{
closed = 1;
nodes = (
"106.865 72.864 LINE",
"106.21 38.029 OFFCURVE",
"77.813 9.979 OFFCURVE",
"42.811 9.979 CURVE SMOOTH",
"42.659 9.979 OFFCURVE",
"30.318 10 OFFCURVE",
"30.161 10 CURVE",
"30 0 LINE",
"109.775 0 LINE",
"109.775 72.864 LINE"
);
},
{
closed = 1;
nodes = (
"309.082 50.59 LINE",
"309.082 0 LINE",
"611.857 0 LINE",
"571.857 50.59 LINE"
);
},
{
closed = 1;
nodes = (
"642.845 231.543 LINE",
"611.753 117.359 OFFCURVE",
"531.283 50.592 OFFCURVE",
"435.32 50.592 CURVE",
"399.016 0 LINE",
"614.557 0 LINE",
"652.845 231.543 LINE"
);
},
{
closed = 1;
nodes = (
"30 700.06 LINE",
"30.163 690.06 LINE",
"30.32 690.06 OFFCURVE",
"42.661 690.08 OFFCURVE",
"42.813 690.08 CURVE SMOOTH",
"77.814 690.08 OFFCURVE",
"106.211 662.03 OFFCURVE",
"106.867 627.196 CURVE",
"109.776 627.196 LINE",
"109.776 700.06 LINE"
);
},
{
closed = 1;
nodes = (
"309.028 700.06 LINE",
"309.028 627.196 LINE",
"311.937 627.196 LINE",
"312.593 662.03 OFFCURVE",
"340.99 690.08 OFFCURVE",
"375.991 690.08 CURVE SMOOTH",
"376.143 690.08 OFFCURVE",
"388.484 690.06 OFFCURVE",
"388.641 690.06 CURVE",
"388.803 700.06 LINE"
);
},
{
closed = 1;
nodes = (
"509.46 327.511 OFFCURVE",
"542.449 360.499 OFFCURVE",
"542.449 401.198 CURVE SMOOTH",
"542.449 441.896 OFFCURVE",
"509.46 474.887 OFFCURVE",
"468.762 474.887 CURVE SMOOTH",
"428.063 474.887 OFFCURVE",
"395.075 441.896 OFFCURVE",
"395.075 401.198 CURVE SMOOTH",
"395.075 360.499 OFFCURVE",
"428.063 327.511 OFFCURVE",
"468.762 327.511 CURVE SMOOTH"
);
}
);
width = 652;
}
);
leftKerningGroup = H;
leftMetricsKey = L;
rightKerningGroup = L;
rightMetricsKey = L;
unicode = 013F;
},
{
glyphname = Lslash;
lastChange = "2012-04-12 15:29:02 +0000";
layers = (
{
layerId = "A24B85EF-CA04-493E-A47C-A7B61068A6D7";
paths = (
{
closed = 1;
nodes = (
"136.885 700 LINE",
"136.885 0 LINE",
"201.915 0 LINE",
"201.915 700 LINE"
);
},
{
closed = 1;
nodes = (
"60 699.941 LINE",
"60.162 689.941 LINE",
"60.319 689.941 OFFCURVE",
"72.66 689.961 OFFCURVE",
"72.812 689.961 CURVE SMOOTH",
"107.813 689.961 OFFCURVE",
"136.21 661.911 OFFCURVE",
"136.866 627.077 CURVE",
"139.775 627.077 LINE",
"139.775 699.941 LINE"
);
},
{
closed = 1;
nodes = (
"199.006 699.941 LINE",
"199.006 627.077 LINE",
"201.915 627.077 LINE",
"202.571 661.911 OFFCURVE",
"230.968 689.961 OFFCURVE",
"265.969 689.961 CURVE SMOOTH",
"266.121 689.961 OFFCURVE",
"278.462 689.941 OFFCURVE",
"278.619 689.941 CURVE",
"278.781 699.941 LINE"
);
},
{
closed = 1;
nodes = (
"136.88 72.864 LINE",
"136.225 38.029 OFFCURVE",
"107.828 9.979 OFFCURVE",
"72.826 9.979 CURVE SMOOTH",
"72.674 9.979 OFFCURVE",
"60.333 10 OFFCURVE",
"60.176 10 CURVE",
"60.015 0 LINE",
"139.79 0 LINE",
"139.79 72.864 LINE"
);
},
{
closed = 1;
nodes = (
"199.096 30.589 LINE",
"199.096 0 LINE",
"471.86 0 LINE",
"471.86 30.589 LINE"
);
},
{
closed = 1;
nodes = (
"522.86 161.543 LINE",
"491.991 85.405 OFFCURVE",
"451.298 30.592 OFFCURVE",
"345.335 30.592 CURVE",
"309.031 0 LINE",
"474.572 0 LINE",
"532.86 161.543 LINE"
);
},
{
closed = 1;
nodes = (
"32.759 247.779 LINE",
"341.285 426.252 LINE",
"326.264 452.221 LINE",
"17.738 273.748 LINE"
);
}
);
width = 562;
},
{
layerId = "29CFC173-9C98-4BE1-970A-002FF3BCF672";
paths = (
{
closed = 1;
nodes = (
"106.869 700 LINE",
"106.869 0 LINE",
"311.901 0 LINE",
"311.901 700 LINE"
);
},
{
closed = 1;
nodes = (
"30 700.06 LINE",
"30.163 690.06 LINE",
"30.32 690.06 OFFCURVE",
"42.661 690.08 OFFCURVE",
"42.813 690.08 CURVE SMOOTH",
"77.814 690.08 OFFCURVE",
"106.211 662.03 OFFCURVE",
"106.867 627.196 CURVE",
"109.776 627.196 LINE",
"109.776 700.06 LINE"
);
},
{
closed = 1;
nodes = (
"309.028 700.06 LINE",
"309.028 627.196 LINE",
"311.937 627.196 LINE",
"312.593 662.03 OFFCURVE",
"340.99 690.08 OFFCURVE",
"375.991 690.08 CURVE SMOOTH",
"376.143 690.08 OFFCURVE",
"388.484 690.06 OFFCURVE",
"388.641 690.06 CURVE",
"388.803 700.06 LINE"
);
},
{
closed = 1;
nodes = (
"106.865 72.864 LINE",
"106.21 38.029 OFFCURVE",
"77.813 9.979 OFFCURVE",
"42.811 9.979 CURVE SMOOTH",
"42.659 9.979 OFFCURVE",
"30.318 10 OFFCURVE",
"30.161 10 CURVE",
"30 0 LINE",
"109.775 0 LINE",
"109.775 72.864 LINE"
);
},
{
closed = 1;
nodes = (
"309.082 50.59 LINE",
"309.082 0 LINE",
"611.857 0 LINE",
"571.857 50.59 LINE"
);
},
{
closed = 1;
nodes = (
"642.845 231.543 LINE",
"611.753 117.359 OFFCURVE",
"531.283 50.592 OFFCURVE",
"435.32 50.592 CURVE",
"399.016 0 LINE",
"614.557 0 LINE",
"652.845 231.543 LINE"
);
},
{
closed = 1;
nodes = (
"43.759 227.779 LINE",
"415.431 442.78 LINE",
"389.41 488.749 LINE",
"17.738 273.748 LINE"
);
}
);
width = 652;
}
);
leftKerningGroup = H;
rightKerningGroup = L;
rightMetricsKey = L;
unicode = 0141;
},
{
glyphname = M;
lastChange = "2012-04-12 11:34:57 +0000";
layers = (
{
layerId = "A24B85EF-CA04-493E-A47C-A7B61068A6D7";
paths = (
{
closed = 1;
nodes = (
"439.898 48.95 LINE",
"454.15 -14 LINE",
"463.569 -14 LINE",
"470.023 27.387 OFFCURVE",
"497.886 88.109 OFFCURVE",
"497.886 88.109 CURVE",
"749.227 646.912 LINE",
"740.602 713.697 LINE"
);
},
{
closed = 1;
nodes = (
"104.211 72.645 LINE",
"99.082 33.113 OFFCURVE",
"67.078 9.991 OFFCURVE",
"31.328 9.991 CURVE SMOOTH",
"31.216 9.991 OFFCURVE",
"15.526 10 OFFCURVE",
"15.414 10 CURVE",
"15.414 0 LINE",
"125.623 0 LINE",
"125.623 72.645 LINE"
);
},
{
closed = 1;
nodes = (
"147.697 56.525 LINE",
"147.697 0 LINE",
"209.081 0 LINE",
"209.081 9.445 LINE",
"193.5 9.445 LINE SMOOTH",
"171.956 9.49 OFFCURVE",
"154.511 30.59 OFFCURVE",
"154.511 52.145 CURVE SMOOTH",
"154.511 53.626 OFFCURVE",
"154.609 55.086 OFFCURVE",
"154.771 56.525 CURVE"
);
},
{
closed = 1;
nodes = (
"95.698 0 LINE",
"149.672 0 LINE",
"208.663 654.713 LINE",
"188.71 714 LINE",
"179.433 714 LINE"
);
},
{
closed = 1;
nodes = (
"170.355 601.692 LINE",
"454.153 -14 LINE",
"477.016 90.642 LINE",
"188.71 714 LINE"
);
},
{
closed = 1;
nodes = (
"740.602 713.697 LINE",
"703.487 605.769 LINE",
"758.232 0 LINE",
"836.177 0 LINE",
"749.744 713.697 LINE"
);
},
{
closed = 1;
nodes = (
"805.971 0 LINE",
"916.18 0 LINE",
"916.18 10 LINE",
"916.068 10 OFFCURVE",
"900.378 9.991 OFFCURVE",
"900.266 9.991 CURVE SMOOTH",
"864.516 9.991 OFFCURVE",
"832.512 33.113 OFFCURVE",
"827.383 72.645 CURVE",
"805.971 72.645 LINE"
);
},
{
closed = 1;
nodes = (
"753.275 55.085 OFFCURVE",
"753.372 53.626 OFFCURVE",
"753.372 52.145 CURVE SMOOTH",
"753.372 30.59 OFFCURVE",
"735.927 9.49 OFFCURVE",
"714.384 9.445 CURVE SMOOTH",
"698.802 9.445 LINE",
"698.802 0 LINE",
"760.187 0 LINE",
"760.187 56.525 LINE",
"753.112 56.525 LINE"
);
}
);
width = 931;
},
{
guideLines = (
{
position = "{942.63, 352.798}";
}
);
layerId = "29CFC173-9C98-4BE1-970A-002FF3BCF672";
paths = (
{
closed = 1;
nodes = (
"378.594 78.95 LINE",
"434.846 -24 LINE",
"444.265 -24 LINE",
"442.323 29.387 OFFCURVE",
"485.582 92.11 OFFCURVE",
"485.582 92.11 CURVE",
"812.923 577.912 LINE",
"805.298 713.697 LINE"
);
},
{
closed = 1;
nodes = (
"64.211 72.645 LINE",
"59.082 33.113 OFFCURVE",
"27.078 9.991 OFFCURVE",
"-9 9.991 CURVE SMOOTH",
"-9 9.991 OFFCURVE",
"-24 10 OFFCURVE",
"-25 10 CURVE",
"-25 0 LINE",
"85.623 0 LINE",
"85.623 72.645 LINE"
);
},
{
closed = 1;
nodes = (
"133.21 56.525 LINE",
"133.21 0 LINE",
"194.594 0 LINE",
"194.594 9.445 LINE",
"179.013 9.445 LINE SMOOTH",
"157.469 9.49 OFFCURVE",
"140.024 30.59 OFFCURVE",
"140.024 52.145 CURVE SMOOTH",
"140.024 53.626 OFFCURVE",
"140.122 55.086 OFFCURVE",
"140.284 56.525 CURVE"
);
},
{
closed = 1;
nodes = (
"54.394 0 LINE",
"133.368 0 LINE",
"206.359 586.713 LINE",
"161.406 714 LINE",
"152.129 714 LINE"
);
},
{
closed = 1;
nodes = (
"131.054 396.025 LINE",
"434.849 -24 LINE",
"512.994 232.533 LINE",
"161.406 714 LINE"
);
},
{
closed = 1;
nodes = (
"805.298 713.697 LINE",
"652.875 364.946 LINE",
"700.928 0 LINE",
"914.873 0 LINE",
"814.44 713.697 LINE"
);
},
{
closed = 1;
nodes = (
"883.373 0 LINE",
"993.586 0 LINE",
"993.586 10 LINE",
"993.466 10 OFFCURVE",
"977.78 9.991 OFFCURVE",
"977.668 9.991 CURVE SMOOTH",
"941.918 9.991 OFFCURVE",
"911.914 33.113 OFFCURVE",
"904.785 72.645 CURVE",
"883.373 72.645 LINE"
);
},
{
closed = 1;
nodes = (
"693.844 55.085 OFFCURVE",
"693.941 53.626 OFFCURVE",
"693.941 52.145 CURVE SMOOTH",
"693.941 30.59 OFFCURVE",
"676.496 9.49 OFFCURVE",
"654.953 9.445 CURVE SMOOTH",
"639.371 9.445 LINE",
"639.371 0 LINE",
"700.756 0 LINE",
"700.756 56.525 LINE",
"693.681 56.525 LINE"
);
}
);
width = 968;
}
);
leftKerningGroup = M;
rightKerningGroup = M;
unicode = 004D;
},
{
glyphname = N;
lastChange = "2012-04-11 22:47:14 +0000";
layers = (
{
anchors = (
{
name = bottom;
position = "{507.779, -64}";
},
{
name = top;
position = "{411.804, 764}";
}
);
layerId = "29CFC173-9C98-4BE1-970A-002FF3BCF672";
paths = (
{
closed = 1;
nodes = (
"110.288 584.837 LINE",
"785.022 -14 LINE",
"771.873 114.808 LINE",
"96.9 714.952 LINE"
);
},
{
closed = 1;
nodes = (
"100.346 70.59 LINE",
"99.715 37.017 OFFCURVE",
"72.347 9.981 OFFCURVE",
"38.613 9.981 CURVE SMOOTH",
"38.46 9.981 OFFCURVE",
"20.305 9.994 OFFCURVE",
"20.155 10 CURVE",
"20 0 LINE",
"103.152 0 LINE",
"103.152 70.59 LINE"
);
},
{
closed = 1;
nodes = (
"302.835 70.59 LINE",
"302.835 0 LINE",
"385.987 0 LINE",
"385.833 10 LINE",
"385.68 9.994 OFFCURVE",
"367.523 9.981 OFFCURVE",
"367.372 9.981 CURVE SMOOTH",
"333.64 9.981 OFFCURVE",
"306.273 37.017 OFFCURVE",
"305.637 70.59 CURVE"
);
},
{
closed = 1;
nodes = (
"87.136 714.991 LINE",
"87.136 714.991 OFFCURVE",
"100.345 668.335 OFFCURVE",
"100.345 590.069 CURVE SMOOTH",
"100.345 0 LINE",
"305.732 0 LINE",
"305.02 498.772 LINE",
"96.997 715 LINE"
);
},
{
closed = 1;
nodes = (
"575.596 700.019 LINE",
"575.641 218.152 LINE",
"785.022 -14 LINE",
"794.104 -14 LINE SMOOTH",
"794.104 -14 OFFCURVE",
"780.983 31.165 OFFCURVE",
"780.983 113.582 CURVE SMOOTH",
"780.983 700.019 LINE"
);
},
{
closed = 1;
nodes = (
"778.158 700.019 LINE",
"778.154 629.432 LINE",
"780.962 629.432 LINE",
"781.593 663.007 OFFCURVE",
"808.96 690.043 OFFCURVE",
"842.696 690.039 CURVE SMOOTH",
"842.846 690.042 OFFCURVE",
"861.002 690.027 OFFCURVE",
"861.152 690.02 CURVE",
"861.306 700.019 LINE"
);
},
{
closed = 1;
nodes = (
"495.387 690.019 LINE",
"495.536 690.025 OFFCURVE",
"513.693 690.041 OFFCURVE",
"513.841 690.038 CURVE SMOOTH",
"547.579 690.042 OFFCURVE",
"574.944 663.005 OFFCURVE",
"575.575 629.431 CURVE",
"578.385 629.431 LINE",
"578.379 700.019 LINE",
"495.233 700.019 LINE"
);
}
);
width = 881;
},
{
anchors = (
{
name = bottom;
position = "{425.897, -64}";
},
{
name = top;
position = "{425.897, 764}";
}
);
layerId = "A24B85EF-CA04-493E-A47C-A7B61068A6D7";
paths = (
{
closed = 1;
nodes = (
"135.288 604.837 LINE",
"716.022 -14 LINE",
"706.873 94.808 LINE",
"125.9 714.952 LINE"
);
},
{
closed = 1;
nodes = (
"125.346 70.59 LINE",
"124.715 37.017 OFFCURVE",
"97.347 9.981 OFFCURVE",
"63.613 9.981 CURVE SMOOTH",
"63.46 9.981 OFFCURVE",
"45.305 9.994 OFFCURVE",
"45.155 10 CURVE",
"45 0 LINE",
"128.152 0 LINE",
"128.152 70.59 LINE"
);
},
{
closed = 1;
nodes = (
"167.835 70.59 LINE",
"167.835 0 LINE",
"250.987 0 LINE",
"250.833 10 LINE",
"250.68 9.994 OFFCURVE",
"232.523 9.981 OFFCURVE",
"232.372 9.981 CURVE SMOOTH",
"198.64 9.981 OFFCURVE",
"171.273 37.017 OFFCURVE",
"170.637 70.59 CURVE"
);
},
{
closed = 1;
nodes = (
"116.136 714.991 LINE",
"116.136 714.991 OFFCURVE",
"125.345 658.335 OFFCURVE",
"125.345 590.069 CURVE SMOOTH",
"125.345 0 LINE",
"170.732 0 LINE",
"170.02 658.772 LINE",
"125.997 715 LINE"
);
},
{
closed = 1;
nodes = (
"670.596 700.019 LINE",
"670.641 39.152 LINE",
"716.022 -14 LINE",
"725.104 -14 LINE SMOOTH",
"725.104 -14 OFFCURVE",
"715.983 49.151 OFFCURVE",
"715.983 113.582 CURVE SMOOTH",
"715.983 700.019 LINE"
);
},
{
closed = 1;
nodes = (
"713.158 700.019 LINE",
"713.154 629.432 LINE",
"715.962 629.432 LINE",
"716.593 663.007 OFFCURVE",
"743.96 690.043 OFFCURVE",
"777.696 690.039 CURVE SMOOTH",
"777.846 690.042 OFFCURVE",
"796.002 690.027 OFFCURVE",
"796.152 690.02 CURVE",
"796.306 700.019 LINE"
);
},
{
closed = 1;
nodes = (
"590.387 690.019 LINE",
"590.536 690.025 OFFCURVE",
"608.693 690.041 OFFCURVE",
"608.841 690.038 CURVE SMOOTH",
"642.579 690.042 OFFCURVE",
"669.944 663.005 OFFCURVE",
"670.575 629.431 CURVE",
"673.385 629.431 LINE",
"673.379 700.019 LINE",
"590.233 700.019 LINE"
);
}
);
width = 841;
}
);
leftKerningGroup = H;
rightKerningGroup = N;
unicode = 004E;
},
{
glyphname = Eng;
lastChange = "2012-04-12 16:54:14 +0000";
layers = (
{
layerId = "A24B85EF-CA04-493E-A47C-A7B61068A6D7";
paths = (
{
closed = 1;
nodes = (
"105.048 714.991 LINE",
"105.048 714.991 OFFCURVE",
"114.257 658.335 OFFCURVE",
"114.257 590.069 CURVE SMOOTH",
"114.257 0 LINE",
"159.644 0 LINE",
"158.932 658.772 LINE",
"114.909 715 LINE"
);
},
{
closed = 1;
nodes = (
"114.264 64.957 LINE",
"113.72 36.015 OFFCURVE",
"90.127 12.7 OFFCURVE",
"61.045 12.7 CURVE SMOOTH",
"60.914 12.7 OFFCURVE",
"45.263 12.716 OFFCURVE",
"45.133 12.724 CURVE",
"45 0 LINE",
"116.683 0 LINE",
"116.683 64.957 LINE"
);
},
{
closed = 1;
nodes = (
"157.167 64.957 LINE",
"157.167 0 LINE",
"228.85 0 LINE",
"228.717 12.724 LINE",
"228.585 12.716 OFFCURVE",
"212.933 12.7 OFFCURVE",
"212.803 12.7 CURVE SMOOTH",
"183.723 12.7 OFFCURVE",
"160.13 36.015 OFFCURVE",
"159.583 64.957 CURVE"
);
},
{
closed = 1;
nodes = (
"695.785 95.808 LINE",
"114.812 714.952 LINE",
"124.2 604.837 LINE",
"702.934 -13 LINE"
);
},
{
closed = 1;
nodes = (
"704.895 700.019 LINE",
"659.508 700.019 LINE",
"659.549 -30 LINE",
"659.549 -127 OFFCURVE",
"613.856 -174 OFFCURVE",
"571.936 -193 CURVE",
"577.244 -201 LINE",
"644.008 -187 OFFCURVE",
"704.929 -140 OFFCURVE",
"704.929 -32 CURVE"
);
},
{
closed = 1;
nodes = (
"590.359 687.088 LINE",
"590.488 687.096 OFFCURVE",
"606.14 687.116 OFFCURVE",
"606.268 687.113 CURVE SMOOTH",
"635.352 687.116 OFFCURVE",
"658.943 663.8 OFFCURVE",
"659.487 634.857 CURVE",
"661.909 634.857 LINE",
"661.904 700 LINE",
"590.226 700 LINE"
);
},
{
closed = 1;
nodes = (
"702.477 700 LINE",
"702.473 634.858 LINE",
"704.893 634.858 LINE",
"705.438 663.802 OFFCURVE",
"729.029 687.117 OFFCURVE",
"758.113 687.114 CURVE SMOOTH",
"758.242 687.117 OFFCURVE",
"773.894 687.098 OFFCURVE",
"774.023 687.089 CURVE",
"774.156 700 LINE"
);
}
);
width = 819;
},
{
layerId = "29CFC173-9C98-4BE1-970A-002FF3BCF672";
paths = (
{
closed = 1;
nodes = (
"87.136 714.991 LINE",
"87.136 714.991 OFFCURVE",
"100.345 668.335 OFFCURVE",
"100.345 590.069 CURVE SMOOTH",
"100.345 0 LINE",
"295.732 0 LINE",
"295.02 498.772 LINE",
"96.997 715 LINE"
);
},
{
closed = 1;
nodes = (
"100.346 70.59 LINE",
"99.715 37.017 OFFCURVE",
"72.347 9.981 OFFCURVE",
"38.613 9.981 CURVE SMOOTH",
"38.46 9.981 OFFCURVE",
"20.305 9.994 OFFCURVE",
"20.155 10 CURVE",
"20 0 LINE",
"103.152 0 LINE",
"103.152 70.59 LINE"
);
},
{
closed = 1;
nodes = (
"292.835 70.59 LINE",
"292.835 0 LINE",
"375.987 0 LINE",
"375.833 10 LINE",
"375.68 9.994 OFFCURVE",
"357.523 9.981 OFFCURVE",
"357.372 9.981 CURVE SMOOTH",
"323.64 9.981 OFFCURVE",
"296.273 37.017 OFFCURVE",
"295.637 70.59 CURVE"
);
},
{
closed = 1;
nodes = (
"771.873 114.808 LINE",
"96.9 714.952 LINE",
"110.288 584.837 LINE",
"785.022 -14 LINE"
);
},
{
closed = 1;
nodes = (
"780.983 700.019 LINE",
"585.596 700.019 LINE",
"585.655 42 LINE",
"585.655 -114 OFFCURVE",
"563.025 -138 OFFCURVE",
"498.042 -191 CURVE",
"503.35 -199 LINE",
"650.886 -235 OFFCURVE",
"785.022 -152 OFFCURVE",
"785.022 -4 CURVE"
);
},
{
closed = 1;
nodes = (
"505.387 690.019 LINE",
"505.536 690.025 OFFCURVE",
"523.693 690.041 OFFCURVE",
"523.841 690.038 CURVE SMOOTH",
"557.579 690.042 OFFCURVE",
"584.944 663.005 OFFCURVE",
"585.575 629.431 CURVE",
"588.385 629.431 LINE",
"588.379 700.019 LINE",
"505.233 700.019 LINE"
);
},
{
closed = 1;
nodes = (
"778.158 700.019 LINE",
"778.154 629.432 LINE",
"780.962 629.432 LINE",
"781.593 663.007 OFFCURVE",
"808.96 690.043 OFFCURVE",
"842.696 690.039 CURVE SMOOTH",
"842.846 690.042 OFFCURVE",
"861.002 690.027 OFFCURVE",
"861.152 690.02 CURVE",
"861.306 700.019 LINE"
);
}
);
width = 891;
}
);
leftKerningGroup = N;
rightKerningGroup = N;
unicode = 014A;
},
{
glyphname = O;
lastChange = "2012-04-27 14:03:07 +0000";
layers = (
{
anchors = (
{
name = top;
position = "{429, 764}";
}
);
layerId = "A24B85EF-CA04-493E-A47C-A7B61068A6D7";
paths = (
{
closed = 1;
nodes = (
"216.773 714 OFFCURVE",
"70 568.397 OFFCURVE",
"70 349.992 CURVE SMOOTH",
"70 131.597 OFFCURVE",
"216.773 -14 OFFCURVE",
"429.432 -14 CURVE SMOOTH",
"642.092 -14 OFFCURVE",
"788.865 131.597 OFFCURVE",
"788.865 349.992 CURVE SMOOTH",
"788.865 568.397 OFFCURVE",
"642.092 714 OFFCURVE",
"429.432 714 CURVE SMOOTH"
);
},
{
closed = 1;
nodes = (
"259.773 15.925 OFFCURVE",
"146.667 149.552 OFFCURVE",
"146.667 349.992 CURVE SMOOTH",
"146.667 550.442 OFFCURVE",
"259.773 684.075 OFFCURVE",
"429.432 684.075 CURVE SMOOTH",
"599.092 684.075 OFFCURVE",
"712.198 550.442 OFFCURVE",
"712.198 349.992 CURVE SMOOTH",
"712.198 149.552 OFFCURVE",
"599.092 15.925 OFFCURVE",
"429.432 15.925 CURVE SMOOTH"
);
}
);
width = 838;
},
{
anchors = (
{
name = top;
position = "{450.432, 778}";
}
);
layerId = "29CFC173-9C98-4BE1-970A-002FF3BCF672";
paths = (
{
closed = 1;
nodes = (
"192.446 714 OFFCURVE",
"35 578.797 OFFCURVE",
"35 349.992 CURVE SMOOTH",
"35 121.197 OFFCURVE",
"192.446 -14 OFFCURVE",
"450.432 -14 CURVE SMOOTH",
"708.418 -14 OFFCURVE",
"865.865 121.197 OFFCURVE",
"865.865 349.992 CURVE SMOOTH",
"865.865 578.797 OFFCURVE",
"708.418 714 OFFCURVE",
"450.432 714 CURVE SMOOTH"
);
},
{
closed = 1;
nodes = (
"328.008 35.925 OFFCURVE",
"255.667 152.578 OFFCURVE",
"255.667 349.992 CURVE SMOOTH",
"255.667 547.416 OFFCURVE",
"328.008 664.075 OFFCURVE",
"450.432 664.075 CURVE SMOOTH",
"572.856 664.075 OFFCURVE",
"645.198 547.416 OFFCURVE",
"645.198 349.992 CURVE SMOOTH",
"645.198 152.578 OFFCURVE",
"572.856 35.925 OFFCURVE",
"450.432 35.925 CURVE SMOOTH"
);
}
);
width = 905;
}
);
leftKerningGroup = O;
rightKerningGroup = O;
unicode = 004F;
},
{
glyphname = Ograve;
lastChange = "2012-03-27 19:00:11 +0000";
layers = (
{
layerId = "A24B85EF-CA04-493E-A47C-A7B61068A6D7";
paths = (
{
closed = 1;
nodes = (
"206.773 714 OFFCURVE",
"60 568.397 OFFCURVE",
"60 349.992 CURVE SMOOTH",
"60 131.597 OFFCURVE",
"206.773 -14 OFFCURVE",
"419.432 -14 CURVE SMOOTH",
"632.092 -14 OFFCURVE",
"778.865 131.597 OFFCURVE",
"778.865 349.992 CURVE SMOOTH",
"778.865 568.397 OFFCURVE",
"632.092 714 OFFCURVE",
"419.432 714 CURVE SMOOTH"
);
},
{
closed = 1;
nodes = (
"249.773 15.925 OFFCURVE",
"136.667 149.552 OFFCURVE",
"136.667 349.992 CURVE SMOOTH",
"136.667 550.442 OFFCURVE",
"249.773 684.075 OFFCURVE",
"419.432 684.075 CURVE SMOOTH",
"589.092 684.075 OFFCURVE",
"702.198 550.442 OFFCURVE",
"702.198 349.992 CURVE SMOOTH",
"702.198 149.552 OFFCURVE",
"589.092 15.925 OFFCURVE",
"419.432 15.925 CURVE SMOOTH"
);
},
{
closed = 1;
nodes = (
"383.678 817.631 OFFCURVE",
"341.355 861.263 OFFCURVE",
"299.033 901.894 CURVE",
"283.399 887.358 OFFCURVE",
"268.764 869.821 OFFCURVE",
"258.13 849.285 CURVE",
"311.753 817.857 OFFCURVE",
"365.377 789.428 OFFCURVE",
"419 764 CURVE",
"426 771 LINE"
);
}
);
width = 838;
},
{
layerId = "29CFC173-9C98-4BE1-970A-002FF3BCF672";
paths = (
{
closed = 1;
nodes = (
"192.446 714 OFFCURVE",
"35 578.797 OFFCURVE",
"35 349.992 CURVE SMOOTH",
"35 121.197 OFFCURVE",
"192.446 -14 OFFCURVE",
"450.432 -14 CURVE SMOOTH",
"708.418 -14 OFFCURVE",
"865.865 121.197 OFFCURVE",
"865.865 349.992 CURVE SMOOTH",
"865.865 578.797 OFFCURVE",
"708.418 714 OFFCURVE",
"450.432 714 CURVE SMOOTH"
);
},
{
closed = 1;
nodes = (
"321.723 35.925 OFFCURVE",
"250.667 152.578 OFFCURVE",
"250.667 349.992 CURVE SMOOTH",
"250.667 547.416 OFFCURVE",
"321.723 664.075 OFFCURVE",
"450.432 664.075 CURVE SMOOTH",
"579.142 664.075 OFFCURVE",
"650.198 547.416 OFFCURVE",
"650.198 349.992 CURVE SMOOTH",
"650.198 152.578 OFFCURVE",
"579.142 35.925 OFFCURVE",
"450.432 35.925 CURVE SMOOTH"
);
},
{
closed = 1;
nodes = (
"449.086 850.791 OFFCURVE",
"366.834 932.676 OFFCURVE",
"322.582 970.561 CURVE",
"274.202 950.325 OFFCURVE",
"250.823 917.09 OFFCURVE",
"237.443 870.854 CURVE",
"300.741 828.871 OFFCURVE",
"397.04 786.889 OFFCURVE",
"470.338 777.906 CURVE",
"477.338 784.906 LINE"
);
}
);
width = 905;
}
);
leftKerningGroup = O;
leftMetricsKey = O;
rightKerningGroup = O;
rightMetricsKey = O;
unicode = 00D2;
},
{
glyphname = Oslash;
lastChange = "2012-03-29 15:11:13 +0000";
layers = (
{
anchors = (
{
name = top;
position = "{300, 700}";
}
);
layerId = "A24B85EF-CA04-493E-A47C-A7B61068A6D7";
paths = (
{
closed = 1;
nodes = (
"201.773 714 OFFCURVE",
"60 568.397 OFFCURVE",
"60 349.992 CURVE SMOOTH",
"60 131.597 OFFCURVE",
"201.773 -14 OFFCURVE",
"414.432 -14 CURVE SMOOTH",
"627.092 -14 OFFCURVE",
"768.865 131.597 OFFCURVE",
"768.865 349.992 CURVE SMOOTH",
"768.865 568.397 OFFCURVE",
"627.092 714 OFFCURVE",
"414.432 714 CURVE SMOOTH"
);
},
{
closed = 1;
nodes = (
"244.773 15.925 OFFCURVE",
"131.667 149.552 OFFCURVE",
"131.667 349.992 CURVE SMOOTH",
"131.667 550.442 OFFCURVE",
"244.773 684.075 OFFCURVE",
"414.432 684.075 CURVE SMOOTH",
"584.092 684.075 OFFCURVE",
"697.198 550.442 OFFCURVE",
"697.198 349.992 CURVE SMOOTH",
"697.198 149.552 OFFCURVE",
"584.092 15.925 OFFCURVE",
"414.432 15.925 CURVE SMOOTH"
);
},
{
closed = 1;
nodes = (
"97.844 -1 LINE",
"122.854 -23 LINE",
"724.701 699.577 LINE",
"699.389 722.336 LINE"
);
}
);
width = 828;
},
{
anchors = (
{
name = top;
position = "{335, 700}";
}
);
layerId = "29CFC173-9C98-4BE1-970A-002FF3BCF672";
paths = (
{
closed = 1;
nodes = (
"192.446 714 OFFCURVE",
"35 578.797 OFFCURVE",
"35 349.992 CURVE SMOOTH",
"35 121.197 OFFCURVE",
"192.446 -14 OFFCURVE",
"450.432 -14 CURVE SMOOTH",
"708.418 -14 OFFCURVE",
"865.865 121.197 OFFCURVE",
"865.865 349.992 CURVE SMOOTH",
"865.865 578.797 OFFCURVE",
"708.418 714 OFFCURVE",
"450.432 714 CURVE SMOOTH"
);
},
{
closed = 1;
nodes = (
"321.723 35.925 OFFCURVE",
"250.667 152.578 OFFCURVE",
"250.667 349.992 CURVE SMOOTH",
"250.667 547.416 OFFCURVE",
"321.723 664.075 OFFCURVE",
"450.432 664.075 CURVE SMOOTH",
"579.142 664.075 OFFCURVE",
"650.198 547.416 OFFCURVE",
"650.198 349.992 CURVE SMOOTH",
"650.198 152.578 OFFCURVE",
"579.142 35.925 OFFCURVE",
"450.432 35.925 CURVE SMOOTH"
);
},
{
closed = 1;
nodes = (
"108.844 13 LINE",
"152.854 -23 LINE",
"765.701 691.577 LINE",
"722.389 726.336 LINE"
);
}
);
width = 905;
}
);
leftKerningGroup = O;
leftMetricsKey = O;
rightKerningGroup = O;
rightMetricsKey = O;
unicode = 00D8;
},
{
glyphname = OE;
lastChange = "2012-04-12 16:56:18 +0000";
layers = (
{
anchors = (
{
name = top;
position = "{570, 700}";
}
);
layerId = "A24B85EF-CA04-493E-A47C-A7B61068A6D7";
paths = (
{
closed = 1;
nodes = (
"201.773 714 OFFCURVE",
"60 568.397 OFFCURVE",
"60 349.992 CURVE SMOOTH",
"60 131.597 OFFCURVE",
"201.773 -14 OFFCURVE",
"414.432 -14 CURVE SMOOTH",
"450.675 -14 OFFCURVE",
"520.846 -3 OFFCURVE",
"542.005 -2 CURVE SMOOTH",
"570.295 0 OFFCURVE",
"582.541 0 OFFCURVE",
"595.634 0 CURVE",
"595.005 700 LINE",
"563.903 700 OFFCURVE",
"546.584 702.473 OFFCURVE",
"526.586 705.341 CURVE SMOOTH",
"492.25 710.264 OFFCURVE",
"443.758 714 OFFCURVE",
"414.432 714 CURVE SMOOTH"
);
},
{
closed = 1;
nodes = (
"244.773 15.925 OFFCURVE",
"131.667 149.552 OFFCURVE",
"131.667 349.992 CURVE SMOOTH",
"131.667 550.442 OFFCURVE",
"244.773 684.075 OFFCURVE",
"414.432 684.075 CURVE SMOOTH",
"467.021 684.075 OFFCURVE",
"536.402 672.707 OFFCURVE",
"536.402 635.545 CURVE",
"536.402 64.203 LINE",
"536.402 31.499 OFFCURVE",
"467.214 15.925 OFFCURVE",
"414.432 15.925 CURVE SMOOTH"
);
},
{
closed = 1;
nodes = (
"536.421 699.656 LINE",
"536.421 4.998 LINE",
"597.423 0 LINE",
"597.423 699.656 LINE SMOOTH"
);
},
{
closed = 1;
nodes = (
"588.634 30.59 LINE",
"595.634 0 LINE",
"871.409 0 LINE",
"871.409 30.59 LINE"
);
},
{
closed = 1;
nodes = (
"593.634 360.218 LINE",
"593.634 330.218 LINE",
"828.577 330.218 LINE",
"828.577 360.218 LINE"
);
},
{
closed = 1;
nodes = (
"592.634 700 LINE",
"592.634 669.409 LINE SMOOTH",
"871.409 669.409 LINE",
"871.409 700 LINE"
);
},
{
closed = 1;
nodes = (
"922.39 161.543 LINE",
"891.521 85.405 OFFCURVE",
"850.828 30.592 OFFCURVE",
"744.865 30.592 CURVE",
"708.561 0 LINE",
"874.102 0 LINE",
"932.39 161.543 LINE"
);
},
{
closed = 1;
nodes = (
"770.449 332.487 LINE",
"770.449 330.249 LINE",
"797.243 329.745 OFFCURVE",
"818.82 307.901 OFFCURVE",
"818.82 280.977 CURVE SMOOTH",
"818.804 266.243 LINE",
"828.577 266.119 LINE",
"828.577 332.487 LINE"
);
},
{
closed = 1;
nodes = (
"818.804 424.25 LINE",
"818.821 409.516 LINE SMOOTH",
"818.821 382.593 OFFCURVE",
"797.243 360.753 OFFCURVE",
"770.449 360.248 CURVE",
"770.449 358.012 LINE",
"828.577 358.012 LINE",
"828.577 424.375 LINE"
);
},
{
closed = 1;
nodes = (
"800.781 672.218 LINE",
"800.781 669.51 LINE",
"833.205 668.9 OFFCURVE",
"859.31 642.468 OFFCURVE",
"859.31 609.891 CURVE SMOOTH",
"859.291 592.067 LINE",
"871.391 591.917 LINE",
"871.391 672.218 LINE"
);
},
{
closed = 1;
nodes = (
"852.407 710.201 OFFCURVE",
"792.785 699.987 OFFCURVE",
"749.425 699.987 CURVE",
"871.356 688.909 LINE",
"871.356 718.187 LINE"
);
}
);
width = 962;
},
{
anchors = (
{
name = top;
position = "{380, 700}";
}
);
layerId = "29CFC173-9C98-4BE1-970A-002FF3BCF672";
paths = (
{
closed = 1;
nodes = (
"193 714 OFFCURVE",
"35 579 OFFCURVE",
"35 352 CURVE SMOOTH",
"35 121 OFFCURVE",
"198 -14 OFFCURVE",
"447 -14 CURVE SMOOTH",
"508 -14 OFFCURVE",
"537 -6 OFFCURVE",
"587 -2 CURVE SMOOTH",
"614 0 OFFCURVE",
"630 0 OFFCURVE",
"640.634 0 CURVE",
"640.005 700 LINE",
"617 700 OFFCURVE",
"594 702 OFFCURVE",
"572 705 CURVE SMOOTH",
"535 710 OFFCURVE",
"505 714 OFFCURVE",
"459 714 CURVE SMOOTH"
);
},
{
closed = 1;
nodes = (
"333 36 OFFCURVE",
"246 152 OFFCURVE",
"247 350 CURVE SMOOTH",
"248 557 OFFCURVE",
"340 664 OFFCURVE",
"462 664 CURVE SMOOTH",
"538 664 OFFCURVE",
"581 623 OFFCURVE",
"581.402 595.545 CURVE",
"581.402 104.203 LINE",
"581 75 OFFCURVE",
"536 36 OFFCURVE",
"461 36 CURVE SMOOTH"
);
},
{
closed = 1;
nodes = (
"581.869 700 LINE",
"581.869 0 LINE",
"786.901 0 LINE",
"786.901 700 LINE"
);
},
{
closed = 1;
nodes = (
"784.082 50.59 LINE",
"784.082 0 LINE",
"1086.86 0 LINE",
"1046.86 50.59 LINE"
);
},
{
closed = 1;
nodes = (
"784.082 370.218 LINE",
"784.082 320.218 LINE",
"1014.03 320.218 LINE",
"1014.03 370.218 LINE"
);
},
{
closed = 1;
nodes = (
"784.082 700 LINE",
"784.082 649.409 LINE SMOOTH",
"1066.8 649.409 LINE",
"1066.8 700 LINE"
);
},
{
closed = 1;
nodes = (
"1117.84 231.543 LINE",
"1086.75 117.359 OFFCURVE",
"1006.28 50.592 OFFCURVE",
"910.32 50.592 CURVE",
"874.016 0 LINE",
"1089.56 0 LINE",
"1127.84 231.543 LINE"
);
},
{
closed = 1;
nodes = (
"895.904 322.487 LINE",
"895.904 320.249 LINE",
"959.378 319.055 OFFCURVE",
"1004.49 273.785 OFFCURVE",
"1004.28 210.977 CURVE SMOOTH",
"1004.26 206.243 LINE",
"1014.03 206.119 LINE",
"1014.03 322.487 LINE"
);
},
{
closed = 1;
nodes = (
"1004.26 484.25 LINE",
"1004.28 479.516 LINE SMOOTH",
"1004.5 416.714 OFFCURVE",
"959.451 371.446 OFFCURVE",
"895.904 370.248 CURVE",
"895.904 368.012 LINE",
"1014.03 368.012 LINE",
"1014.03 484.375 LINE"
);
},
{
closed = 1;
nodes = (
"928.236 652.218 LINE",
"928.236 649.51 LINE",
"1009.22 647.987 OFFCURVE",
"1056.96 599.769 OFFCURVE",
"1056.77 519.891 CURVE SMOOTH",
"1056.75 512.067 LINE",
"1066.85 511.917 LINE",
"1066.85 652.218 LINE"
);
},
{
closed = 1;
nodes = (
"1047.86 710.201 OFFCURVE",
"988.24 699.987 OFFCURVE",
"944.88 699.987 CURVE",
"1066.81 688.909 LINE",
"1066.81 718.187 LINE"
);
}
);
width = 1142;
}
);
leftKerningGroup = O;
leftMetricsKey = O;
rightKerningGroup = E;
rightMetricsKey = e;
unicode = 0152;
},
{
glyphname = P;
lastChange = "2012-04-10 11:34:20 +0000";
layers = (
{
layerId = "A24B85EF-CA04-493E-A47C-A7B61068A6D7";
paths = (
{
closed = 1;
nodes = (
"189.409 700 OFFCURVE",
"199.462 670 OFFCURVE",
"199.462 670 CURVE",
"317.309 670 LINE",
"402.369 670 OFFCURVE",
"449.631 608.769 OFFCURVE",
"452.132 516.922 CURVE SMOOTH",
"452.734 494.813 OFFCURVE",
"450.178 470.686 OFFCURVE",
"445.741 456.605 CURVE SMOOTH",
"400.614 313.379 OFFCURVE",
"236.101 348.866 OFFCURVE",
"236.101 348.866 CURVE",
"236.221 339.416 LINE",
"361.688 273.283 OFFCURVE",
"527.132 354.447 OFFCURVE",
"527.132 506.868 CURVE SMOOTH",
"527.132 626.61 OFFCURVE",
"448.776 700 OFFCURVE",
"320.931 700 CURVE SMOOTH",
"189.409 700 LINE SMOOTH"
);
},
{
closed = 1;
nodes = (
"136.905 700 LINE",
"136.905 0 LINE",
"202.029 0 LINE",
"202.029 700 LINE"
);
},
{
closed = 1;
nodes = (
"136.865 72.864 LINE",
"136.21 38.029 OFFCURVE",
"107.813 9.979 OFFCURVE",
"72.811 9.979 CURVE SMOOTH",
"72.659 9.979 OFFCURVE",
"60.318 10 OFFCURVE",
"60.161 10 CURVE",
"60 0 LINE",
"139.775 0 LINE",
"139.775 72.864 LINE"
);
},
{
closed = 1;
nodes = (
"140.126 700.06 LINE",
"60.351 700.06 LINE",
"60.513 690.06 LINE",
"60.67 690.06 OFFCURVE",
"73.011 690.08 OFFCURVE",
"73.163 690.08 CURVE SMOOTH",
"108.164 690.08 OFFCURVE",
"136.561 662.03 OFFCURVE",
"137.217 627.196 CURVE",
"140.126 627.196 LINE"
);
},
{
closed = 1;
nodes = (
"199.122 0 LINE",
"278.897 0 LINE",
"278.736 10 LINE",
"278.579 10 OFFCURVE",
"266.238 9.979 OFFCURVE",
"266.086 9.979 CURVE SMOOTH",
"231.084 9.979 OFFCURVE",
"202.687 38.029 OFFCURVE",
"202.032 72.864 CURVE",
"199.122 72.864 LINE"
);
}
);
width = 577;
},
{
layerId = "29CFC173-9C98-4BE1-970A-002FF3BCF672";
paths = (
{
closed = 1;
nodes = (
"304.409 700 OFFCURVE",
"314.462 650 OFFCURVE",
"314.462 650 CURVE",
"352.309 650 LINE",
"429.068 650 OFFCURVE",
"474.068 598 OFFCURVE",
"477.068 517 CURVE SMOOTH",
"478.068 500 OFFCURVE",
"476.068 477 OFFCURVE",
"471.068 457 CURVE SMOOTH",
"443.068 342 OFFCURVE",
"350.068 340 OFFCURVE",
"351.101 338.866 CURVE",
"351.221 329.416 LINE",
"505 218 OFFCURVE",
"702.371 324 OFFCURVE",
"692.132 509.406 CURVE SMOOTH",
"686.475 611.844 OFFCURVE",
"615 700 OFFCURVE",
"415.931 700 CURVE SMOOTH",
"304.409 700 LINE SMOOTH"
);
},
{
closed = 1;
nodes = (
"111.905 700 LINE",
"111.905 0 LINE",
"317.029 0 LINE",
"317.029 700 LINE"
);
},
{
closed = 1;
nodes = (
"111.865 72.864 LINE",
"111.21 38.029 OFFCURVE",
"82.813 9.979 OFFCURVE",
"47.811 9.979 CURVE SMOOTH",
"46 10 OFFCURVE",
"37 10 OFFCURVE",
"35.161 10 CURVE",
"35 0 LINE",
"114.775 0 LINE",
"114.775 72.864 LINE"
);
},
{
closed = 1;
nodes = (
"115.126 700.06 LINE",
"35.351 700.06 LINE",
"35.513 690.06 LINE",
"38 690 OFFCURVE",
"46 690 OFFCURVE",
"48 690 CURVE SMOOTH",
"83.164 690.08 OFFCURVE",
"111.561 662.03 OFFCURVE",
"112.217 627.196 CURVE",
"115.126 627.196 LINE"
);
},
{
closed = 1;
nodes = (
"314.122 0 LINE",
"393.897 0 LINE",
"393.736 10 LINE",
"392 10 OFFCURVE",
"383 10 OFFCURVE",
"381 10 CURVE SMOOTH",
"346.084 9.979 OFFCURVE",
"317.687 38.029 OFFCURVE",
"317.032 72.864 CURVE",
"314.122 72.864 LINE"
);
}
);
width = 707;
}
);
leftKerningGroup = H;
rightKerningGroup = P;
unicode = 0050;
},
{
glyphname = Thorn;
lastChange = "2012-04-12 16:58:51 +0000";
layers = (
{
layerId = "A24B85EF-CA04-493E-A47C-A7B61068A6D7";
paths = (
{
closed = 1;
nodes = (
"119.567 700 LINE",
"119.567 0 LINE",
"184.614 0 LINE",
"184.614 700 LINE"
);
},
{
closed = 1;
nodes = (
"119.559 72.864 LINE",
"118.904 38.029 OFFCURVE",
"90.507 9.979 OFFCURVE",
"55.505 9.979 CURVE SMOOTH",
"55.353 9.979 OFFCURVE",
"43.012 10 OFFCURVE",
"42.855 10 CURVE",
"42.694 0 LINE",
"122.469 0 LINE",
"122.469 72.864 LINE"
);
},
{
closed = 1;
nodes = (
"122.485 700.06 LINE",
"42.71 700.06 LINE",
"42.872 690.06 LINE",
"43.029 690.06 OFFCURVE",
"55.37 690.08 OFFCURVE",
"55.522 690.08 CURVE SMOOTH",
"90.523 690.08 OFFCURVE",
"118.92 662.03 OFFCURVE",
"119.576 627.196 CURVE",
"122.485 627.196 LINE"
);
},
{
closed = 1;
nodes = (
"181.706 0 LINE",
"261.481 0 LINE",
"261.32 10 LINE",
"261.163 10 OFFCURVE",
"248.822 9.979 OFFCURVE",
"248.67 9.979 CURVE SMOOTH",
"213.668 9.979 OFFCURVE",
"185.271 38.029 OFFCURVE",
"184.616 72.864 CURVE",
"181.706 72.864 LINE"
);
},
{
closed = 1;
nodes = (
"184.599 627.196 LINE",
"185.255 662.03 OFFCURVE",
"213.652 690.08 OFFCURVE",
"248.653 690.08 CURVE SMOOTH",
"248.805 690.08 OFFCURVE",
"261.146 690.06 OFFCURVE",
"261.303 690.06 CURVE",
"261.465 700.06 LINE",
"181.69 700.06 LINE",
"181.69 627.196 LINE"
);
},
{
closed = 1;
nodes = (
"172.144 547.899 OFFCURVE",
"182.197 517.899 OFFCURVE",
"182.197 517.899 CURVE",
"300.044 517.899 LINE",
"385.104 517.899 OFFCURVE",
"432.366 456.668 OFFCURVE",
"434.867 364.822 CURVE SMOOTH",
"435.469 342.712 OFFCURVE",
"432.913 318.585 OFFCURVE",
"428.476 304.504 CURVE SMOOTH",
"383.349 161.278 OFFCURVE",
"218.836 196.765 OFFCURVE",
"218.836 196.765 CURVE",
"218.956 187.315 LINE",
"344.424 121.182 OFFCURVE",
"504.867 202.346 OFFCURVE",
"504.867 354.767 CURVE SMOOTH",
"504.867 473.046 OFFCURVE",
"435.586 547.899 OFFCURVE",
"303.666 547.899 CURVE SMOOTH",
"172.144 547.899 LINE SMOOTH"
);
}
);
width = 554;
},
{
layerId = "29CFC173-9C98-4BE1-970A-002FF3BCF672";
paths = (
{
closed = 1;
nodes = (
"119.567 700 LINE",
"119.567 0 LINE",
"324.614 0 LINE",
"324.614 700 LINE"
);
},
{
closed = 1;
nodes = (
"119.559 72.864 LINE",
"118.904 38.029 OFFCURVE",
"90.507 9.979 OFFCURVE",
"55.505 9.979 CURVE SMOOTH",
"55.353 9.979 OFFCURVE",
"43.012 10 OFFCURVE",
"42.855 10 CURVE",
"42.694 0 LINE",
"122.469 0 LINE",
"122.469 72.864 LINE"
);
},
{
closed = 1;
nodes = (
"122.485 700.06 LINE",
"42.71 700.06 LINE",
"42.872 690.06 LINE",
"43.029 690.06 OFFCURVE",
"55.37 690.08 OFFCURVE",
"55.522 690.08 CURVE SMOOTH",
"90.523 690.08 OFFCURVE",
"118.92 662.03 OFFCURVE",
"119.576 627.196 CURVE",
"122.485 627.196 LINE"
);
},
{
closed = 1;
nodes = (
"321.706 0 LINE",
"401.481 0 LINE",
"401.32 10 LINE",
"401.163 10 OFFCURVE",
"388.822 9.979 OFFCURVE",
"388.67 9.979 CURVE SMOOTH",
"353.668 9.979 OFFCURVE",
"325.271 38.029 OFFCURVE",
"324.616 72.864 CURVE",
"321.706 72.864 LINE"
);
},
{
closed = 1;
nodes = (
"324.599 627.196 LINE",
"325.255 662.03 OFFCURVE",
"353.652 690.08 OFFCURVE",
"388.653 690.08 CURVE SMOOTH",
"388.805 690.08 OFFCURVE",
"401.146 690.06 OFFCURVE",
"401.303 690.06 CURVE",
"401.465 700.06 LINE",
"321.69 700.06 LINE",
"321.69 627.196 LINE"
);
},
{
closed = 1;
nodes = (
"304.409 558.034 OFFCURVE",
"314.462 508.034 OFFCURVE",
"314.462 508.034 CURVE",
"352.309 508.034 LINE",
"429.068 508.034 OFFCURVE",
"474.068 456.034 OFFCURVE",
"477.068 375.034 CURVE SMOOTH",
"478.068 358.034 OFFCURVE",
"476.068 335.034 OFFCURVE",
"471.068 315.034 CURVE SMOOTH",
"443.068 200.034 OFFCURVE",
"350.068 198.034 OFFCURVE",
"351.101 196.9 CURVE",
"351.221 187.45 LINE",
"505 76.034 OFFCURVE",
"702.371 182.034 OFFCURVE",
"692.132 367.44 CURVE SMOOTH",
"686.475 469.878 OFFCURVE",
"615 558.034 OFFCURVE",
"415.931 558.034 CURVE SMOOTH",
"304.409 558.034 LINE SMOOTH"
);
}
);
width = 707;
}
);
leftKerningGroup = H;
rightKerningGroup = Thorn;
unicode = 00DE;
},
{
glyphname = Q;
lastChange = "2012-04-02 16:30:17 +0000";
layers = (
{
layerId = "A24B85EF-CA04-493E-A47C-A7B61068A6D7";
paths = (
{
closed = 1;
nodes = (
"542.506 -38 OFFCURVE",
"706.004 -141 OFFCURVE",
"828.204 -194 CURVE SMOOTH",
"1113.89 -318 OFFCURVE",
"1304.35 -152 OFFCURVE",
"1327.75 -89 CURVE",
"1323.93 -84 LINE",
"1200.51 -200 OFFCURVE",
"986.206 -196 OFFCURVE",
"836.029 -133 CURVE SMOOTH",
"636.66 -48 OFFCURVE",
"479.059 11.861 OFFCURVE",
"417.682 11.861 CURVE",
"408.017 -14 LINE"
);
},
{
closed = 1;
nodes = (
"206.773 714 OFFCURVE",
"60 568.397 OFFCURVE",
"60 349.992 CURVE SMOOTH",
"60 131.597 OFFCURVE",
"206.773 -14 OFFCURVE",
"419.432 -14 CURVE",
"629.092 -14 OFFCURVE",
"777.198 131.597 OFFCURVE",
"777.198 349.992 CURVE SMOOTH",
"777.198 568.397 OFFCURVE",
"631.092 714 OFFCURVE",
"419.432 714 CURVE SMOOTH"
);
},
{
closed = 1;
nodes = (
"249.773 15.925 OFFCURVE",
"135 149.552 OFFCURVE",
"135 349.992 CURVE SMOOTH",
"135 550.442 OFFCURVE",
"248.773 684.075 OFFCURVE",
"419.432 684.075 CURVE SMOOTH",
"589.092 684.075 OFFCURVE",
"702.198 550.442 OFFCURVE",
"702.198 349.992 CURVE SMOOTH",
"702.198 149.552 OFFCURVE",
"589.092 15.925 OFFCURVE",
"419.432 15.925 CURVE SMOOTH"
);
}
);
width = 837;
},
{
layerId = "29CFC173-9C98-4BE1-970A-002FF3BCF672";
paths = (
{
closed = 1;
nodes = (
"574 -18 OFFCURVE",
"660 -134 OFFCURVE",
"824 -224 CURVE SMOOTH",
"1130 -391 OFFCURVE",
"1376 -283 OFFCURVE",
"1375.75 -67 CURVE",
"1368.93 -64 LINE",
"1266 -138 OFFCURVE",
"1121 -149 OFFCURVE",
"921 -76 CURVE SMOOTH",
"711 1 OFFCURVE",
"677 13 OFFCURVE",
"398.682 34.861 CURVE",
"453.017 -14 LINE"
);
},
{
closed = 1;
nodes = (
"197.446 714 OFFCURVE",
"40 578.797 OFFCURVE",
"40 349.992 CURVE SMOOTH",
"40 121.197 OFFCURVE",
"197.446 -14 OFFCURVE",
"455.432 -14 CURVE SMOOTH",
"713.418 -14 OFFCURVE",
"870.865 121.197 OFFCURVE",
"870.865 349.992 CURVE SMOOTH",
"870.865 578.797 OFFCURVE",
"713.418 714 OFFCURVE",
"455.432 714 CURVE SMOOTH"
);
},
{
closed = 1;
nodes = (
"333.008 35.925 OFFCURVE",
"260.667 152.578 OFFCURVE",
"260.667 349.992 CURVE SMOOTH",
"260.667 547.416 OFFCURVE",
"333.008 664.075 OFFCURVE",
"455.432 664.075 CURVE SMOOTH",
"577.856 664.075 OFFCURVE",
"650.198 547.416 OFFCURVE",
"650.198 349.992 CURVE SMOOTH",
"650.198 152.578 OFFCURVE",
"577.856 35.925 OFFCURVE",
"455.432 35.925 CURVE SMOOTH"
);
}
);
width = 912;
}
);
leftKerningGroup = O;
rightKerningGroup = O;
unicode = 0051;
},
{
glyphname = R;
lastChange = "2012-05-03 18:23:03 +0000";
layers = (
{
anchors = (
{
name = bottom;
position = "{377.58, -50}";
},
{
name = top;
position = "{323.58, 764}";
}
);
layerId = "A24B85EF-CA04-493E-A47C-A7B61068A6D7";
paths = (
{
closed = 1;
nodes = (
"189.086 700 OFFCURVE",
"199.076 670.736 OFFCURVE",
"199.076 669.211 CURVE SMOOTH",
"199.076 667.686 OFFCURVE",
"268.669 671.236 OFFCURVE",
"326.124 668.088 CURVE SMOOTH",
"400.575 664.007 OFFCURVE",
"447.716 606.077 OFFCURVE",
"450.179 515.639 CURVE SMOOTH",
"450.776 493.723 OFFCURVE",
"448.23 469.772 OFFCURVE",
"443.816 455.761 CURVE SMOOTH",
"415.44 365.7 OFFCURVE",
"339.612 353.336 OFFCURVE",
"287.744 351.924 CURVE SMOOTH",
"257.639 351.104 OFFCURVE",
"234.9 351.594 OFFCURVE",
"234.9 351.594 CURVE",
"234.9 342.34 LINE",
"271.428 342.34 OFFCURVE",
"300.603 307.699 OFFCURVE",
"326.739 274.862 CURVE SMOOTH",
"334.422 265.209 OFFCURVE",
"447.113 101.246 OFFCURVE",
"458.478 87.675 CURVE SMOOTH",
"489.919 50.133 OFFCURVE",
"539.891 0 OFFCURVE",
"632.955 0 CURVE SMOOTH",
"687.817 0 LINE",
"687.817 10.028 LINE",
"629.052 10.499 OFFCURVE",
"592.038 41.708 OFFCURVE",
"551.804 85.645 CURVE SMOOTH",
"513.09 127.922 OFFCURVE",
"426.876 251.026 OFFCURVE",
"426.876 251.026 CURVE SMOOTH",
"407.493 278.393 OFFCURVE",
"376.754 311.492 OFFCURVE",
"355.306 321.391 CURVE",
"451.474 321.391 OFFCURVE",
"525.179 415.255 OFFCURVE",
"525.179 512.063 CURVE SMOOTH",
"525.179 628.584 OFFCURVE",
"450.906 700 OFFCURVE",
"329.724 700 CURVE SMOOTH",
"189.086 700 LINE SMOOTH"
);
},
{
closed = 1;
nodes = (
"136.895 700 LINE",
"136.895 0 LINE",
"201.612 0 LINE",
"201.612 700 LINE"
);
},
{
closed = 1;
nodes = (
"136.906 72.864 LINE",
"136.251 38.029 OFFCURVE",
"107.854 9.979 OFFCURVE",
"72.852 9.979 CURVE SMOOTH",
"72.7 9.979 OFFCURVE",
"60.359 10 OFFCURVE",
"60.202 10 CURVE",
"60.041 0 LINE",
"139.816 0 LINE",
"139.816 72.864 LINE"
);
},
{
closed = 1;
nodes = (
"139.775 700.06 LINE",
"60 700.06 LINE",
"60.162 690.06 LINE",
"60.319 690.06 OFFCURVE",
"72.66 690.08 OFFCURVE",
"72.812 690.08 CURVE SMOOTH",
"107.813 690.08 OFFCURVE",
"136.21 662.03 OFFCURVE",
"136.866 627.196 CURVE",
"139.775 627.196 LINE"
);
},
{
closed = 1;
nodes = (
"198.723 0 LINE",
"278.498 0 LINE",
"278.337 10 LINE",
"278.18 10 OFFCURVE",
"265.839 9.979 OFFCURVE",
"265.687 9.979 CURVE SMOOTH",
"230.685 9.979 OFFCURVE",
"202.288 38.029 OFFCURVE",
"201.633 72.864 CURVE",
"198.723 72.864 LINE"
);
}
);
width = 677;
},
{
anchors = (
{
name = bottom;
position = "{480, -64}";
},
{
name = top;
position = "{391, 764}";
}
);
layerId = "29CFC173-9C98-4BE1-970A-002FF3BCF672";
paths = (
{
closed = 1;
nodes = (
"305.086 700 OFFCURVE",
"313.551 648 OFFCURVE",
"315.076 648 CURVE SMOOTH",
"330.107 648 OFFCURVE",
"352 648 OFFCURVE",
"362 648 CURVE SMOOTH",
"422 648 OFFCURVE",
"471 615 OFFCURVE",
"476 516 CURVE SMOOTH",
"477 497 OFFCURVE",
"475 486 OFFCURVE",
"474 475 CURVE SMOOTH",
"463 389 OFFCURVE",
"422 351.797 OFFCURVE",
"367 351.797 CURVE SMOOTH",
"364.159 351.797 OFFCURVE",
"356.201 351.797 OFFCURVE",
"350.9 351.797 CURVE",
"350.9 342.34 LINE",
"370 335 OFFCURVE",
"389 323 OFFCURVE",
"403 275 CURVE SMOOTH",
"416 232 OFFCURVE",
"419 175 OFFCURVE",
"455 114 CURVE SMOOTH",
"516 10 OFFCURVE",
"609 0 OFFCURVE",
"728.955 0 CURVE SMOOTH",
"853.817 0 LINE",
"853.817 10.028 LINE",
"806 11 OFFCURVE",
"783 24 OFFCURVE",
"738 86 CURVE SMOOTH",
"701 136 OFFCURVE",
"658 213 OFFCURVE",
"653 221 CURVE SMOOTH",
"629 261 OFFCURVE",
"587 305 OFFCURVE",
"531.306 321.391 CURVE",
"656 340 OFFCURVE",
"691 435 OFFCURVE",
"691 511 CURVE SMOOTH",
"691 665 OFFCURVE",
"547 700 OFFCURVE",
"425.724 700 CURVE SMOOTH",
"305.086 700 LINE SMOOTH"
);
},
{
closed = 1;
nodes = (
"111.895 700 LINE",
"111.895 0 LINE",
"317.612 0 LINE",
"317.612 700 LINE"
);
},
{
closed = 1;
nodes = (
"111.906 72.864 LINE",
"111.251 38.029 OFFCURVE",
"82.854 9.979 OFFCURVE",
"47.852 9.979 CURVE SMOOTH",
"46 10 OFFCURVE",
"37 10 OFFCURVE",
"35.202 10 CURVE",
"35.041 0 LINE",
"114.816 0 LINE",
"114.816 72.864 LINE"
);
},
{
closed = 1;
nodes = (
"114.775 700.06 LINE",
"35 700.06 LINE",
"35.162 690.06 LINE",
"37 690 OFFCURVE",
"46 690 OFFCURVE",
"48 690 CURVE SMOOTH",
"82.813 690.08 OFFCURVE",
"111.21 662.03 OFFCURVE",
"111.866 627.196 CURVE",
"114.775 627.196 LINE"
);
},
{
closed = 1;
nodes = (
"314.723 0 LINE",
"394.498 0 LINE",
"394.337 10 LINE",
"392 10 OFFCURVE",
"384 10 OFFCURVE",
"382 10 CURVE SMOOTH",
"346.685 9.979 OFFCURVE",
"318.288 38.029 OFFCURVE",
"317.633 72.864 CURVE",
"314.723 72.864 LINE"
);
}
);
width = 793;
}
);
leftKerningGroup = H;
rightKerningGroup = R;
unicode = 0052;
},
{
glyphname = S;
lastChange = "2012-04-12 11:36:23 +0000";
layers = (
{
anchors = (
{
name = bottom;
position = "{236, -12.432}";
},
{
name = top;
position = "{239.427, 764}";
}
);
layerId = "A24B85EF-CA04-493E-A47C-A7B61068A6D7";
paths = (
{
closed = 1;
nodes = (
"136.752 714 OFFCURVE",
"75 629.288 OFFCURVE",
"75 545 CURVE SMOOTH",
"75 506.288 OFFCURVE",
"88.752 458 OFFCURVE",
"129.205 421.085 CURVE SMOOTH",
"320.759 243.189 LINE SMOOTH",
"345.752 220 OFFCURVE",
"360 189.083 OFFCURVE",
"360 150 CURVE SMOOTH",
"360 70.083 OFFCURVE",
"298.997 20.055 OFFCURVE",
"226 16 CURVE SMOOTH",
"136.997 11.055 OFFCURVE",
"71.752 77 OFFCURVE",
"81.805 180.047 CURVE",
"73.013 180.047 LINE",
"57.779 135.21 OFFCURVE",
"54 71.51 OFFCURVE",
"61.453 40.639 CURVE",
"100.752 0 OFFCURVE",
"181.752 -14 OFFCURVE",
"230.752 -14 CURVE SMOOTH",
"345.752 -14 OFFCURVE",
"418 62.393 OFFCURVE",
"418 173 CURVE SMOOTH",
"418 213.393 OFFCURVE",
"407.752 258 OFFCURVE",
"367.773 294.906 CURVE SMOOTH",
"171.266 476.809 LINE SMOOTH",
"139.752 506 OFFCURVE",
"131 542.935 OFFCURVE",
"131 569 CURVE SMOOTH",
"131 629.935 OFFCURVE",
"180.315 684 OFFCURVE",
"254 684 CURVE SMOOTH",
"316.315 684 OFFCURVE",
"366.752 645 OFFCURVE",
"366.512 581.034 CURVE",
"376.141 581.034 LINE",
"376.141 691.869 LINE",
"354.752 702 OFFCURVE",
"293.752 714 OFFCURVE",
"250.752 714 CURVE SMOOTH"
);
},
{
closed = 1;
nodes = (
"299.636 703.741 LINE",
"299.636 683.478 LINE",
"376.13 683.478 LINE",
"376.13 703.741 LINE"
);
}
);
width = 475;
},
{
anchors = (
{
name = bottom;
position = "{313.802, -13}";
},
{
name = top;
position = "{320.036, 764}";
}
);
layerId = "29CFC173-9C98-4BE1-970A-002FF3BCF672";
paths = (
{
closed = 1;
nodes = (
"160.027 714 OFFCURVE",
"75.027 651 OFFCURVE",
"61.027 535 CURVE SMOOTH",
"49.027 440 OFFCURVE",
"92.027 362 OFFCURVE",
"183.593 319.61 CURVE SMOOTH",
"346.644 244.285 LINE SMOOTH",
"423.027 209 OFFCURVE",
"453.027 176 OFFCURVE",
"452.924 134.476 CURVE SMOOTH",
"453.027 83 OFFCURVE",
"408.027 36 OFFCURVE",
"312.027 36 CURVE SMOOTH",
"172.027 36 OFFCURVE",
"88.027 135 OFFCURVE",
"94.729 240.047 CURVE",
"85.937 240.047 LINE",
"52.704 197.21 OFFCURVE",
"31.924 99.51 OFFCURVE",
"54.377 50.639 CURVE",
"89.027 15 OFFCURVE",
"175.027 -14 OFFCURVE",
"291.027 -14 CURVE SMOOTH",
"480.027 -14 OFFCURVE",
"595.027 63 OFFCURVE",
"605.027 206 CURVE SMOOTH",
"612.027 303 OFFCURVE",
"564.027 366 OFFCURVE",
"489.639 400.221 CURVE SMOOTH",
"302.739 486.53 LINE SMOOTH",
"253.027 509 OFFCURVE",
"210.027 532 OFFCURVE",
"214.027 580 CURVE SMOOTH",
"218.027 629 OFFCURVE",
"268.027 664 OFFCURVE",
"350.027 664 CURVE SMOOTH",
"449.027 664 OFFCURVE",
"509.027 614 OFFCURVE",
"509.436 541.034 CURVE",
"519.065 541.034 LINE",
"539.065 691.869 LINE",
"516.027 702 OFFCURVE",
"353.027 714 OFFCURVE",
"294.027 714 CURVE SMOOTH"
);
},
{
closed = 1;
nodes = (
"392.56 703.741 LINE SMOOTH",
"392.56 683.478 LINE",
"537.95 683.478 LINE",
"540.643 703.741 LINE"
);
}
);
width = 645;
}
);
leftKerningGroup = S;
rightKerningGroup = S;
unicode = 0053;
},
{
glyphname = Scommaaccent;
lastChange = "2012-03-27 19:07:21 +0000";
layers = (
{
layerId = "A24B85EF-CA04-493E-A47C-A7B61068A6D7";
paths = (
{
closed = 1;
nodes = (
"147.862 714 OFFCURVE",
"73.546 636.407 OFFCURVE",
"73.546 545.679 CURVE SMOOTH",
"73.546 505.418 OFFCURVE",
"88.75 461.844 OFFCURVE",
"128.509 422.085 CURVE",
"320.063 244.189 LINE",
"347.345 216.906 OFFCURVE",
"358.245 185.018 OFFCURVE",
"358.245 148.9 CURVE SMOOTH",
"358.245 72.794 OFFCURVE",
"308.552 19.814 OFFCURVE",
"234.012 16.451 CURVE",
"140.47 16.451 OFFCURVE",
"78.109 73.889 OFFCURVE",
"78.109 160.047 CURVE",
"69.317 160.047 LINE",
"57.048 116.622 OFFCURVE",
"55.771 75.733 OFFCURVE",
"59.757 40.639 CURVE",
"96.823 2.76 OFFCURVE",
"169.632 -14 OFFCURVE",
"233.875 -14 CURVE SMOOTH",
"343.141 -13 OFFCURVE",
"415.985 62.097 OFFCURVE",
"415.985 173.728 CURVE SMOOTH",
"415.985 215.787 OFFCURVE",
"401.17 257.813 OFFCURVE",
"365.078 293.906 CURVE",
"168.571 475.809 LINE",
"139.696 504.683 OFFCURVE",
"129.015 540.187 OFFCURVE",
"129.015 570.006 CURVE SMOOTH",
"129.015 630.141 OFFCURVE",
"178.154 683.606 OFFCURVE",
"243.768 683.606 CURVE SMOOTH",
"269.336 683.606 OFFCURVE",
"297.703 679.933 OFFCURVE",
"318.475 665.242 CURVE SMOOTH",
"346.085 645.714 OFFCURVE",
"364.817 615.294 OFFCURVE",
"364.817 596.034 CURVE",
"374.446 596.034 LINE",
"374.446 691.869 LINE",
"335.696 708.807 OFFCURVE",
"291.118 714 OFFCURVE",
"237.599 714 CURVE SMOOTH"
);
},
{
closed = 1;
nodes = (
"197.99 -101 OFFCURVE",
"214.9 -115 OFFCURVE",
"225.324 -127 CURVE SMOOTH",
"239.005 -144 OFFCURVE",
"246.967 -185 OFFCURVE",
"198.326 -201 CURVE",
"200.277 -207 LINE",
"252.558 -206 OFFCURVE",
"295.62 -150 OFFCURVE",
"269.626 -88 CURVE SMOOTH",
"256.095 -56 OFFCURVE",
"217.147 -57 OFFCURVE",
"206.952 -80 CURVE SMOOTH"
);
},
{
closed = 1;
nodes = (
"297.941 703.741 LINE",
"297.941 683.478 LINE",
"374.434 683.478 LINE",
"374.434 703.741 LINE"
);
}
);
width = 472;
},
{
layerId = "29CFC173-9C98-4BE1-970A-002FF3BCF672";
paths = (
{
closed = 1;
nodes = (
"150.027 714 OFFCURVE",
"65.027 651 OFFCURVE",
"51.027 535 CURVE SMOOTH",
"39.027 440 OFFCURVE",
"82.027 362 OFFCURVE",
"173.593 319.61 CURVE SMOOTH",
"336.644 244.285 LINE SMOOTH",
"413.027 209 OFFCURVE",
"443.027 176 OFFCURVE",
"442.924 134.476 CURVE SMOOTH",
"443.027 83 OFFCURVE",
"398.027 36 OFFCURVE",
"302.027 36 CURVE SMOOTH",
"162.027 36 OFFCURVE",
"78.027 135 OFFCURVE",
"84.729 240.047 CURVE",
"75.937 240.047 LINE",
"42.704 197.21 OFFCURVE",
"21.924 99.51 OFFCURVE",
"44.377 50.639 CURVE",
"79.027 15 OFFCURVE",
"165.027 -14 OFFCURVE",
"281.027 -14 CURVE SMOOTH",
"470.027 -14 OFFCURVE",
"585.027 63 OFFCURVE",
"595.027 206 CURVE SMOOTH",
"602.027 303 OFFCURVE",
"554.027 366 OFFCURVE",
"479.639 400.221 CURVE SMOOTH",
"292.739 486.53 LINE",
"243.027 509 OFFCURVE",
"200.027 532 OFFCURVE",
"204.027 580 CURVE SMOOTH",
"208.11 628.993 OFFCURVE",
"258.027 664 OFFCURVE",
"340.027 664 CURVE SMOOTH",
"383.41 664 OFFCURVE",
"419.304 654.398 OFFCURVE",
"445.976 637.47 CURVE SMOOTH",
"480.169 615.768 OFFCURVE",
"499.206 582.025 OFFCURVE",
"499.436 541.034 CURVE",
"509.065 541.034 LINE",
"529.065 691.869 LINE",
"506.027 702 OFFCURVE",
"343.027 714 OFFCURVE",
"284.027 714 CURVE SMOOTH"
);
},
{
closed = 1;
nodes = (
"233.942 -96 OFFCURVE",
"229.627 -145 OFFCURVE",
"255.263 -174 CURVE SMOOTH",
"292.929 -216 OFFCURVE",
"268.055 -253 OFFCURVE",
"242.403 -264 CURVE",
"245.136 -273 LINE",
"330.595 -290 OFFCURVE",
"400.953 -189 OFFCURVE",
"362.576 -105 CURVE SMOOTH",
"344.809 -66 OFFCURVE",
"293.64 -52 OFFCURVE",
"261.659 -76 CURVE SMOOTH"
);
},
{
closed = 1;
nodes = (
"382.56 703.741 LINE SMOOTH",
"382.56 683.478 LINE",
"527.95 683.478 LINE",
"530.643 703.741 LINE"
);
}
);
width = 615;
}
);
leftKerningGroup = S;
leftMetricsKey = S;
rightKerningGroup = S;
rightMetricsKey = S;
unicode = 0218;
},
{
glyphname = T;
lastChange = "2012-04-26 11:30:03 +0000";
layers = (
{
anchors = (
{
name = bottom;
position = "{309.056, 0}";
},
{
name = center;
position = "{309.056, 350}";
},
{
name = top;
position = "{309.056, 764}";
}
);
layerId = "A24B85EF-CA04-493E-A47C-A7B61068A6D7";
paths = (
{
closed = 1;
nodes = (
"276.731 696.716 LINE",
"276.731 0 LINE",
"341.99 0 LINE",
"341.99 696.716 LINE"
);
},
{
closed = 1;
nodes = (
"20 701 LINE",
"20 671.02 LINE",
"598.605 671.02 LINE",
"598.605 701 LINE"
);
},
{
closed = 1;
nodes = (
"530.03 673.775 LINE",
"530.03 671.067 LINE",
"562.454 670.457 OFFCURVE",
"588.559 644.025 OFFCURVE",
"588.559 611.448 CURVE SMOOTH",
"588.54 593.624 LINE",
"598.605 593.474 LINE",
"598.605 673.775 LINE"
);
},
{
closed = 1;
nodes = (
"579.656 711.21 OFFCURVE",
"520.034 700.996 OFFCURVE",
"476.674 700.996 CURVE",
"598.605 689.918 LINE",
"598.605 719.196 LINE"
);
},
{
closed = 1;
nodes = (
"276.782 72.864 LINE",
"276.127 38.029 OFFCURVE",
"247.73 9.979 OFFCURVE",
"212.728 9.979 CURVE SMOOTH",
"212.576 9.979 OFFCURVE",
"200.235 10 OFFCURVE",
"200.078 10 CURVE",
"199.917 0 LINE",
"279.692 0 LINE",
"279.692 72.864 LINE"
);
},
{
closed = 1;
nodes = (
"339.06 0 LINE",
"418.835 0 LINE",
"418.674 10 LINE",
"418.517 10 OFFCURVE",
"406.176 9.979 OFFCURVE",
"406.024 9.979 CURVE SMOOTH",
"371.022 9.979 OFFCURVE",
"342.625 38.029 OFFCURVE",
"341.97 72.864 CURVE",
"339.06 72.864 LINE"
);
},
{
closed = 1;
nodes = (
"20 673.775 LINE",
"20 593.474 LINE",
"30.065 593.624 LINE",
"30.046 611.448 LINE SMOOTH",
"30.046 644.025 OFFCURVE",
"56.151 670.457 OFFCURVE",
"88.575 671.067 CURVE",
"88.575 673.775 LINE"
);
},
{
closed = 1;
nodes = (
"20 689.918 LINE",
"141.931 700.996 LINE",
"98.571 700.996 OFFCURVE",
"38.949 711.21 OFFCURVE",
"20 719.196 CURVE"
);
}
);
width = 618;
},
{
anchors = (
{
name = bottom;
position = "{350, 0}";
},
{
name = center;
position = "{340, 350}";
},
{
name = top;
position = "{350, 764}";
}
);
layerId = "29CFC173-9C98-4BE1-970A-002FF3BCF672";
paths = (
{
closed = 1;
nodes = (
"246.731 696.716 LINE",
"246.731 0 LINE",
"451.99 0 LINE",
"451.99 696.716 LINE"
);
},
{
closed = 1;
nodes = (
"10 701 LINE",
"10 651.02 LINE",
"688.605 651.02 LINE",
"688.605 701 LINE"
);
},
{
closed = 1;
nodes = (
"549.995 653.733 LINE",
"549.995 651.025 LINE",
"630.979 649.502 OFFCURVE",
"678.718 601.284 OFFCURVE",
"678.524 521.406 CURVE SMOOTH",
"678.505 513.582 LINE",
"688.605 513.432 LINE",
"688.605 653.733 LINE"
);
},
{
closed = 1;
nodes = (
"669.656 711.182 OFFCURVE",
"610.034 700.968 OFFCURVE",
"566.674 700.968 CURVE",
"688.605 689.89 LINE",
"688.605 719.168 LINE"
);
},
{
closed = 1;
nodes = (
"246.782 72.864 LINE",
"246.127 38.029 OFFCURVE",
"217.73 9.979 OFFCURVE",
"182.728 9.979 CURVE SMOOTH",
"182.576 9.979 OFFCURVE",
"170.235 10 OFFCURVE",
"170.078 10 CURVE",
"169.917 0 LINE",
"249.692 0 LINE",
"249.692 72.864 LINE"
);
},
{
closed = 1;
nodes = (
"449.06 0 LINE",
"528.835 0 LINE",
"528.674 10 LINE",
"528.517 10 OFFCURVE",
"516.176 9.979 OFFCURVE",
"516.024 9.979 CURVE SMOOTH",
"481.022 9.979 OFFCURVE",
"452.625 38.029 OFFCURVE",
"451.97 72.864 CURVE",
"449.06 72.864 LINE"
);
},
{
closed = 1;
nodes = (
"10 653.733 LINE",
"10 513.432 LINE",
"20.1 513.582 LINE",
"20.081 521.406 LINE SMOOTH",
"19.887 601.284 OFFCURVE",
"67.626 649.502 OFFCURVE",
"148.61 651.025 CURVE",
"148.61 653.733 LINE"
);
},
{
closed = 1;
nodes = (
"10 689.89 LINE",
"131.931 700.968 LINE",
"88.571 700.968 OFFCURVE",
"28.949 711.182 OFFCURVE",
"10 719.168 CURVE"
);
}
);
width = 698;
}
);
leftKerningGroup = T;
rightKerningGroup = T;
unicode = 0054;
},
{
glyphname = Tbar;
lastChange = "2012-04-02 18:13:04 +0000";
layers = (
{
layerId = "A24B85EF-CA04-493E-A47C-A7B61068A6D7";
paths = (
{
closed = 1;
nodes = (
"276.731 696.716 LINE",
"276.731 0 LINE",
"341.99 0 LINE",
"341.99 696.716 LINE"
);
},
{
closed = 1;
nodes = (
"20 701 LINE",
"20 671.02 LINE",
"598.605 671.02 LINE",
"598.605 701 LINE"
);
},
{
closed = 1;
nodes = (
"530.03 673.775 LINE",
"530.03 671.067 LINE",
"562.454 670.457 OFFCURVE",
"588.559 644.025 OFFCURVE",
"588.559 611.448 CURVE SMOOTH",
"588.54 593.624 LINE",
"598.605 593.474 LINE",
"598.605 673.775 LINE"
);
},
{
closed = 1;
nodes = (
"579.656 711.21 OFFCURVE",
"520.034 700.996 OFFCURVE",
"476.674 700.996 CURVE",
"598.605 689.918 LINE",
"598.605 719.196 LINE"
);
},
{
closed = 1;
nodes = (
"276.782 72.864 LINE",
"276.127 38.029 OFFCURVE",
"247.73 9.979 OFFCURVE",
"212.728 9.979 CURVE SMOOTH",
"212.576 9.979 OFFCURVE",
"200.235 10 OFFCURVE",
"200.078 10 CURVE",
"199.917 0 LINE",
"279.692 0 LINE",
"279.692 72.864 LINE"
);
},
{
closed = 1;
nodes = (
"339.06 0 LINE",
"418.835 0 LINE",
"418.674 10 LINE",
"418.517 10 OFFCURVE",
"406.176 9.979 OFFCURVE",
"406.024 9.979 CURVE SMOOTH",
"371.022 9.979 OFFCURVE",
"342.625 38.029 OFFCURVE",
"341.97 72.864 CURVE",
"339.06 72.864 LINE"
);
},
{
closed = 1;
nodes = (
"20 673.775 LINE",
"20 593.474 LINE",
"30.065 593.624 LINE",
"30.046 611.448 LINE SMOOTH",
"30.046 644.025 OFFCURVE",
"56.151 670.457 OFFCURVE",
"88.575 671.067 CURVE",
"88.575 673.775 LINE"
);
},
{
closed = 1;
nodes = (
"20 689.918 LINE",
"141.931 700.996 LINE",
"98.571 700.996 OFFCURVE",
"38.949 711.21 OFFCURVE",
"20 719.196 CURVE"
);
},
{
closed = 1;
nodes = (
"116.268 401.058 LINE",
"116.268 371.058 LINE",
"504.012 371.058 LINE",
"504.012 401.058 LINE"
);
}
);
width = 618;
},
{
layerId = "29CFC173-9C98-4BE1-970A-002FF3BCF672";
paths = (
{
closed = 1;
nodes = (
"246.731 696.716 LINE",
"246.731 0 LINE",
"451.99 0 LINE",
"451.99 696.716 LINE"
);
},
{
closed = 1;
nodes = (
"10 701 LINE",
"10 651.02 LINE",
"688.605 651.02 LINE",
"688.605 701 LINE"
);
},
{
closed = 1;
nodes = (
"549.995 653.733 LINE",
"549.995 651.025 LINE",
"630.979 649.502 OFFCURVE",
"678.718 601.284 OFFCURVE",
"678.524 521.406 CURVE SMOOTH",
"678.505 513.582 LINE",
"688.605 513.432 LINE",
"688.605 653.733 LINE"
);
},
{
closed = 1;
nodes = (
"669.656 711.182 OFFCURVE",
"610.034 700.968 OFFCURVE",
"566.674 700.968 CURVE",
"688.605 689.89 LINE",
"688.605 719.168 LINE"
);
},
{
closed = 1;
nodes = (
"246.782 72.864 LINE",
"246.127 38.029 OFFCURVE",
"217.73 9.979 OFFCURVE",
"182.728 9.979 CURVE SMOOTH",
"182.576 9.979 OFFCURVE",
"170.235 10 OFFCURVE",
"170.078 10 CURVE",
"169.917 0 LINE",
"249.692 0 LINE",
"249.692 72.864 LINE"
);
},
{
closed = 1;
nodes = (
"449.06 0 LINE",
"528.835 0 LINE",
"528.674 10 LINE",
"528.517 10 OFFCURVE",
"516.176 9.979 OFFCURVE",
"516.024 9.979 CURVE SMOOTH",
"481.022 9.979 OFFCURVE",
"452.625 38.029 OFFCURVE",
"451.97 72.864 CURVE",
"449.06 72.864 LINE"
);
},
{
closed = 1;
nodes = (
"10 653.733 LINE",
"10 513.432 LINE",
"20.1 513.582 LINE",
"20.081 521.406 LINE SMOOTH",
"19.887 601.284 OFFCURVE",
"67.626 649.502 OFFCURVE",
"148.61 651.025 CURVE",
"148.61 653.733 LINE"
);
},
{
closed = 1;
nodes = (
"10 689.89 LINE",
"131.931 700.968 LINE",
"88.571 700.968 OFFCURVE",
"28.949 711.182 OFFCURVE",
"10 719.168 CURVE"
);
},
{
closed = 1;
nodes = (
"96.268 403.358 LINE",
"96.268 353.358 LINE",
"602.012 353.358 LINE",
"602.012 403.358 LINE"
);
}
);
width = 698;
}
);
leftKerningGroup = T;
leftMetricsKey = T;
rightKerningGroup = T;
rightMetricsKey = T;
unicode = 0166;
},
{
glyphname = Tcommaaccent;
lastChange = "2012-03-27 19:14:26 +0000";
layers = (
{
layerId = "A24B85EF-CA04-493E-A47C-A7B61068A6D7";
paths = (
{
closed = 1;
nodes = (
"272.818 -101 OFFCURVE",
"289.728 -115 OFFCURVE",
"300.152 -128 CURVE SMOOTH",
"313.833 -144 OFFCURVE",
"321.794 -186 OFFCURVE",
"273.154 -201 CURVE",
"275.105 -208 LINE",
"327.386 -206 OFFCURVE",
"370.448 -151 OFFCURVE",
"344.454 -89 CURVE SMOOTH",
"330.923 -56 OFFCURVE",
"291.975 -58 OFFCURVE",
"281.78 -81 CURVE SMOOTH"
);
},
{
closed = 1;
nodes = (
"276.731 696.716 LINE",
"276.731 0 LINE",
"341.99 0 LINE",
"341.99 696.716 LINE"
);
},
{
closed = 1;
nodes = (
"20 701 LINE",
"20 671.02 LINE",
"598.605 671.02 LINE",
"598.605 701 LINE"
);
},
{
closed = 1;
nodes = (
"530.03 673.775 LINE",
"530.03 671.067 LINE",
"562.454 670.457 OFFCURVE",
"588.559 644.025 OFFCURVE",
"588.559 611.448 CURVE SMOOTH",
"588.54 593.624 LINE",
"598.605 593.474 LINE",
"598.605 673.775 LINE"
);
},
{
closed = 1;
nodes = (
"579.656 711.21 OFFCURVE",
"520.034 700.996 OFFCURVE",
"476.674 700.996 CURVE",
"598.605 689.918 LINE",
"598.605 719.196 LINE"
);
},
{
closed = 1;
nodes = (
"276.782 72.864 LINE",
"276.127 38.029 OFFCURVE",
"247.73 9.979 OFFCURVE",
"212.728 9.979 CURVE SMOOTH",
"212.576 9.979 OFFCURVE",
"200.235 10 OFFCURVE",
"200.078 10 CURVE",
"199.917 0 LINE",
"279.692 0 LINE",
"279.692 72.864 LINE"
);
},
{
closed = 1;
nodes = (
"339.06 0 LINE",
"418.835 0 LINE",
"418.674 10 LINE",
"418.517 10 OFFCURVE",
"406.176 9.979 OFFCURVE",
"406.024 9.979 CURVE SMOOTH",
"371.022 9.979 OFFCURVE",
"342.625 38.029 OFFCURVE",
"341.97 72.864 CURVE",
"339.06 72.864 LINE"
);
},
{
closed = 1;
nodes = (
"20 673.775 LINE",
"20 593.474 LINE",
"30.065 593.624 LINE",
"30.046 611.448 LINE SMOOTH",
"30.046 644.025 OFFCURVE",
"56.151 670.457 OFFCURVE",
"88.575 671.067 CURVE",
"88.575 673.775 LINE"
);
},
{
closed = 1;
nodes = (
"20 689.918 LINE",
"141.931 700.996 LINE",
"98.571 700.996 OFFCURVE",
"38.949 711.21 OFFCURVE",
"20 719.196 CURVE"
);
}
);
width = 618;
},
{
layerId = "29CFC173-9C98-4BE1-970A-002FF3BCF672";
paths = (
{
closed = 1;
nodes = (
"280.14 -96 OFFCURVE",
"275.824 -145 OFFCURVE",
"301.461 -174 CURVE SMOOTH",
"339.127 -216 OFFCURVE",
"314.253 -253 OFFCURVE",
"288.601 -264 CURVE",
"291.334 -273 LINE",
"376.793 -290 OFFCURVE",
"447.151 -189 OFFCURVE",
"408.774 -105 CURVE SMOOTH",
"391.007 -66 OFFCURVE",
"339.838 -52 OFFCURVE",
"307.857 -76 CURVE SMOOTH"
);
},
{
closed = 1;
nodes = (
"246.731 696.716 LINE",
"246.731 0 LINE",
"451.99 0 LINE",
"451.99 696.716 LINE"
);
},
{
closed = 1;
nodes = (
"10 701 LINE",
"10 651.02 LINE",
"688.605 651.02 LINE",
"688.605 701 LINE"
);
},
{
closed = 1;
nodes = (
"549.995 653.733 LINE",
"549.995 651.025 LINE",
"630.979 649.502 OFFCURVE",
"678.718 601.284 OFFCURVE",
"678.524 521.406 CURVE SMOOTH",
"678.505 513.582 LINE",
"688.605 513.432 LINE",
"688.605 653.733 LINE"
);
},
{
closed = 1;
nodes = (
"669.656 711.182 OFFCURVE",
"610.034 700.968 OFFCURVE",
"566.674 700.968 CURVE",
"688.605 689.89 LINE",
"688.605 719.168 LINE"
);
},
{
closed = 1;
nodes = (
"246.782 72.864 LINE",
"246.127 38.029 OFFCURVE",
"217.73 9.979 OFFCURVE",
"182.728 9.979 CURVE SMOOTH",
"182.576 9.979 OFFCURVE",
"170.235 10 OFFCURVE",
"170.078 10 CURVE",
"169.917 0 LINE",
"249.692 0 LINE",
"249.692 72.864 LINE"
);
},
{
closed = 1;
nodes = (
"449.06 0 LINE",
"528.835 0 LINE",
"528.674 10 LINE",
"528.517 10 OFFCURVE",
"516.176 9.979 OFFCURVE",
"516.024 9.979 CURVE SMOOTH",
"481.022 9.979 OFFCURVE",
"452.625 38.029 OFFCURVE",
"451.97 72.864 CURVE",
"449.06 72.864 LINE"
);
},
{
closed = 1;
nodes = (
"10 653.733 LINE",
"10 513.432 LINE",
"20.1 513.582 LINE",
"20.081 521.406 LINE SMOOTH",
"19.887 601.284 OFFCURVE",
"67.626 649.502 OFFCURVE",
"148.61 651.025 CURVE",
"148.61 653.733 LINE"
);
},
{
closed = 1;
nodes = (
"10 689.89 LINE",
"131.931 700.968 LINE",
"88.571 700.968 OFFCURVE",
"28.949 711.182 OFFCURVE",
"10 719.168 CURVE"
);
}
);
width = 698;
}
);
leftKerningGroup = T;
leftMetricsKey = T;
rightKerningGroup = T;
rightMetricsKey = T;
unicode = 021A;
},
{
glyphname = U;
lastChange = "2012-04-11 23:48:10 +0000";
layers = (
{
anchors = (
{
name = ogonek;
position = "{396.423, -7}";
},
{
name = top;
position = "{401.641, 764}";
}
);
layerId = "A24B85EF-CA04-493E-A47C-A7B61068A6D7";
paths = (
{
closed = 1;
nodes = (
"119.191 700 LINE",
"119.097 245.596 LINE SMOOTH",
"119.097 89.838 OFFCURVE",
"230.028 -14 OFFCURVE",
"396.423 -14 CURVE SMOOTH",
"558.153 -14 OFFCURVE",
"665.973 90.536 OFFCURVE",
"665.973 247.34 CURVE SMOOTH",
"666.008 699.976 LINE",
"619.334 699.976 LINE",
"619.069 247.399 LINE SMOOTH",
"619.069 109.457 OFFCURVE",
"530.011 17.495 OFFCURVE",
"396.423 17.495 CURVE SMOOTH",
"269.022 17.495 OFFCURVE",
"184.088 114.614 OFFCURVE",
"184.088 260.292 CURVE",
"183.985 700 LINE SMOOTH"
);
},
{
closed = 1;
nodes = (
"50 700 LINE",
"50 690 LINE",
"50.129 690 OFFCURVE",
"66.167 690.017 OFFCURVE",
"66.294 690.017 CURVE SMOOTH",
"95.183 690.017 OFFCURVE",
"118.619 669.255 OFFCURVE",
"119.161 640.499 CURVE",
"121.564 640.499 LINE",
"121.564 700 LINE"
);
},
{
closed = 1;
nodes = (
"181.547 700 LINE",
"181.547 640.499 LINE",
"183.949 640.499 LINE",
"184.491 669.255 OFFCURVE",
"207.928 690.017 OFFCURVE",
"236.814 690.017 CURVE SMOOTH",
"236.943 690.017 OFFCURVE",
"252.982 690 OFFCURVE",
"253.11 690 CURVE",
"253.11 700 LINE"
);
},
{
closed = 1;
nodes = (
"550.182 700 LINE",
"550.182 690 LINE",
"550.312 690 OFFCURVE",
"566.35 690.017 OFFCURVE",
"566.477 690.017 CURVE SMOOTH",
"595.366 690.017 OFFCURVE",
"618.802 669.255 OFFCURVE",
"619.344 640.499 CURVE",
"621.746 640.499 LINE",
"621.746 700 LINE"
);
},
{
closed = 1;
nodes = (
"663.509 700 LINE",
"663.509 640.499 LINE",
"665.911 640.499 LINE",
"666.453 669.255 OFFCURVE",
"689.891 690.017 OFFCURVE",
"718.777 690.017 CURVE SMOOTH",
"718.906 690.017 OFFCURVE",
"734.944 690 OFFCURVE",
"735.073 690 CURVE",
"735.073 700 LINE"
);
}
);
width = 785;
},
{
anchors = (
{
name = ogonek;
position = "{443.423, -8}";
},
{
name = top;
position = "{482.994, 764}";
}
);
layerId = "29CFC173-9C98-4BE1-970A-002FF3BCF672";
paths = (
{
closed = 1;
nodes = (
"99.191 700 LINE",
"99.097 255.596 LINE SMOOTH",
"99.061 87.587 OFFCURVE",
"211.363 -14 OFFCURVE",
"456.423 -14 CURVE SMOOTH",
"648.114 -14 OFFCURVE",
"755.96 88.135 OFFCURVE",
"755.973 257.34 CURVE SMOOTH",
"756.008 699.976 LINE",
"669.334 699.976 LINE",
"669.069 247.399 LINE SMOOTH",
"668.992 115.459 OFFCURVE",
"601.152 37.495 OFFCURVE",
"486.423 37.495 CURVE SMOOTH",
"371.812 37.495 OFFCURVE",
"304.088 120.248 OFFCURVE",
"304.088 260.292 CURVE",
"303.985 700 LINE SMOOTH"
);
},
{
closed = 1;
nodes = (
"30 700 LINE",
"30 690 LINE",
"30.129 690 OFFCURVE",
"46.167 690.017 OFFCURVE",
"46.295 690.017 CURVE SMOOTH",
"75.183 690.017 OFFCURVE",
"98.619 669.255 OFFCURVE",
"99.161 640.499 CURVE",
"101.564 640.499 LINE",
"101.564 700 LINE"
);
},
{
closed = 1;
nodes = (
"301.547 700 LINE",
"301.547 640.499 LINE",
"303.949 640.499 LINE",
"304.491 669.255 OFFCURVE",
"327.928 690.017 OFFCURVE",
"356.814 690.017 CURVE SMOOTH",
"356.943 690.017 OFFCURVE",
"372.982 690 OFFCURVE",
"373.11 690 CURVE",
"373.11 700 LINE"
);
},
{
closed = 1;
nodes = (
"600.182 700 LINE",
"600.182 690 LINE",
"600.312 690 OFFCURVE",
"616.35 690.017 OFFCURVE",
"616.477 690.017 CURVE SMOOTH",
"645.366 690.017 OFFCURVE",
"668.802 669.255 OFFCURVE",
"669.344 640.499 CURVE",
"671.746 640.499 LINE",
"671.746 700 LINE"
);
},
{
closed = 1;
nodes = (
"753.509 700 LINE",
"753.509 640.499 LINE",
"755.911 640.499 LINE",
"756.453 669.255 OFFCURVE",
"779.891 690.017 OFFCURVE",
"808.777 690.017 CURVE SMOOTH",
"808.906 690.017 OFFCURVE",
"824.944 690 OFFCURVE",
"825.073 690 CURVE",
"825.073 700 LINE"
);
}
);
width = 845;
}
);
leftKerningGroup = U;
rightKerningGroup = U;
unicode = 0055;
},
{
glyphname = V;
lastChange = "2012-04-26 11:33:04 +0000";
layers = (
{
layerId = "A24B85EF-CA04-493E-A47C-A7B61068A6D7";
paths = (
{
closed = 1;
nodes = (
"387.28 81 LINE",
"142.107 694 LINE",
"57.047 694 LINE",
"367.266 -14 LINE"
);
},
{
closed = 1;
nodes = (
"376.272 -14 LINE",
"376.272 7.987 OFFCURVE",
"413.298 89 OFFCURVE",
"413.298 89 CURVE",
"684.49 697 LINE",
"624.447 697 LINE",
"358.26 56 LINE",
"367.266 -14 LINE"
);
},
{
closed = 1;
nodes = (
"653.415 627.351 LINE",
"673.626 671.9 OFFCURVE",
"710.704 690.059 OFFCURVE",
"741.351 690.059 CURVE SMOOTH",
"741.351 690.059 OFFCURVE",
"750.142 690.059 OFFCURVE",
"750.142 690.059 CURVE",
"750.142 700.059 LINE",
"548.864 700.154 LINE",
"548.864 690.154 LINE",
"557.656 690.154 LINE SMOOTH",
"583.473 690.154 OFFCURVE",
"610.258 667.7 OFFCURVE",
"595.656 627.682 CURVE"
);
},
{
closed = 1;
nodes = (
"154.026 667.7 OFFCURVE",
"180.572 690.154 OFFCURVE",
"206.388 690.154 CURVE SMOOTH",
"215.18 690.154 LINE",
"215.18 700.154 LINE",
"-10 700.059 LINE",
"-10 690.059 LINE",
"-10 690.059 OFFCURVE",
"-2 690.059 OFFCURVE",
"-2 690.059 CURVE SMOOTH",
"29.01 690.059 OFFCURVE",
"66.02 671.9 OFFCURVE",
"86.232 627.351 CURVE",
"168.628 627.683 LINE"
);
}
);
width = 740;
},
{
layerId = "29CFC173-9C98-4BE1-970A-002FF3BCF672";
paths = (
{
closed = 1;
nodes = (
"456.869 232 LINE",
"263.806 693.905 LINE",
"23.746 693.905 LINE",
"368.965 -24 LINE SMOOTH"
);
},
{
closed = 1;
nodes = (
"377.971 -24 LINE",
"381.971 9.717 OFFCURVE",
"423.267 100.078 OFFCURVE",
"435.018 125.133 CURVE",
"696.189 696.905 LINE",
"615.146 696.905 LINE",
"369.079 132.457 LINE",
"368.965 -24 LINE"
);
},
{
closed = 1;
nodes = (
"663.679 626.987 LINE",
"684.891 671.536 OFFCURVE",
"721.379 690 OFFCURVE",
"751.379 690 CURVE SMOOTH",
"751.379 690 OFFCURVE",
"760.379 690 OFFCURVE",
"760.379 690 CURVE",
"760.379 700 LINE",
"537.1 700 LINE",
"537.1 690.092 LINE",
"545.892 690.092 LINE SMOOTH",
"571.709 690.092 OFFCURVE",
"601.889 667.336 OFFCURVE",
"584.287 627.319 CURVE"
);
},
{
closed = 1;
nodes = (
"277.634 667.336 OFFCURVE",
"304.564 690.089 OFFCURVE",
"330.38 690.089 CURVE SMOOTH",
"339.172 690.089 LINE",
"339.172 700 LINE",
"-40 700 LINE",
"-40 690 LINE",
"-40 690 OFFCURVE",
"-32 690 OFFCURVE",
"-32 690 CURVE SMOOTH",
"-1 690 OFFCURVE",
"34.135 671.536 OFFCURVE",
"56.347 626.987 CURVE",
"292.236 627.319 LINE"
);
}
);
width = 720;
}
);
leftKerningGroup = V;
rightKerningGroup = V;
unicode = 0056;
},
{
glyphname = W;
lastChange = "2012-04-26 11:25:52 +0000";
layers = (
{
anchors = (
{
name = top;
position = "{506.871, 764}";
}
);
layerId = "A24B85EF-CA04-493E-A47C-A7B61068A6D7";
paths = (
{
closed = 1;
nodes = (
"312.596 -12 LINE",
"329.644 96.962 LINE",
"144.099 693.934 LINE",
"62.662 693.96 LINE"
);
},
{
closed = 1;
nodes = (
"501.869 715.642 LINE",
"294.518 76.784 LINE",
"312.596 -12 LINE",
"322.032 -12 LINE",
"323.678 37.149 OFFCURVE",
"342.993 99.156 OFFCURVE",
"342.993 99.156 CURVE",
"519.16 634.818 LINE",
"510.991 715.642 LINE"
);
},
{
closed = 1;
nodes = (
"477.49 607.38 LINE",
"698.988 -12 LINE",
"721.446 125.554 LINE",
"511.182 715.321 LINE"
);
},
{
closed = 1;
nodes = (
"860.549 694.217 LINE",
"686.885 86.933 LINE",
"698.988 -12 LINE",
"708.424 -12 LINE",
"709.955 35.624 OFFCURVE",
"730.285 99.156 OFFCURVE",
"730.285 99.156 CURVE",
"916.59 694.217 LINE"
);
},
{
closed = 1;
nodes = (
"895.685 627.5 LINE",
"910.896 672.049 OFFCURVE",
"952.974 690 OFFCURVE",
"983.621 690 CURVE SMOOTH",
"983.621 690 OFFCURVE",
"992.412 690 OFFCURVE",
"992.412 690 CURVE",
"992.412 700 LINE",
"794.803 700 LINE",
"794.803 690.093 LINE",
"803.595 690.093 LINE SMOOTH",
"831.412 690.093 OFFCURVE",
"853.197 667.849 OFFCURVE",
"841.595 627.831 CURVE"
);
},
{
closed = 1;
nodes = (
"152.138 667.528 OFFCURVE",
"177.626 690.086 OFFCURVE",
"203.442 690.086 CURVE SMOOTH",
"212.234 690.086 LINE",
"212.234 700 LINE",
"-10 700 LINE",
"-10 690 LINE",
"-10 690 OFFCURVE",
"-2 690 OFFCURVE",
"-2 690 CURVE SMOOTH",
"28.994 690 OFFCURVE",
"70.004 672.059 OFFCURVE",
"86.216 627.51 CURVE",
"164.74 627.51 LINE"
);
}
);
width = 982;
},
{
anchors = (
{
name = top;
position = "{543.309, 764}";
}
);
guideLines = (
{
position = "{487.595, 369.67}";
}
);
layerId = "29CFC173-9C98-4BE1-970A-002FF3BCF672";
paths = (
{
closed = 1;
nodes = (
"290.728 -22 LINE",
"379.851 336.447 LINE",
"236.231 693.934 LINE",
"20.794 693.96 LINE"
);
},
{
closed = 1;
nodes = (
"545 715.642 LINE",
"256.65 115.784 LINE",
"290.728 -22 LINE",
"300.164 -22 LINE",
"300.81 33.149 OFFCURVE",
"327.125 89.156 OFFCURVE",
"327.125 89.156 CURVE",
"579.292 604.818 LINE",
"554.123 715.642 LINE"
);
},
{
closed = 1;
nodes = (
"462.242 456.429 LINE",
"716.12 -22 LINE",
"781.118 295.908 LINE",
"554.314 715.321 LINE"
);
},
{
closed = 1;
nodes = (
"851.681 694.217 LINE",
"677.017 76.933 LINE",
"716.12 -22 LINE",
"725.556 -22 LINE",
"720.087 27.624 OFFCURVE",
"740.417 89.156 OFFCURVE",
"740.417 89.156 CURVE",
"928.722 694.217 LINE"
);
},
{
closed = 1;
nodes = (
"907.686 627.5 LINE",
"921.897 672.049 OFFCURVE",
"964.975 690 OFFCURVE",
"995.62 690 CURVE SMOOTH",
"995.62 690 OFFCURVE",
"1004.41 690 OFFCURVE",
"1004.41 690 CURVE",
"1004.41 700 LINE",
"785.804 700 LINE",
"785.804 690.093 LINE",
"794.596 690.093 LINE SMOOTH",
"822.413 690.093 OFFCURVE",
"843.198 667.849 OFFCURVE",
"832.596 627.831 CURVE"
);
},
{
closed = 1;
nodes = (
"248.277 667.528 OFFCURVE",
"274.501 690.086 OFFCURVE",
"300.317 690.086 CURVE SMOOTH",
"309.109 690.086 LINE",
"309.109 700 LINE",
"-50 700 LINE",
"-50 690 LINE",
"-50 690 OFFCURVE",
"-42 690 OFFCURVE",
"-42 690 CURVE SMOOTH",
"-11 690 OFFCURVE",
"28.004 672.059 OFFCURVE",
"46.216 627.51 CURVE",
"262.879 627.51 LINE"
);
}
);
width = 964;
}
);
leftKerningGroup = W;
rightKerningGroup = W;
unicode = 0057;
},
{
glyphname = X;
lastChange = "2012-04-12 11:46:55 +0000";
layers = (
{
layerId = "A24B85EF-CA04-493E-A47C-A7B61068A6D7";
paths = (
{
closed = 1;
nodes = (
"78.058 699.976 LINE",
"521.034 1 LINE",
"601.029 1 LINE",
"156.053 699.976 LINE"
);
},
{
closed = 1;
nodes = (
"105.648 68.943 LINE",
"84.371 38.071 OFFCURVE",
"45.851 10 OFFCURVE",
"3.854 10 CURVE SMOOTH",
"-10 10 LINE",
"-10 0.145 LINE",
"216.802 0.145 LINE",
"216.802 10 LINE",
"216.802 10 OFFCURVE",
"204.202 10 OFFCURVE",
"204.202 10 CURVE SMOOTH",
"176.928 10 OFFCURVE",
"151.472 43.838 OFFCURVE",
"169.205 72.224 CURVE"
);
},
{
closed = 1;
nodes = (
"60.059 1 LINE",
"124.055 1 LINE",
"332.044 329 LINE",
"309.045 371.999 LINE"
);
},
{
closed = 1;
nodes = (
"493.073 43.192 OFFCURVE",
"468.616 10 OFFCURVE",
"441.343 10 CURVE SMOOTH",
"441.343 10 OFFCURVE",
"428.744 10 OFFCURVE",
"428.744 10 CURVE",
"428.744 0 LINE",
"672.581 0 LINE",
"672.581 10 LINE",
"658.949 10 LINE SMOOTH",
"616.951 10 OFFCURVE",
"579.432 37.454 OFFCURVE",
"558.154 68.326 CURVE",
"476.341 71.578 LINE"
);
},
{
closed = 1;
nodes = (
"6.808 700 LINE",
"6.808 690.034 LINE",
"20.808 690.034 LINE SMOOTH",
"62.805 690.034 OFFCURVE",
"100.325 662.076 OFFCURVE",
"121.602 631.204 CURVE",
"201.829 627.952 LINE",
"185.098 656.338 OFFCURVE",
"209.554 690.034 OFFCURVE",
"236.828 690.034 CURVE SMOOTH",
"236.828 690.034 OFFCURVE",
"249.426 690.034 OFFCURVE",
"249.426 690.034 CURVE",
"249.426 700 LINE"
);
},
{
closed = 1;
nodes = (
"521.034 699.981 LINE",
"317.045 377.999 LINE",
"351.043 354 LINE",
"586.03 699.981 LINE"
);
},
{
closed = 1;
nodes = (
"428.642 700.017 LINE",
"428.642 689.993 LINE",
"428.642 689.993 OFFCURVE",
"441.242 689.993 OFFCURVE",
"441.242 689.993 CURVE SMOOTH",
"468.515 689.993 OFFCURVE",
"492.035 656.326 OFFCURVE",
"475.302 627.94 CURVE",
"539.33 631.221 LINE",
"560.607 662.093 OFFCURVE",
"598.127 689.993 OFFCURVE",
"640.124 689.993 CURVE SMOOTH",
"654.124 689.993 LINE",
"654.124 700.017 LINE"
);
}
);
width = 662;
},
{
layerId = "29CFC173-9C98-4BE1-970A-002FF3BCF672";
paths = (
{
closed = 1;
nodes = (
"43.498 699.976 LINE",
"498.674 1 LINE",
"738.669 1 LINE",
"281.492 699.976 LINE"
);
},
{
closed = 1;
nodes = (
"81.102 68.796 LINE",
"57.364 37.924 OFFCURVE",
"22.934 10.024 OFFCURVE",
"-19 10.024 CURVE SMOOTH",
"-33 10.024 LINE",
"-33 0 LINE",
"227.04 0 LINE",
"226.865 10.024 LINE",
"226.865 10.024 OFFCURVE",
"214.265 10.024 OFFCURVE",
"214.265 10.024 CURVE SMOOTH",
"186.992 10.024 OFFCURVE",
"159.885 43.691 OFFCURVE",
"179.122 72.077 CURVE"
);
},
{
closed = 1;
nodes = (
"30.657 0.036 LINE",
"128.147 0.036 LINE",
"355.526 321.407 LINE",
"290.935 355.406 LINE"
);
},
{
closed = 1;
nodes = (
"469.932 43.192 OFFCURVE",
"446.055 10 OFFCURVE",
"418.782 10 CURVE SMOOTH",
"418.782 10 OFFCURVE",
"406.183 10 OFFCURVE",
"406.183 10 CURVE",
"406.357 0 LINE",
"810.259 0 LINE",
"810.085 10 LINE",
"796.453 10 LINE SMOOTH",
"754.455 10 OFFCURVE",
"715.456 37.454 OFFCURVE",
"694.64 68.326 CURVE",
"452.705 71.578 LINE"
);
},
{
closed = 1;
nodes = (
"-27 700 LINE",
"-27 690.034 LINE",
"-13 690.034 LINE SMOOTH",
"28.662 690.034 OFFCURVE",
"67.475 662.076 OFFCURVE",
"88.291 631.204 CURVE",
"328.592 627.952 LINE",
"311.366 656.338 OFFCURVE",
"335.234 690.034 OFFCURVE",
"362.508 690.034 CURVE SMOOTH",
"362.508 690.034 OFFCURVE",
"375.106 690.034 OFFCURVE",
"375.106 690.034 CURVE",
"374.932 700 LINE"
);
},
{
closed = 1;
nodes = (
"604.473 699.981 LINE",
"410.177 396.692 LINE",
"455.292 332.693 LINE",
"701.469 699.981 LINE"
);
},
{
closed = 1;
nodes = (
"510.409 700.017 LINE",
"510.584 689.993 LINE",
"510.584 689.993 OFFCURVE",
"523.185 689.993 OFFCURVE",
"523.185 689.993 CURVE SMOOTH",
"550.458 689.993 OFFCURVE",
"575.566 656.326 OFFCURVE",
"558.329 627.94 CURVE",
"655.368 631.221 LINE",
"677.106 662.093 OFFCURVE",
"713.139 689.993 OFFCURVE",
"755.136 689.993 CURVE SMOOTH",
"769.136 689.993 LINE",
"768.961 700.017 LINE"
);
}
);
width = 773;
}
);
leftKerningGroup = X;
rightKerningGroup = X;
unicode = 0058;
},
{
glyphname = Y;
lastChange = "2012-04-26 11:26:11 +0000";
layers = (
{
anchors = (
{
name = top;
position = "{340.112, 764}";
}
);
layerId = "A24B85EF-CA04-493E-A47C-A7B61068A6D7";
paths = (
{
closed = 1;
nodes = (
"63.863 699 LINE",
"302.866 299.429 LINE",
"345.938 333.559 LINE",
"150.266 699 LINE"
);
},
{
closed = 1;
nodes = (
"294.572 322.282 LINE",
"294.572 0 LINE",
"359.59 0 LINE",
"359.59 322.282 LINE"
);
},
{
closed = 1;
nodes = (
"317.393 311.642 LINE",
"352.564 300.938 LINE",
"598.831 699 LINE",
"537.922 699 LINE"
);
},
{
closed = 1;
nodes = (
"556.846 631.221 LINE",
"578.123 662.093 OFFCURVE",
"615.643 689.993 OFFCURVE",
"657.64 689.993 CURVE SMOOTH",
"671.64 689.993 LINE",
"671.64 700.017 LINE",
"449.868 700.017 LINE",
"449.868 689.993 LINE",
"449.868 689.993 OFFCURVE",
"462.468 689.993 OFFCURVE",
"462.468 689.993 CURVE SMOOTH",
"489.742 689.993 OFFCURVE",
"514.198 656.326 OFFCURVE",
"497.465 627.94 CURVE"
);
},
{
closed = 1;
nodes = (
"173.594 656.338 OFFCURVE",
"194.051 690.034 OFFCURVE",
"223.324 690.034 CURVE SMOOTH",
"223.324 690.034 OFFCURVE",
"235.923 690.034 OFFCURVE",
"235.923 690.034 CURVE",
"235.923 700 LINE",
"-10 700 LINE",
"-10 690.034 LINE",
"3.632 690.034 LINE SMOOTH",
"45.63 690.034 OFFCURVE",
"85.149 662.076 OFFCURVE",
"104.427 631.204 CURVE",
"188.326 627.952 LINE"
);
},
{
closed = 1;
nodes = (
"294.586 72.864 LINE",
"293.931 38.029 OFFCURVE",
"265.534 9.979 OFFCURVE",
"230.532 9.979 CURVE SMOOTH",
"230.38 9.979 OFFCURVE",
"218.039 10 OFFCURVE",
"217.882 10 CURVE",
"217.721 0 LINE",
"297.496 0 LINE",
"297.496 72.864 LINE"
);
},
{
closed = 1;
nodes = (
"356.693 0 LINE",
"436.468 0 LINE",
"436.307 10 LINE",
"436.15 10 OFFCURVE",
"423.809 9.979 OFFCURVE",
"423.657 9.979 CURVE SMOOTH",
"388.655 9.979 OFFCURVE",
"360.258 38.029 OFFCURVE",
"359.603 72.864 CURVE",
"356.693 72.864 LINE"
);
}
);
width = 661;
},
{
anchors = (
{
name = top;
position = "{435.006, 764}";
}
);
layerId = "29CFC173-9C98-4BE1-970A-002FF3BCF672";
paths = (
{
closed = 1;
nodes = (
"27.869 699 LINE",
"258.578 322.282 LINE",
"463.596 322.282 LINE",
"254.272 699 LINE"
);
},
{
closed = 1;
nodes = (
"258.578 322.282 LINE",
"258.578 0 LINE",
"463.596 0 LINE",
"463.596 322.282 LINE"
);
},
{
closed = 1;
nodes = (
"391.399 311.642 LINE",
"451.394 302.513 LINE",
"702.837 699 LINE",
"613.928 699 LINE"
);
},
{
closed = 1;
nodes = (
"659.863 631.221 LINE",
"680.14 662.093 OFFCURVE",
"718.66 689.993 OFFCURVE",
"760.657 689.993 CURVE SMOOTH",
"774.657 689.993 LINE",
"774.657 700.017 LINE",
"525.512 700.017 LINE",
"525.512 689.993 LINE",
"525.512 689.993 OFFCURVE",
"538.112 689.993 OFFCURVE",
"538.112 689.993 CURVE SMOOTH",
"565.386 689.993 OFFCURVE",
"588.842 656.326 OFFCURVE",
"573.109 627.94 CURVE"
);
},
{
closed = 1;
nodes = (
"279.01 656.338 OFFCURVE",
"299.467 690.034 OFFCURVE",
"328.74 690.034 CURVE SMOOTH",
"328.74 690.034 OFFCURVE",
"341.339 690.034 OFFCURVE",
"341.339 690.034 CURVE",
"341.339 700 LINE",
"-45 700 LINE",
"-45 690.034 LINE",
"-31 690.034 LINE SMOOTH",
"10.63 690.034 OFFCURVE",
"50.149 662.076 OFFCURVE",
"69.427 631.204 CURVE",
"293.742 627.952 LINE"
);
},
{
closed = 1;
nodes = (
"258.592 72.864 LINE",
"257.937 38.029 OFFCURVE",
"229.54 9.979 OFFCURVE",
"194.538 9.979 CURVE SMOOTH",
"194.386 9.979 OFFCURVE",
"182.045 10 OFFCURVE",
"181.888 10 CURVE",
"181.727 0 LINE",
"261.502 0 LINE",
"261.502 72.864 LINE"
);
},
{
closed = 1;
nodes = (
"460.699 0 LINE",
"540.474 0 LINE",
"540.313 10 LINE",
"540.156 10 OFFCURVE",
"527.815 9.979 OFFCURVE",
"527.663 9.979 CURVE SMOOTH",
"492.661 9.979 OFFCURVE",
"464.264 38.029 OFFCURVE",
"463.609 72.864 CURVE",
"460.699 72.864 LINE"
);
}
);
width = 729;
}
);
leftKerningGroup = Y;
rightKerningGroup = Y;
unicode = 0059;
},
{
glyphname = Z;
lastChange = "2012-04-12 11:36:33 +0000";
layers = (
{
anchors = (
{
name = top;
position = "{324, 764}";
}
);
layerId = "A24B85EF-CA04-493E-A47C-A7B61068A6D7";
paths = (
{
closed = 1;
nodes = (
"567.791 707.817 OFFCURVE",
"513.843 701.098 OFFCURVE",
"473.627 701.098 CURVE",
"74.348 700.737 LINE",
"74.348 670.856 LINE",
"480.247 670.855 LINE",
"60.184 9.322 LINE",
"60 0 LINE",
"133.584 0 LINE",
"579.594 705.328 LINE",
"579.594 705.33 OFFCURVE",
"579.594 714 OFFCURVE",
"579.594 714 CURVE"
);
},
{
closed = 1;
nodes = (
"123.887 29.733 LINE",
"123.887 0 LINE",
"581.193 0 LINE",
"587.324 29.733 LINE"
);
},
{
closed = 1;
nodes = (
"606.845 154.443 LINE",
"587.84 84.574 OFFCURVE",
"544.654 29.733 OFFCURVE",
"470.05 29.733 CURVE",
"459.2 25.115 LINE",
"452.116 0 LINE",
"583.689 0 LINE",
"616.845 154.443 LINE"
);
},
{
closed = 1;
nodes = (
"142.876 673.565 LINE",
"74.301 673.565 LINE",
"74.301 593.264 LINE",
"84.366 593.414 LINE",
"84.347 611.238 LINE SMOOTH",
"84.347 643.815 OFFCURVE",
"110.452 670.247 OFFCURVE",
"142.876 670.857 CURVE"
);
},
{
closed = 1;
nodes = (
"74.301 689.918 LINE",
"196.232 700.996 LINE",
"152.872 700.996 OFFCURVE",
"93.25 711.21 OFFCURVE",
"74.301 719.196 CURVE"
);
}
);
width = 651;
},
{
anchors = (
{
name = top;
position = "{335, 764}";
}
);
layerId = "29CFC173-9C98-4BE1-970A-002FF3BCF672";
paths = (
{
closed = 1;
nodes = (
"608.791 707.817 OFFCURVE",
"554.843 701.098 OFFCURVE",
"514.627 701.098 CURVE",
"49.348 700.737 LINE",
"49.348 650.856 LINE",
"367.247 650.855 LINE",
"35.184 9.322 LINE",
"35 0 LINE",
"259.584 0 LINE",
"620.594 705.328 LINE",
"620.594 705.33 OFFCURVE",
"620.594 714 OFFCURVE",
"620.594 714 CURVE"
);
},
{
closed = 1;
nodes = (
"108.887 49.734 LINE",
"108.887 0 LINE",
"592.193 0 LINE",
"598.324 49.734 LINE"
);
},
{
closed = 1;
nodes = (
"633.845 231.543 LINE",
"602.753 117.359 OFFCURVE",
"522.283 49.807 OFFCURVE",
"426.32 49.807 CURVE",
"407.312 37.448 LINE",
"390.016 0 LINE",
"605.557 0 LINE SMOOTH",
"643.845 231.543 LINE SMOOTH"
);
},
{
closed = 1;
nodes = (
"187.952 653.572 LINE",
"49.342 653.572 LINE",
"49.342 513.271 LINE",
"59.442 513.421 LINE",
"59.423 521.245 LINE SMOOTH",
"59.229 601.123 OFFCURVE",
"106.968 650.341 OFFCURVE",
"187.952 650.864 CURVE"
);
},
{
closed = 1;
nodes = (
"49.342 689.751 LINE",
"171.273 700.829 LINE",
"127.913 700.829 OFFCURVE",
"68.291 711.043 OFFCURVE",
"49.342 719.03 CURVE"
);
}
);
width = 668;
}
);
leftKerningGroup = Z;
rightKerningGroup = Z;
unicode = 005A;
},
{
glyphname = a;
lastChange = "2012-05-09 14:46:24 +0000";
layers = (
{
anchors = (
{
name = ogonek;
position = "{460.38, 10.333}";
},
{
name = top;
position = "{332.127, 664}";
}
);
hints = (
{
horizontal = 1;
place = "{600, 14}";
type = Stem;
}
);
layerId = "A24B85EF-CA04-493E-A47C-A7B61068A6D7";
paths = (
{
closed = 1;
nodes = (
"319.075 525 LINE",
"532.104 6.095 LINE",
"611.41 6.095 LINE",
"336.339 614 LINE"
);
},
{
closed = 1;
nodes = (
"83.86 73.013 LINE",
"63.458 28.464 OFFCURVE",
"30.658 10 OFFCURVE",
"2.931 10 CURVE SMOOTH",
"2.931 10 OFFCURVE",
"-5 10 OFFCURVE",
"-5 10 CURVE",
"-5 0 LINE",
"185.542 0 LINE",
"185.542 9.908 LINE",
"177.594 9.908 LINE SMOOTH",
"154.253 9.908 OFFCURVE",
"127.967 32.663 OFFCURVE",
"143.248 72.681 CURVE"
);
},
{
closed = 1;
nodes = (
"326.859 614 LINE",
"324.802 587.84 OFFCURVE",
"288.086 511 OFFCURVE",
"288.372 511 CURVE",
"51.133 3.095 LINE",
"113.824 3.095 LINE",
"342.809 545 LINE",
"336.339 614 LINE"
);
},
{
closed = 1;
nodes = (
"189.253 233 LINE",
"189.253 203 LINE",
"454.01 203 LINE",
"454.01 233 LINE"
);
},
{
closed = 1;
nodes = (
"520.207 32.664 OFFCURVE",
"493.891 9.91 OFFCURVE",
"470.552 9.91 CURVE SMOOTH",
"462.602 9.91 LINE",
"462.602 0 LINE",
"668.018 0 LINE",
"668.018 10 LINE",
"668.018 10 OFFCURVE",
"660.458 10 OFFCURVE",
"660.458 10 CURVE SMOOTH",
"632.751 10 OFFCURVE",
"601.397 28.464 OFFCURVE",
"581.018 73.013 CURVE",
"504.901 72.681 LINE"
);
}
);
width = 663;
},
{
anchors = (
{
name = ogonek;
position = "{578.344, 9.972}";
},
{
name = top;
position = "{304.521, 664}";
}
);
guideLines = (
{
position = "{146.325, 600}";
},
{
position = "{26.211, 614}";
}
);
layerId = "29CFC173-9C98-4BE1-970A-002FF3BCF672";
paths = (
{
closed = 1;
nodes = (
"222.195 390.617 LINE",
"390.539 5.105 LINE",
"617.766 5.105 LINE",
"307.614 636.407 LINE SMOOTH"
);
},
{
closed = 1;
nodes = (
"43.315 61.148 LINE",
"25.619 23.838 OFFCURVE",
"-8 10 OFFCURVE",
"-34 10 CURVE SMOOTH",
"-34 10 OFFCURVE",
"-42 10 OFFCURVE",
"-42 10 CURVE",
"-42 0 LINE",
"164.452 0 LINE",
"164.452 9.908 LINE",
"156.649 9.908 LINE SMOOTH",
"133.741 9.908 OFFCURVE",
"107.858 27.356 OFFCURVE",
"122.541 60.87 CURVE"
);
},
{
closed = 1;
nodes = (
"299.762 636.407 LINE",
"296.05 606.839 OFFCURVE",
"259.343 528.783 OFFCURVE",
"247.79 503.389 CURVE",
"16.155 2.592 LINE",
"97.16 2.592 LINE",
"306.836 482.983 LINE",
"307.614 636.407 LINE"
);
},
{
closed = 1;
nodes = (
"125.565 172.492 LINE",
"125.565 127.097 LINE",
"375.002 127.097 LINE",
"375.002 172.492 LINE"
);
},
{
closed = 1;
nodes = (
"380.852 27.356 OFFCURVE",
"355.197 9.911 OFFCURVE",
"332.288 9.911 CURVE SMOOTH",
"324.488 9.911 LINE",
"324.488 0 LINE",
"675.622 0 LINE",
"675.622 10 LINE",
"675.622 10 OFFCURVE",
"668.201 10 OFFCURVE",
"668.201 10 CURVE SMOOTH",
"641.007 10 OFFCURVE",
"608.91 23.838 OFFCURVE",
"590.231 61.148 CURVE",
"366.15 60.87 LINE"
);
}
);
width = 632;
}
);
leftKerningGroup = a;
rightKerningGroup = a;
unicode = 0061;
},
{
glyphname = aogonek;
lastChange = "2012-05-09 14:47:43 +0000";
layers = (
{
layerId = "A24B85EF-CA04-493E-A47C-A7B61068A6D7";
paths = (
{
closed = 1;
nodes = (
"83.86 73.013 LINE",
"63.458 28.464 OFFCURVE",
"30.658 10 OFFCURVE",
"2.931 10 CURVE SMOOTH",
"2.931 10 OFFCURVE",
"-5 10 OFFCURVE",
"-5 10 CURVE",
"-5 0 LINE",
"185.542 0 LINE",
"185.542 9.908 LINE",
"177.594 9.908 LINE SMOOTH",
"154.253 9.908 OFFCURVE",
"127.967 32.664 OFFCURVE",
"143.248 72.681 CURVE"
);
},
{
closed = 1;
nodes = (
"326.859 614 LINE",
"324.802 587.84 OFFCURVE",
"288.086 511 OFFCURVE",
"288.372 511 CURVE",
"51.133 3.095 LINE",
"113.824 3.095 LINE",
"342.809 545 LINE",
"336.339 614 LINE"
);
},
{
closed = 1;
nodes = (
"319.075 525 LINE",
"532.104 6.095 LINE",
"611.41 6.095 LINE",
"336.339 614 LINE"
);
},
{
closed = 1;
nodes = (
"189.253 233 LINE",
"189.253 203 LINE",
"454.01 203 LINE",
"454.01 233 LINE"
);
},
{
closed = 1;
nodes = (
"534.15 10.477 OFFCURVE",
"612.635 0 OFFCURVE",
"663.611 0 CURVE",
"663.611 10 LINE",
"632.108 10 OFFCURVE",
"601.645 24.867 OFFCURVE",
"580.652 73.013 CURVE",
"504.647 73.013 LINE",
"520.235 32.664 OFFCURVE",
"496.395 18.192 OFFCURVE",
"471.89 9.91 CURVE SMOOTH",
"423.214 -7 OFFCURVE",
"395.306 -43 OFFCURVE",
"395.761 -82 CURVE SMOOTH",
"397.085 -198 OFFCURVE",
"539.551 -201 OFFCURVE",
"569.774 -119 CURVE",
"563.774 -113 LINE",
"514.646 -164 OFFCURVE",
"443.804 -128 OFFCURVE",
"441.804 -71 CURVE SMOOTH",
"440.693 -39 OFFCURVE",
"453.42 -10 OFFCURVE",
"492.751 0 CURVE SMOOTH"
);
}
);
width = 633;
},
{
layerId = "29CFC173-9C98-4BE1-970A-002FF3BCF672";
paths = (
{
closed = 1;
nodes = (
"48.931 62.061 LINE",
"30.422 24.194 OFFCURVE",
"-2 10 OFFCURVE",
"-28 10 CURVE SMOOTH",
"-28 10 OFFCURVE",
"-36 10 OFFCURVE",
"-36 10 CURVE",
"-36 0 LINE",
"160.218 0 LINE",
"160.218 9.908 LINE",
"152.524 9.908 LINE SMOOTH",
"129.935 9.908 OFFCURVE",
"103.486 27.764 OFFCURVE",
"118.913 61.779 CURVE"
);
},
{
closed = 1;
nodes = (
"300.182 625.453 LINE",
"296.616 596.147 OFFCURVE",
"260.457 518.184 OFFCURVE",
"249.722 494.744 CURVE",
"21.245 2.631 LINE",
"92.597 2.631 LINE",
"307.634 484.984 LINE",
"308.006 625.453 LINE"
);
},
{
closed = 1;
nodes = (
"228.508 393.57 LINE",
"395.84 5.181 LINE",
"611.609 5.181 LINE",
"308.006 625.453 LINE SMOOTH"
);
},
{
closed = 1;
nodes = (
"130.584 177.146 LINE",
"130.584 132.936 LINE",
"377.126 132.936 LINE",
"377.126 177.146 LINE"
);
},
{
closed = 1;
nodes = (
"515.567 9.834 OFFCURVE",
"639.996 -2 OFFCURVE",
"666.26 -3 CURVE",
"666.26 7 LINE",
"666.26 7 OFFCURVE",
"608.594 14.231 OFFCURVE",
"585.382 58.78 CURVE",
"369.709 65.847 LINE",
"385.566 25.834 OFFCURVE",
"383.566 6.834 OFFCURVE",
"362.566 -7 CURVE SMOOTH",
"329.566 -29 OFFCURVE",
"300.566 -44 OFFCURVE",
"292.566 -91 CURVE SMOOTH",
"269.566 -227 OFFCURVE",
"489.566 -264 OFFCURVE",
"496.97 -128 CURVE",
"490.97 -122 LINE",
"442.566 -162 OFFCURVE",
"383.566 -140 OFFCURVE",
"378.566 -80 CURVE SMOOTH",
"375.566 -49 OFFCURVE",
"389.566 -19 OFFCURVE",
"442.566 -7 CURVE SMOOTH"
);
}
);
width = 632;
}
);
leftKerningGroup = a;
leftMetricsKey = a;
rightKerningGroup = a;
rightMetricsKey = a;
unicode = 0105;
},
{
glyphname = ae;
lastChange = "2012-05-09 14:49:21 +0000";
layers = (
{
anchors = (
{
name = top;
position = "{624.715, 500}";
}
);
guideLines = (
{
position = "{330.93, 600}";
}
);
layerId = "A24B85EF-CA04-493E-A47C-A7B61068A6D7";
paths = (
{
closed = 1;
nodes = (
"80.522 61.506 LINE",
"63.507 34.2 OFFCURVE",
"29.64 10 OFFCURVE",
"1.034 10 CURVE SMOOTH",
"1.034 10 OFFCURVE",
"-5 10 OFFCURVE",
"-5 10 CURVE",
"-5 0 LINE",
"174.468 0 LINE",
"174.468 10 LINE",
"166.325 10 LINE SMOOTH",
"140.359 10 OFFCURVE",
"128.919 33.332 OFFCURVE",
"143.443 58.042 CURVE"
);
},
{
closed = 1;
nodes = (
"432.676 560.741 LINE",
"432.676 0 LINE",
"497.739 0 LINE",
"497.739 600.448 LINE"
);
},
{
closed = 1;
nodes = (
"432.672 50.307 LINE",
"432.238 27.208 OFFCURVE",
"413.407 9.984 OFFCURVE",
"390.196 9.984 CURVE SMOOTH",
"390.095 9.984 OFFCURVE",
"381.912 10 OFFCURVE",
"381.807 10 CURVE",
"381.701 0 LINE",
"434.601 0 LINE SMOOTH",
"434.601 50.307 LINE"
);
},
{
closed = 1;
nodes = (
"495.309 30.37 LINE",
"495.309 0 LINE",
"750.46 0 LINE",
"750.46 30.37 LINE"
);
},
{
closed = 1;
nodes = (
"268.188 301.912 LINE",
"263.878 271.05 LINE",
"715.117 271.05 LINE",
"715.117 301.912 LINE"
);
},
{
closed = 1;
nodes = (
"408.537 600.448 LINE",
"408.537 591.828 LINE",
"411.985 591.828 LINE",
"428.152 591.828 OFFCURVE",
"437.517 576.928 OFFCURVE",
"430.713 562.029 CURVE",
"40.583 2.586 LINE",
"109.102 2.586 LINE",
"451.816 540.679 LINE SMOOTH",
"454.402 568.077 LINE",
"750.42 568.077 LINE",
"750.42 600.448 LINE"
);
},
{
closed = 1;
nodes = (
"789.099 123.655 LINE",
"766.394 69.41 OFFCURVE",
"726.578 30.358 OFFCURVE",
"657.496 30.358 CURVE",
"631.632 0 LINE",
"751.709 0 LINE",
"799.719 123.655 LINE"
);
},
{
closed = 1;
nodes = (
"663.431 273.006 LINE",
"663.431 271.077 LINE",
"686.53 270.642 OFFCURVE",
"705.168 251.811 OFFCURVE",
"705.132 228.601 CURVE SMOOTH",
"705.117 218.899 LINE",
"715.117 218.792 LINE",
"715.117 273.006 LINE"
);
},
{
closed = 1;
nodes = (
"705.117 357.112 LINE",
"705.134 344.41 LINE SMOOTH",
"705.134 321.201 OFFCURVE",
"686.53 302.373 OFFCURVE",
"663.431 301.938 CURVE",
"663.431 300.01 LINE",
"715.117 300.01 LINE",
"715.117 357.22 LINE"
);
},
{
closed = 1;
nodes = (
"698.114 569.987 LINE",
"698.114 568.058 LINE",
"721.215 567.623 OFFCURVE",
"740.436 548.791 OFFCURVE",
"740.436 525.582 CURVE SMOOTH",
"740.42 512.883 LINE",
"750.42 512.776 LINE",
"750.42 569.987 LINE"
);
},
{
closed = 1;
nodes = (
"734.085 609.242 OFFCURVE",
"682.686 600.437 OFFCURVE",
"645.307 600.437 CURVE",
"750.42 590.887 LINE",
"750.42 616.127 LINE"
);
}
);
width = 834;
},
{
anchors = (
{
name = top;
position = "{300, 498.381}";
}
);
layerId = "29CFC173-9C98-4BE1-970A-002FF3BCF672";
paths = (
{
closed = 1;
nodes = (
"51.809 62.773 LINE",
"23.733 23.144 OFFCURVE",
"2.329 10 OFFCURVE",
"-23 10 CURVE SMOOTH",
"-23 10 OFFCURVE",
"-31 10 OFFCURVE",
"-31 10 CURVE",
"-31 0 LINE",
"177.897 0 LINE",
"177.897 9.896 LINE",
"170.406 9.896 LINE SMOOTH",
"148.66 10.089 OFFCURVE",
"114.121 27.328 OFFCURVE",
"136.112 62.902 CURVE"
);
},
{
closed = 1;
nodes = (
"400.23 559.575 LINE",
"400.23 0 LINE",
"591.608 0 LINE",
"591.608 599.058 LINE"
);
},
{
closed = 1;
nodes = (
"400.226 50.024 LINE",
"399.792 27.054 OFFCURVE",
"381.006 9.984 OFFCURVE",
"357.852 9.984 CURVE SMOOTH",
"357.751 9.984 OFFCURVE",
"349.587 10 OFFCURVE",
"349.483 10 CURVE",
"349.376 0 LINE",
"402.15 0 LINE",
"402.15 50.024 LINE"
);
},
{
closed = 1;
nodes = (
"589.184 45.586 LINE",
"589.184 0 LINE",
"823.77 0 LINE",
"823.77 45.586 LINE"
);
},
{
closed = 1;
nodes = (
"256.089 315.685 LINE",
"251.789 270.61 LINE",
"777.13 270.61 LINE",
"777.13 315.685 LINE"
);
},
{
closed = 1;
nodes = (
"365.506 599.058 LINE",
"365.506 590.486 LINE",
"369.913 590.486 LINE",
"392.303 590.486 OFFCURVE",
"404.96 571.013 OFFCURVE",
"388.547 546.662 CURVE",
"9.98 2.572 LINE",
"98.382 2.572 LINE",
"419.324 514.548 LINE SMOOTH",
"479.954 553.482 LINE",
"823.731 553.482 LINE",
"823.731 599.058 LINE"
);
},
{
closed = 1;
nodes = (
"867.922 208.846 LINE",
"840.672 105.226 OFFCURVE",
"768.032 45.59 OFFCURVE",
"683.802 45.59 CURVE",
"651.903 0 LINE",
"845.466 0 LINE",
"876.525 208.846 LINE"
);
},
{
closed = 1;
nodes = (
"669.115 272.707 LINE",
"669.115 270.789 LINE",
"727.645 269.688 OFFCURVE",
"768.969 228.259 OFFCURVE",
"768.764 170.401 CURVE SMOOTH",
"768.75 167.447 LINE",
"777.13 167.341 LINE",
"777.13 272.707 LINE"
);
},
{
closed = 1;
nodes = (
"768.75 418.898 LINE",
"768.764 415.96 LINE SMOOTH",
"768.982 358.107 OFFCURVE",
"727.716 316.679 OFFCURVE",
"669.115 315.575 CURVE",
"669.115 313.658 LINE",
"777.13 313.658 LINE",
"777.13 419.005 LINE"
);
},
{
closed = 1;
nodes = (
"695.821 555.956 LINE",
"695.821 553.582 LINE",
"771.293 552.163 OFFCURVE",
"815.161 507.876 OFFCURVE",
"814.973 433.474 CURVE SMOOTH",
"814.957 427.54 LINE",
"823.653 427.409 LINE",
"823.653 555.956 LINE"
);
},
{
closed = 1;
nodes = (
"807.323 607.803 OFFCURVE",
"756.049 599.047 OFFCURVE",
"718.759 599.047 CURVE",
"823.62 589.551 LINE",
"823.62 614.649 LINE"
);
}
);
width = 885;
}
);
leftKerningGroup = a;
rightKerningGroup = e;
rightMetricsKey = e;
unicode = 00E6;
},
{
glyphname = b;
lastChange = "2012-05-09 14:52:01 +0000";
layers = (
{
layerId = "A24B85EF-CA04-493E-A47C-A7B61068A6D7";
paths = (
{
closed = 1;
nodes = (
"139.565 599.949 OFFCURVE",
"148.976 571.501 OFFCURVE",
"148.976 570.071 CURVE",
"257.732 569.949 LINE",
"345.347 569.949 OFFCURVE",
"396.83 534.053 OFFCURVE",
"396.83 450.302 CURVE SMOOTH",
"396.83 340.419 OFFCURVE",
"293.995 326.953 OFFCURVE",
"221.219 326.953 CURVE",
"221.44 316.953 LINE",
"329.162 317.012 OFFCURVE",
"453.535 295.613 OFFCURVE",
"453.535 167.897 CURVE SMOOTH",
"453.535 72.581 OFFCURVE",
"388.033 30 OFFCURVE",
"301.88 30 CURVE",
"181.947 30 LINE",
"181.947 30 OFFCURVE",
"181.113 0 OFFCURVE",
"181.113 0 CURVE",
"302.535 0 LINE SMOOTH",
"401.062 0 OFFCURVE",
"525.174 37.481 OFFCURVE",
"525.174 167.897 CURVE SMOOTH",
"525.174 248.288 OFFCURVE",
"454 314.604 OFFCURVE",
"357.121 326.417 CURVE",
"411.915 339.544 OFFCURVE",
"467.064 388.562 OFFCURVE",
"467.064 450.302 CURVE SMOOTH",
"467.064 583.235 OFFCURVE",
"330.858 599.949 OFFCURVE",
"259.013 599.949 CURVE SMOOTH",
"139.565 599.949 LINE SMOOTH"
);
},
{
closed = 1;
nodes = (
"126.866 599.949 LINE",
"126.866 0 LINE",
"189.719 0 LINE",
"189.719 599.949 LINE"
);
},
{
closed = 1;
nodes = (
"126.88 64.45 LINE",
"126.243 34.594 OFFCURVE",
"100.803 9.979 OFFCURVE",
"66.958 9.979 CURVE SMOOTH",
"66.855 9.979 OFFCURVE",
"55.22 10 OFFCURVE",
"55.157 10 CURVE",
"55 0 LINE",
"129.573 0 LINE",
"129.573 64.45 LINE"
);
},
{
closed = 1;
nodes = (
"129.579 600 LINE",
"55.006 600 LINE",
"55.162 590 LINE",
"55.226 590 OFFCURVE",
"66.906 590.02 OFFCURVE",
"66.964 590.02 CURVE SMOOTH",
"100.809 590.02 OFFCURVE",
"126.248 568.406 OFFCURVE",
"126.886 535.55 CURVE",
"129.579 535.55 LINE"
);
}
);
width = 570;
},
{
layerId = "29CFC173-9C98-4BE1-970A-002FF3BCF672";
paths = (
{
closed = 1;
nodes = (
"138.61 600.069 OFFCURVE",
"146.525 556.069 OFFCURVE",
"146.525 555.079 CURVE",
"280.82 555.084 LINE",
"328.654 555.084 OFFCURVE",
"370.09 528.224 OFFCURVE",
"370.09 435.055 CURVE SMOOTH",
"370.09 370.337 OFFCURVE",
"359.029 324.647 OFFCURVE",
"306.127 324.647 CURVE",
"306.115 316.661 LINE",
"371.819 317.71 OFFCURVE",
"390.107 261.844 OFFCURVE",
"390.107 187.37 CURVE SMOOTH",
"390.107 81.026 OFFCURVE",
"334.681 46.038 OFFCURVE",
"273.033 46.038 CURVE",
"271.391 46.038 LINE",
"271.391 46.038 OFFCURVE",
"271.439 0 OFFCURVE",
"271.439 0 CURVE",
"340.589 0 LINE SMOOTH",
"498.7 0 OFFCURVE",
"611 50.977 OFFCURVE",
"611 172.65 CURVE SMOOTH",
"611 270.166 OFFCURVE",
"540.053 324.122 OFFCURVE",
"461.06 326.773 CURVE",
"517.095 326.214 OFFCURVE",
"570.996 366.185 OFFCURVE",
"570.996 450.827 CURVE SMOOTH",
"570.996 571.342 OFFCURVE",
"460.439 600.069 OFFCURVE",
"333.554 600.069 CURVE SMOOTH",
"138.61 600.069 LINE SMOOTH"
);
},
{
closed = 1;
nodes = (
"85.467 600.069 LINE",
"85.467 0 LINE",
"278.343 0 LINE",
"278.343 600.069 LINE"
);
},
{
closed = 1;
nodes = (
"85.467 62.446 LINE",
"85.503 32.174 OFFCURVE",
"62.655 10 OFFCURVE",
"33.948 10 CURVE SMOOTH",
"32.898 10 OFFCURVE",
"25.109 10 OFFCURVE",
"23 10 CURVE",
"23.009 0 LINE",
"88.482 0 LINE",
"88.482 62.446 LINE"
);
},
{
closed = 1;
nodes = (
"88.482 600.069 LINE",
"23.009 600.069 LINE",
"23 590.07 LINE",
"25.109 590.07 OFFCURVE",
"31.839 590.069 OFFCURVE",
"33.948 590.069 CURVE SMOOTH",
"62.655 590.069 OFFCURVE",
"85.502 567.767 OFFCURVE",
"85.466 537.622 CURVE",
"88.482 537.622 LINE"
);
}
);
width = 626;
}
);
leftKerningGroup = h;
rightKerningGroup = b;
unicode = 0062;
},
{
glyphname = c;
lastChange = "2012-04-12 12:17:24 +0000";
layers = (
{
anchors = (
{
name = bottom;
position = "{380.128, -13}";
},
{
name = top;
position = "{380.128, 664}";
}
);
layerId = "A24B85EF-CA04-493E-A47C-A7B61068A6D7";
paths = (
{
closed = 1;
nodes = (
"656.874 251.85 LINE",
"646.123 88.002 OFFCURVE",
"529.088 15.653 OFFCURVE",
"380 17 CURVE SMOOTH",
"221.003 18.437 OFFCURVE",
"121.97 127.084 OFFCURVE",
"121.97 300.002 CURVE SMOOTH",
"121.97 476.127 OFFCURVE",
"220.836 584.074 OFFCURVE",
"379.197 584.074 CURVE SMOOTH",
"503.2 584.074 OFFCURVE",
"596.529 534.786 OFFCURVE",
"627.17 412.264 CURVE",
"635.963 412.232 LINE",
"613.858 553.468 LINE",
"552.146 590.998 OFFCURVE",
"462.967 614 OFFCURVE",
"379.647 614 CURVE SMOOTH",
"177.195 614 OFFCURVE",
"49.662 494.681 OFFCURVE",
"49.662 300.002 CURVE SMOOTH",
"49.662 106.237 OFFCURVE",
"177.054 -13 OFFCURVE",
"379.647 -14 CURVE",
"497.851 -14 OFFCURVE",
"603.105 34.996 OFFCURVE",
"655.063 114.938 CURVE",
"665.666 251.886 LINE"
);
}
);
width = 705;
},
{
anchors = (
{
name = bottom;
position = "{387.584, -8.833}";
},
{
name = top;
position = "{377.074, 679.274}";
}
);
layerId = "29CFC173-9C98-4BE1-970A-002FF3BCF672";
paths = (
{
closed = 1;
nodes = (
"605.532 249.945 LINE",
"571.779 87.707 OFFCURVE",
"542.056 33.433 OFFCURVE",
"403.567 33.315 CURVE",
"290.184 37.553 OFFCURVE",
"227.47 142.441 OFFCURVE",
"227.47 303.756 CURVE SMOOTH",
"227.47 458.376 OFFCURVE",
"283.767 566.558 OFFCURVE",
"420.74 566.558 CURVE SMOOTH",
"503.675 566.558 OFFCURVE",
"565.592 529.004 OFFCURVE",
"601.603 405.951 CURVE",
"608.678 405.954 LINE",
"621.519 576.236 LINE",
"576.29 594.117 OFFCURVE",
"500.251 611.93 OFFCURVE",
"403.584 611.93 CURVE SMOOTH",
"162.706 611.93 OFFCURVE",
"23.182 497.282 OFFCURVE",
"23.182 300.52 CURVE SMOOTH",
"23.182 99.38 OFFCURVE",
"168.067 -11 OFFCURVE",
"403.584 -12 CURVE",
"541.413 -12 OFFCURVE",
"608.113 37.469 OFFCURVE",
"638.818 90.147 CURVE",
"612.607 249.942 LINE"
);
}
);
width = 668;
}
);
leftKerningGroup = o;
rightKerningGroup = c;
unicode = 0063;
},
{
glyphname = d;
lastChange = "2012-05-09 14:53:03 +0000";
layers = (
{
anchors = (
{
name = center;
position = "{405.388, 250}";
},
{
name = top;
position = "{387.924, 665}";
}
);
layerId = "A24B85EF-CA04-493E-A47C-A7B61068A6D7";
paths = (
{
closed = 1;
nodes = (
"163.848 599.975 LINE",
"163.848 569.931 LINE",
"309.34 569.931 OFFCURVE",
"389.063 569.936 OFFCURVE",
"389.063 569.944 CURVE SMOOTH",
"542.587 569.944 OFFCURVE",
"637.775 467.255 OFFCURVE",
"637.775 299.709 CURVE SMOOTH",
"637.775 132.762 OFFCURVE",
"542.613 30.44 OFFCURVE",
"389.063 30.44 CURVE SMOOTH",
"389.063 30.448 OFFCURVE",
"313.307 30.452 OFFCURVE",
"174.218 30.452 CURVE",
"175.817 0.057 LINE",
"388.558 0.057 LINE",
"585.788 0.057 OFFCURVE",
"710.066 113.925 OFFCURVE",
"710.066 299.709 CURVE SMOOTH",
"710.066 485.874 OFFCURVE",
"585.788 599.975 OFFCURVE",
"388.558 599.975 CURVE"
);
},
{
closed = 1;
nodes = (
"124.589 599.975 LINE",
"124.589 0.057 LINE",
"189.693 0.057 LINE",
"189.693 599.975 LINE"
);
},
{
closed = 1;
nodes = (
"124.603 64.814 LINE",
"123.995 34.784 OFFCURVE",
"100.202 9.979 OFFCURVE",
"68.488 9.979 CURVE SMOOTH",
"68.351 9.979 OFFCURVE",
"55.342 10 OFFCURVE",
"55.173 10 CURVE",
"55 0 LINE",
"127.221 0 LINE",
"127.221 64.814 LINE"
);
},
{
closed = 1;
nodes = (
"127.257 600.06 LINE",
"55.035 600.06 LINE",
"55.209 590.06 LINE",
"55.352 590.06 OFFCURVE",
"67.285 590.08 OFFCURVE",
"67.449 590.08 CURVE SMOOTH",
"99.135 590.08 OFFCURVE",
"124.031 567.276 OFFCURVE",
"124.612 535.246 CURVE",
"127.257 535.246 LINE"
);
}
);
width = 760;
},
{
anchors = (
{
name = center;
position = "{312.5, 325.733}";
},
{
name = top;
position = "{359.29, 664.942}";
}
);
layerId = "29CFC173-9C98-4BE1-970A-002FF3BCF672";
paths = (
{
closed = 1;
nodes = (
"120.182 600.071 LINE",
"120.182 554.704 LINE",
"288.17 554.704 OFFCURVE",
"339.462 554.704 OFFCURVE",
"339.462 554.704 CURVE SMOOTH",
"447.103 554.704 OFFCURVE",
"512.399 460.449 OFFCURVE",
"512.399 299.516 CURVE SMOOTH",
"512.399 139.619 OFFCURVE",
"446.059 46.419 OFFCURVE",
"339.462 46.419 CURVE SMOOTH",
"339.462 46.418 OFFCURVE",
"290.369 46.418 OFFCURVE",
"128.823 46.418 CURVE",
"130.957 0 LINE",
"359.29 0 LINE",
"585.105 0 OFFCURVE",
"717 109.651 OFFCURVE",
"717 299.516 CURVE SMOOTH",
"717 489.355 OFFCURVE",
"585.105 600.071 OFFCURVE",
"359.29 600.071 CURVE"
);
},
{
closed = 1;
nodes = (
"86.72 600.071 LINE",
"86.72 0 LINE",
"282.767 0 LINE",
"282.767 600.071 LINE"
);
},
{
closed = 1;
nodes = (
"86.72 64.37 LINE",
"86.704 34.098 OFFCURVE",
"60.981 10 OFFCURVE",
"30.861 10 CURVE SMOOTH",
"29.813 10 OFFCURVE",
"19.009 10 OFFCURVE",
"19.005 10 CURVE",
"19 0 LINE",
"89.926 0 LINE",
"89.926 64.37 LINE"
);
},
{
closed = 1;
nodes = (
"88.938 600.066 LINE",
"18.012 600.066 LINE",
"18.017 590.066 LINE",
"19.066 590.066 OFFCURVE",
"29.839 590.066 OFFCURVE",
"29.844 590.066 CURVE SMOOTH",
"61.007 590.066 OFFCURVE",
"85.716 567.828 OFFCURVE",
"86.776 537.696 CURVE",
"88.938 537.696 LINE"
);
}
);
width = 741;
}
);
leftKerningGroup = h;
rightKerningGroup = o;
unicode = 0064;
},
{
glyphname = eth;
lastChange = "2012-05-09 14:53:39 +0000";
layers = (
{
layerId = "A24B85EF-CA04-493E-A47C-A7B61068A6D7";
paths = (
{
closed = 1;
nodes = (
"163.848 599.975 LINE",
"163.848 569.931 LINE",
"309.34 569.931 OFFCURVE",
"389.063 569.936 OFFCURVE",
"389.063 569.944 CURVE SMOOTH",
"542.587 569.944 OFFCURVE",
"637.775 467.255 OFFCURVE",
"637.775 299.709 CURVE SMOOTH",
"637.775 132.762 OFFCURVE",
"542.613 30.44 OFFCURVE",
"389.063 30.44 CURVE SMOOTH",
"389.063 30.448 OFFCURVE",
"313.307 30.452 OFFCURVE",
"174.218 30.452 CURVE",
"175.817 0.057 LINE",
"388.558 0.057 LINE",
"585.788 0.057 OFFCURVE",
"710.066 113.925 OFFCURVE",
"710.066 299.709 CURVE SMOOTH",
"710.066 485.874 OFFCURVE",
"585.788 599.975 OFFCURVE",
"388.558 599.975 CURVE"
);
},
{
closed = 1;
nodes = (
"124.589 599.975 LINE",
"124.589 0.057 LINE",
"189.693 0.057 LINE",
"189.693 599.975 LINE"
);
},
{
closed = 1;
nodes = (
"124.603 64.814 LINE",
"123.995 34.784 OFFCURVE",
"100.202 9.979 OFFCURVE",
"68.488 9.979 CURVE SMOOTH",
"68.351 9.979 OFFCURVE",
"55.342 10 OFFCURVE",
"55.173 10 CURVE",
"55 0 LINE",
"127.221 0 LINE",
"127.221 64.814 LINE"
);
},
{
closed = 1;
nodes = (
"127.257 600.06 LINE",
"55.035 600.06 LINE",
"55.209 590.06 LINE",
"55.352 590.06 OFFCURVE",
"67.285 590.08 OFFCURVE",
"67.449 590.08 CURVE SMOOTH",
"99.135 590.08 OFFCURVE",
"124.031 567.276 OFFCURVE",
"124.612 535.246 CURVE",
"127.257 535.246 LINE"
);
},
{
closed = 1;
nodes = (
"61.851 285.016 LINE",
"346.851 285.016 LINE",
"346.851 315.016 LINE",
"61.851 315.016 LINE"
);
}
);
width = 760;
},
{
layerId = "29CFC173-9C98-4BE1-970A-002FF3BCF672";
paths = (
{
closed = 1;
nodes = (
"120.182 600.072 LINE",
"120.182 554.704 LINE",
"288.17 554.704 OFFCURVE",
"339.462 554.704 OFFCURVE",
"339.462 554.704 CURVE SMOOTH",
"447.103 554.704 OFFCURVE",
"512.399 460.45 OFFCURVE",
"512.399 299.516 CURVE SMOOTH",
"512.399 139.619 OFFCURVE",
"446.059 46.419 OFFCURVE",
"339.462 46.419 CURVE SMOOTH",
"339.462 46.418 OFFCURVE",
"290.369 46.418 OFFCURVE",
"128.823 46.418 CURVE",
"130.957 0 LINE",
"359.29 0 LINE",
"585.105 0 OFFCURVE",
"717 109.651 OFFCURVE",
"717 299.516 CURVE SMOOTH",
"717 489.355 OFFCURVE",
"585.105 600.072 OFFCURVE",
"359.29 600.072 CURVE"
);
},
{
closed = 1;
nodes = (
"86.72 600.072 LINE",
"86.72 0 LINE",
"282.767 0 LINE",
"282.767 600.072 LINE"
);
},
{
closed = 1;
nodes = (
"86.72 62.369 LINE",
"86.704 32.098 OFFCURVE",
"60.981 10 OFFCURVE",
"30.861 10 CURVE SMOOTH",
"29.813 10 OFFCURVE",
"19.009 10 OFFCURVE",
"19.005 10 CURVE",
"19 0 LINE",
"89.926 0 LINE",
"89.926 62.369 LINE"
);
},
{
closed = 1;
nodes = (
"88.893 600.066 LINE",
"17.966 600.066 LINE",
"17.972 590.066 LINE",
"19.02 590.066 OFFCURVE",
"29.794 590.066 OFFCURVE",
"29.798 590.066 CURVE SMOOTH",
"60.962 590.066 OFFCURVE",
"86.731 567.88 OFFCURVE",
"86.731 537.697 CURVE",
"88.893 537.697 LINE"
);
},
{
closed = 1;
nodes = (
"20 278.036 LINE",
"388 278.036 LINE",
"388 323.036 LINE",
"20 323.036 LINE"
);
}
);
width = 741;
}
);
rightKerningGroup = o;
rightMetricsKey = d;
unicode = 00F0;
},
{
glyphname = e;
lastChange = "2012-05-09 14:58:01 +0000";
layers = (
{
anchors = (
{
name = bottom;
position = "{296.982, 0}";
},
{
name = ogonek;
position = "{402.97, 3.008}";
},
{
name = top;
position = "{296.982, 664}";
}
);
layerId = "A24B85EF-CA04-493E-A47C-A7B61068A6D7";
paths = (
{
closed = 1;
nodes = (
"126.666 600 LINE",
"126.666 0 LINE",
"190.5 0 LINE",
"190.5 600 LINE"
);
},
{
closed = 1;
nodes = (
"188.58 30.59 LINE",
"188.58 0 LINE",
"458.097 0 LINE",
"459.693 30.59 LINE"
);
},
{
closed = 1;
nodes = (
"188.58 315 LINE",
"188.58 285 LINE",
"412.734 285 LINE",
"412.734 315 LINE"
);
},
{
closed = 1;
nodes = (
"188.58 600 LINE",
"188.58 569.409 LINE SMOOTH",
"458.849 569.409 LINE",
"458.849 600 LINE"
);
},
{
closed = 1;
nodes = (
"505.551 143.45 LINE",
"476.752 77.814 OFFCURVE",
"441.977 30.561 OFFCURVE",
"342.782 30.561 CURVE",
"308.939 0 LINE",
"461.269 0 LINE",
"516.39 143.45 LINE"
);
},
{
closed = 1;
nodes = (
"361 287.029 LINE",
"361 285.1 LINE",
"388.967 284.665 OFFCURVE",
"401.869 265.834 OFFCURVE",
"401.869 242.624 CURVE SMOOTH",
"401.851 229.922 LINE",
"412.734 229.815 LINE",
"412.734 287.029 LINE"
);
},
{
closed = 1;
nodes = (
"401.851 370.167 LINE",
"401.87 357.465 LINE SMOOTH",
"401.87 334.256 OFFCURVE",
"388.967 315.428 OFFCURVE",
"361 314.993 CURVE",
"361 313.065 LINE",
"412.734 313.065 LINE",
"412.734 370.275 LINE"
);
},
{
closed = 1;
nodes = (
"397.704 571.746 LINE",
"397.704 569.412 LINE",
"428.227 568.886 OFFCURVE",
"447.988 546.099 OFFCURVE",
"447.988 518.016 CURVE SMOOTH",
"447.967 502.65 LINE",
"458.849 502.521 LINE",
"458.849 571.746 LINE"
);
},
{
closed = 1;
nodes = (
"441.156 608.798 OFFCURVE",
"385.563 599.993 OFFCURVE",
"345.149 599.993 CURVE",
"458.849 590.443 LINE",
"458.849 615.682 LINE"
);
},
{
closed = 1;
nodes = (
"126.701 64.193 LINE",
"126.066 34.163 OFFCURVE",
"101.601 9.979 OFFCURVE",
"68.932 9.979 CURVE SMOOTH",
"68.804 9.979 OFFCURVE",
"55.38 10 OFFCURVE",
"55.203 10 CURVE",
"55.023 0 LINE",
"141.741 0 LINE",
"129.387 64.193 LINE"
);
},
{
closed = 1;
nodes = (
"141.718 600 LINE",
"55 600 LINE",
"55.182 590 LINE",
"55.358 590 OFFCURVE",
"68.782 590.02 OFFCURVE",
"68.91 590.02 CURVE SMOOTH",
"101.579 590.02 OFFCURVE",
"126.044 567.216 OFFCURVE",
"126.678 537.186 CURVE",
"129.365 537.186 LINE"
);
}
);
width = 546;
},
{
anchors = (
{
name = bottom;
position = "{300.688, 0}";
},
{
name = ogonek;
position = "{486.941, 5}";
},
{
name = top;
position = "{287.688, 664.436}";
}
);
layerId = "29CFC173-9C98-4BE1-970A-002FF3BCF672";
paths = (
{
closed = 1;
nodes = (
"83.684 599.935 LINE",
"83.684 0 LINE",
"279.853 0 LINE",
"279.853 599.935 LINE"
);
},
{
closed = 1;
nodes = (
"277.837 46.403 LINE",
"277.837 0 LINE",
"530.832 0 LINE",
"490.727 46.403 LINE"
);
},
{
closed = 1;
nodes = (
"277.837 318.876 LINE",
"277.837 272.431 LINE",
"466.186 272.431 LINE",
"466.186 318.876 LINE"
);
},
{
closed = 1;
nodes = (
"277.837 599.935 LINE",
"277.837 553.532 LINE SMOOTH",
"510.243 553.532 LINE",
"510.243 599.935 LINE"
);
},
{
closed = 1;
nodes = (
"552.094 210.028 LINE",
"527.258 105.669 OFFCURVE",
"453.165 46.405 OFFCURVE",
"376.386 46.405 CURVE",
"346.529 0 LINE",
"532.753 0 LINE",
"560.999 210.028 LINE"
);
},
{
closed = 1;
nodes = (
"356.635 274.447 LINE",
"356.635 272.424 LINE",
"416.114 271.376 OFFCURVE",
"456.186 228.468 OFFCURVE",
"456.186 169.688 CURVE SMOOTH",
"456.187 166.266 LINE",
"466.186 166.266 LINE",
"466.186 274.447 LINE"
);
},
{
closed = 1;
nodes = (
"456.187 423.964 LINE",
"456.186 421.613 LINE SMOOTH",
"456.186 362.832 OFFCURVE",
"416.114 319.924 OFFCURVE",
"356.635 318.876 CURVE",
"356.635 316.853 LINE",
"466.186 316.853 LINE",
"466.186 423.964 LINE"
);
},
{
closed = 1;
nodes = (
"383.033 555.526 LINE",
"383.033 553.531 LINE",
"458.529 552.49 OFFCURVE",
"500.243 507.7 OFFCURVE",
"500.243 430.925 CURVE SMOOTH",
"500.246 425.532 LINE",
"510.243 425.532 LINE",
"510.243 555.526 LINE"
);
},
{
closed = 1;
nodes = (
"495.373 609.029 OFFCURVE",
"446.631 599.936 OFFCURVE",
"410.788 599.936 CURVE",
"510.243 590.894 LINE",
"510.243 615.021 LINE"
);
},
{
closed = 1;
nodes = (
"83.681 62.398 LINE",
"83.73 32.133 OFFCURVE",
"59.647 10 OFFCURVE",
"31.862 10 CURVE SMOOTH",
"30.791 10 OFFCURVE",
"21.001 10 OFFCURVE",
"21.015 10 CURVE",
"21.028 0 LINE",
"85.784 0 LINE",
"86.72 62.398 LINE"
);
},
{
closed = 1;
nodes = (
"85.786 599.935 LINE",
"21.03 599.935 LINE",
"21.016 589.935 LINE",
"21.003 589.935 OFFCURVE",
"30.793 589.935 OFFCURVE",
"31.864 589.935 CURVE SMOOTH",
"59.648 589.935 OFFCURVE",
"83.731 567.706 OFFCURVE",
"83.683 537.442 CURVE",
"86.722 537.442 LINE"
);
}
);
width = 575;
}
);
leftKerningGroup = h;
rightKerningGroup = e;
unicode = 0065;
},
{
glyphname = f;
lastChange = "2012-05-09 14:59:34 +0000";
layers = (
{
layerId = "A24B85EF-CA04-493E-A47C-A7B61068A6D7";
paths = (
{
closed = 1;
nodes = (
"127.579 600 LINE",
"127.579 0 LINE",
"191.385 0 LINE",
"191.385 600 LINE"
);
},
{
closed = 1;
nodes = (
"189.443 315 LINE",
"189.443 285 LINE",
"416.499 285 LINE",
"416.499 315 LINE"
);
},
{
closed = 1;
nodes = (
"189.443 600 LINE",
"189.443 569.409 LINE SMOOTH",
"463.18 569.409 LINE",
"463.18 600 LINE"
);
},
{
closed = 1;
nodes = (
"364.493 287.029 LINE",
"364.493 285.1 LINE",
"392.605 284.665 OFFCURVE",
"405.486 265.834 OFFCURVE",
"405.486 242.624 CURVE SMOOTH",
"405.468 229.922 LINE",
"416.499 229.815 LINE",
"416.499 287.029 LINE"
);
},
{
closed = 1;
nodes = (
"405.468 370.167 LINE",
"405.487 357.465 LINE SMOOTH",
"405.487 334.256 OFFCURVE",
"392.605 315.428 OFFCURVE",
"364.493 314.993 CURVE",
"364.493 313.065 LINE",
"416.499 313.065 LINE",
"416.499 370.275 LINE"
);
},
{
closed = 1;
nodes = (
"401.799 571.746 LINE",
"401.799 569.412 LINE",
"432.317 568.886 OFFCURVE",
"452.171 546.099 OFFCURVE",
"452.171 518.016 CURVE SMOOTH",
"452.149 502.65 LINE",
"463.18 502.521 LINE",
"463.18 571.746 LINE"
);
},
{
closed = 1;
nodes = (
"445.258 608.798 OFFCURVE",
"388.957 599.993 OFFCURVE",
"348.031 599.993 CURVE",
"463.18 590.443 LINE",
"463.18 615.682 LINE"
);
},
{
closed = 1;
nodes = (
"127.615 64.193 LINE",
"126.969 34.163 OFFCURVE",
"102.208 9.979 OFFCURVE",
"69.117 9.979 CURVE SMOOTH",
"68.994 9.979 OFFCURVE",
"55.387 10 OFFCURVE",
"55.207 10 CURVE",
"55.023 0 LINE",
"142.913 0 LINE",
"130.331 64.193 LINE"
);
},
{
closed = 1;
nodes = (
"142.889 600 LINE",
"55 600 LINE",
"55.185 590 LINE",
"55.365 590 OFFCURVE",
"68.972 590.02 OFFCURVE",
"69.095 590.02 CURVE SMOOTH",
"102.185 590.02 OFFCURVE",
"126.946 567.216 OFFCURVE",
"127.592 537.186 CURVE",
"130.308 537.186 LINE"
);
},
{
closed = 1;
nodes = (
"176.027 0 LINE",
"263.917 0 LINE",
"263.733 10 LINE",
"263.604 10 OFFCURVE",
"249.997 9.979 OFFCURVE",
"249.823 9.979 CURVE SMOOTH",
"216.783 9.979 OFFCURVE",
"191.972 34.163 OFFCURVE",
"191.376 64.193 CURVE",
"188.609 64.193 LINE"
);
}
);
width = 523;
},
{
layerId = "29CFC173-9C98-4BE1-970A-002FF3BCF672";
paths = (
{
closed = 1;
nodes = (
"83.633 599.935 LINE",
"83.633 0 LINE",
"279.804 0 LINE",
"279.804 599.935 LINE"
);
},
{
closed = 1;
nodes = (
"277.789 318.876 LINE",
"277.789 272.431 LINE",
"465.974 272.431 LINE",
"465.974 318.876 LINE"
);
},
{
closed = 1;
nodes = (
"277.789 599.935 LINE",
"277.789 553.532 LINE SMOOTH",
"509.999 553.532 LINE",
"509.999 599.935 LINE"
);
},
{
closed = 1;
nodes = (
"356.438 274.447 LINE",
"356.438 272.424 LINE",
"415.909 271.376 OFFCURVE",
"455.974 228.468 OFFCURVE",
"455.974 169.688 CURVE SMOOTH",
"455.975 166.266 LINE",
"465.974 166.266 LINE",
"465.974 274.447 LINE"
);
},
{
closed = 1;
nodes = (
"455.975 423.964 LINE",
"455.974 421.613 LINE SMOOTH",
"455.974 362.832 OFFCURVE",
"415.909 319.924 OFFCURVE",
"356.438 318.876 CURVE",
"356.438 316.853 LINE",
"465.974 316.853 LINE",
"465.974 423.964 LINE"
);
},
{
closed = 1;
nodes = (
"380.639 556.605 LINE",
"380.639 553.531 LINE",
"458.298 552.49 OFFCURVE",
"499.999 506.622 OFFCURVE",
"499.999 429.846 CURVE SMOOTH",
"500.002 424.444 LINE",
"509.999 424.454 LINE",
"509.999 556.605 LINE"
);
},
{
closed = 1;
nodes = (
"495.142 609.029 OFFCURVE",
"446.44 599.936 OFFCURVE",
"410.625 599.936 CURVE",
"509.999 590.894 LINE",
"509.999 615.021 LINE"
);
},
{
closed = 1;
nodes = (
"83.63 62.398 LINE",
"83.679 32.133 OFFCURVE",
"59.613 10 OFFCURVE",
"31.852 10 CURVE SMOOTH",
"30.781 10 OFFCURVE",
"21.002 10 OFFCURVE",
"21.015 10 CURVE",
"21.029 0 LINE",
"85.719 0 LINE",
"86.667 62.398 LINE"
);
},
{
closed = 1;
nodes = (
"85.72 599.935 LINE",
"21.031 599.935 LINE",
"21.017 589.935 LINE",
"21.003 589.935 OFFCURVE",
"30.783 589.935 OFFCURVE",
"31.854 589.935 CURVE SMOOTH",
"59.614 589.935 OFFCURVE",
"83.681 567.706 OFFCURVE",
"83.632 537.442 CURVE",
"86.669 537.442 LINE"
);
},
{
closed = 1;
nodes = (
"278.8 0 LINE",
"343.49 0 LINE",
"343.504 10 LINE",
"342.433 10 OFFCURVE",
"332.654 10 OFFCURVE",
"332.667 10 CURVE SMOOTH",
"303.822 10 OFFCURVE",
"280.84 32.133 OFFCURVE",
"279.804 62.398 CURVE",
"277.852 62.398 LINE"
);
}
);
width = 542;
}
);
leftKerningGroup = h;
rightKerningGroup = f;
unicode = 0066;
},
{
glyphname = g;
lastChange = "2012-04-10 20:45:39 +0000";
layers = (
{
anchors = (
{
name = bottom;
position = "{378.42, -14}";
},
{
name = top;
position = "{378.128, 664}";
}
);
layerId = "A24B85EF-CA04-493E-A47C-A7B61068A6D7";
paths = (
{
closed = 1;
nodes = (
"180.639 614 OFFCURVE",
"50 494.681 OFFCURVE",
"50 300.002 CURVE SMOOTH",
"50 106.208 OFFCURVE",
"180.367 -13 OFFCURVE",
"378 -14 CURVE SMOOTH",
"518.834 -14 OFFCURVE",
"616.259 55.96 OFFCURVE",
"662.83 114.81 CURVE",
"662.804 235.182 LINE",
"662.708 260.78 OFFCURVE",
"679.164 274.841 OFFCURVE",
"708.41 274.841 CURVE SMOOTH",
"722.056 274.82 LINE",
"722.056 284.82 LINE",
"538.641 284.814 LINE",
"538.641 274.814 LINE",
"552.882 274.835 LINE SMOOTH",
"582.1 274.88 OFFCURVE",
"599.747 260.726 OFFCURVE",
"599.427 235.55 CURVE SMOOTH",
"597.766 102.656 LINE",
"535.128 41.68 OFFCURVE",
"461.253 16 OFFCURVE",
"378 16 CURVE SMOOTH",
"224.569 16 OFFCURVE",
"122.286 124.638 OFFCURVE",
"122.286 300 CURVE SMOOTH",
"122.286 476.126 OFFCURVE",
"224.041 584.074 OFFCURVE",
"376.793 584.074 CURVE SMOOTH",
"516.647 584.074 OFFCURVE",
"595.346 529.095 OFFCURVE",
"624.403 412.264 CURVE",
"633.164 412.232 LINE",
"611.168 553.468 LINE",
"543.737 594.63 OFFCURVE",
"469.853 614 OFFCURVE",
"377.709 614 CURVE SMOOTH"
);
}
);
width = 742;
},
{
anchors = (
{
name = bottom;
position = "{370.88, -64}";
},
{
name = top;
position = "{364.997, 675.93}";
}
);
layerId = "29CFC173-9C98-4BE1-970A-002FF3BCF672";
paths = (
{
closed = 1;
nodes = (
"148.607 611.93 OFFCURVE",
"24 496.204 OFFCURVE",
"24 301.599 CURVE SMOOTH",
"24 103.696 OFFCURVE",
"153.683 -12 OFFCURVE",
"355 -12 CURVE SMOOTH",
"496.208 -12 OFFCURVE",
"625.19 45.718 OFFCURVE",
"664.403 97.705 CURVE",
"665.478 240.32 LINE",
"664.41 265.501 OFFCURVE",
"679.575 279.622 OFFCURVE",
"706.895 279.622 CURVE SMOOTH",
"719 279.624 LINE",
"719 287.555 LINE",
"413.729 287.556 LINE",
"413.729 279.624 LINE",
"427.948 279.622 LINE SMOOTH",
"454.195 279.62 OFFCURVE",
"470.366 265.506 OFFCURVE",
"470.385 240.294 CURVE SMOOTH",
"469.406 127.67 LINE",
"479.465 66.124 OFFCURVE",
"426.786 33.333 OFFCURVE",
"376.797 33.333 CURVE SMOOTH",
"272.843 33.333 OFFCURVE",
"228.249 131.533 OFFCURVE",
"228.249 291.892 CURVE SMOOTH",
"228.249 468.376 OFFCURVE",
"283.616 566.558 OFFCURVE",
"415.542 566.558 CURVE SMOOTH",
"482.679 566.558 OFFCURVE",
"564.086 539.106 OFFCURVE",
"601.085 405.951 CURVE",
"608.1 405.954 LINE",
"622.261 576.236 LINE",
"573.508 594.943 OFFCURVE",
"457.445 611.93 OFFCURVE",
"364.997 611.93 CURVE"
);
}
);
width = 723;
}
);
leftKerningGroup = o;
rightKerningGroup = g;
unicode = 0067;
},
{
glyphname = gcommaaccent;
lastChange = "2012-03-29 14:52:10 +0000";
layers = (
{
layerId = "A24B85EF-CA04-493E-A47C-A7B61068A6D7";
paths = (
{
closed = 1;
nodes = (
"339.238 -101 OFFCURVE",
"356.148 -115 OFFCURVE",
"366.572 -128 CURVE SMOOTH",
"380.253 -144 OFFCURVE",
"388.215 -186 OFFCURVE",
"339.574 -201 CURVE",
"341.525 -208 LINE",
"393.806 -206 OFFCURVE",
"436.868 -151 OFFCURVE",
"410.874 -89 CURVE SMOOTH",
"397.343 -56 OFFCURVE",
"358.395 -58 OFFCURVE",
"348.2 -81 CURVE SMOOTH"
);
},
{
closed = 1;
nodes = (
"180.639 614 OFFCURVE",
"50 494.681 OFFCURVE",
"50 300.002 CURVE SMOOTH",
"50 106.208 OFFCURVE",
"180.367 -13 OFFCURVE",
"378 -14 CURVE SMOOTH",
"518.834 -14 OFFCURVE",
"616.259 55.96 OFFCURVE",
"662.83 114.81 CURVE",
"662.804 235.182 LINE",
"662.708 260.78 OFFCURVE",
"679.164 274.841 OFFCURVE",
"708.41 274.841 CURVE SMOOTH",
"722.056 274.82 LINE",
"722.056 284.82 LINE",
"538.641 284.814 LINE",
"538.641 274.814 LINE",
"552.882 274.835 LINE SMOOTH",
"582.1 274.88 OFFCURVE",
"599.747 260.726 OFFCURVE",
"599.427 235.55 CURVE SMOOTH",
"597.766 102.656 LINE",
"535.128 41.68 OFFCURVE",
"461.253 16 OFFCURVE",
"378 16 CURVE SMOOTH",
"224.569 16 OFFCURVE",
"122.286 124.638 OFFCURVE",
"122.286 300 CURVE SMOOTH",
"122.286 476.126 OFFCURVE",
"224.041 584.074 OFFCURVE",
"376.793 584.074 CURVE SMOOTH",
"516.647 584.074 OFFCURVE",
"595.346 529.095 OFFCURVE",
"624.403 412.264 CURVE",
"633.164 412.232 LINE",
"611.168 553.468 LINE",
"543.737 594.63 OFFCURVE",
"469.853 614 OFFCURVE",
"377.709 614 CURVE SMOOTH"
);
}
);
width = 742;
},
{
layerId = "29CFC173-9C98-4BE1-970A-002FF3BCF672";
paths = (
{
closed = 1;
nodes = (
"301.021 -96 OFFCURVE",
"296.705 -145 OFFCURVE",
"322.341 -174 CURVE SMOOTH",
"360.007 -216 OFFCURVE",
"335.134 -253 OFFCURVE",
"309.481 -264 CURVE",
"312.215 -273 LINE",
"397.673 -290 OFFCURVE",
"468.031 -189 OFFCURVE",
"429.654 -105 CURVE SMOOTH",
"411.887 -66 OFFCURVE",
"360.718 -52 OFFCURVE",
"328.737 -76 CURVE SMOOTH"
);
},
{
closed = 1;
nodes = (
"148.607 611.93 OFFCURVE",
"24 496.204 OFFCURVE",
"24 301.599 CURVE SMOOTH",
"24 103.696 OFFCURVE",
"153.683 -12 OFFCURVE",
"355 -12 CURVE SMOOTH",
"496.208 -12 OFFCURVE",
"625.19 45.718 OFFCURVE",
"664.403 97.705 CURVE",
"665.478 240.32 LINE",
"664.41 265.501 OFFCURVE",
"679.575 279.622 OFFCURVE",
"706.895 279.622 CURVE SMOOTH",
"719 279.624 LINE",
"719 287.555 LINE",
"413.729 287.556 LINE",
"413.729 279.624 LINE",
"427.948 279.622 LINE SMOOTH",
"454.195 279.62 OFFCURVE",
"470.366 265.506 OFFCURVE",
"470.385 240.294 CURVE SMOOTH",
"469.406 127.67 LINE",
"479.465 66.124 OFFCURVE",
"426.786 33.333 OFFCURVE",
"376.797 33.333 CURVE SMOOTH",
"272.843 33.333 OFFCURVE",
"228.249 131.533 OFFCURVE",
"228.249 291.892 CURVE SMOOTH",
"228.249 468.376 OFFCURVE",
"283.616 566.558 OFFCURVE",
"415.542 566.558 CURVE SMOOTH",
"482.679 566.558 OFFCURVE",
"564.086 539.106 OFFCURVE",
"601.085 405.951 CURVE",
"608.1 405.954 LINE",
"622.261 576.236 LINE",
"573.508 594.943 OFFCURVE",
"457.445 611.93 OFFCURVE",
"364.997 611.93 CURVE"
);
}
);
width = 723;
}
);
leftKerningGroup = o;
leftMetricsKey = g;
rightKerningGroup = g;
rightMetricsKey = g;
unicode = 0123;
},
{
glyphname = h;
lastChange = "2012-05-09 15:00:59 +0000";
layers = (
{
anchors = (
{
name = center;
position = "{375.621, 296.227}";
},
{
name = top;
position = "{378.314, 650.822}";
}
);
layerId = "A24B85EF-CA04-493E-A47C-A7B61068A6D7";
paths = (
{
closed = 1;
nodes = (
"557.992 600 LINE",
"557.992 0 LINE",
"621.959 0 LINE",
"621.959 600 LINE"
);
},
{
closed = 1;
nodes = (
"124.981 600 LINE",
"124.981 0 LINE",
"188.919 0 LINE",
"188.919 600 LINE"
);
},
{
closed = 1;
nodes = (
"177.944 311.058 LINE",
"177.944 281.058 LINE",
"567.728 281.058 LINE",
"567.728 311.058 LINE"
);
},
{
closed = 1;
nodes = (
"124.983 64.193 LINE",
"124.371 34.163 OFFCURVE",
"98.552 9.979 OFFCURVE",
"66.681 9.979 CURVE SMOOTH",
"66.568 9.979 OFFCURVE",
"55.335 10 OFFCURVE",
"55.188 10 CURVE",
"55.038 0 LINE",
"127.612 0 LINE",
"127.612 64.193 LINE"
);
},
{
closed = 1;
nodes = (
"186.239 0 LINE",
"258.814 0 LINE",
"258.664 10 LINE",
"258.547 10 OFFCURVE",
"247.313 9.979 OFFCURVE",
"247.171 9.979 CURVE SMOOTH",
"215.33 9.979 OFFCURVE",
"189.48 34.163 OFFCURVE",
"188.899 64.193 CURVE",
"186.239 64.193 LINE"
);
},
{
closed = 1;
nodes = (
"188.861 535.807 LINE",
"189.443 565.837 OFFCURVE",
"215.292 590.021 OFFCURVE",
"247.133 590.021 CURVE SMOOTH",
"247.275 590.021 OFFCURVE",
"258.509 590 OFFCURVE",
"258.655 590 CURVE",
"258.776 600 LINE",
"186.202 600 LINE",
"186.202 535.807 LINE"
);
},
{
closed = 1;
nodes = (
"127.576 600 LINE",
"55 600 LINE",
"55.151 590 LINE",
"55.297 590 OFFCURVE",
"66.53 590.021 OFFCURVE",
"66.643 590.021 CURVE SMOOTH",
"98.514 590.021 OFFCURVE",
"124.334 565.837 OFFCURVE",
"124.945 535.807 CURVE",
"127.576 535.807 LINE"
);
},
{
closed = 1;
nodes = (
"558.014 64.193 LINE",
"557.432 34.163 OFFCURVE",
"531.583 9.979 OFFCURVE",
"499.742 9.979 CURVE SMOOTH",
"499.6 9.979 OFFCURVE",
"488.366 10 OFFCURVE",
"488.249 10 CURVE",
"488.099 0 LINE",
"560.673 0 LINE",
"560.673 64.193 LINE"
);
},
{
closed = 1;
nodes = (
"619.299 0 LINE",
"691.875 0 LINE",
"691.724 10 LINE",
"691.578 10 OFFCURVE",
"680.374 9.979 OFFCURVE",
"680.232 9.979 CURVE SMOOTH",
"648.39 9.979 OFFCURVE",
"622.541 34.163 OFFCURVE",
"621.93 64.193 CURVE",
"619.299 64.193 LINE"
);
},
{
closed = 1;
nodes = (
"621.892 535.807 LINE",
"622.504 565.837 OFFCURVE",
"648.352 590.021 OFFCURVE",
"680.194 590.021 CURVE SMOOTH",
"680.336 590.021 OFFCURVE",
"691.54 590 OFFCURVE",
"691.686 590 CURVE",
"691.837 600 LINE",
"619.263 600 LINE",
"619.263 535.807 LINE"
);
},
{
closed = 1;
nodes = (
"560.636 600 LINE",
"488.061 600 LINE",
"488.211 590 LINE",
"488.328 590 OFFCURVE",
"499.562 590.021 OFFCURVE",
"499.704 590.021 CURVE SMOOTH",
"531.545 590.021 OFFCURVE",
"557.395 565.837 OFFCURVE",
"557.977 535.807 CURVE",
"560.636 535.807 LINE"
);
}
);
width = 746;
},
{
anchors = (
{
name = center;
position = "{295.75, 240.765}";
},
{
name = top;
position = "{295.25, 466.992}";
}
);
layerId = "29CFC173-9C98-4BE1-970A-002FF3BCF672";
paths = (
{
closed = 1;
nodes = (
"474.98 600.07 LINE",
"474.98 0 LINE",
"670.057 0 LINE",
"670.057 600.07 LINE"
);
},
{
closed = 1;
nodes = (
"83.858 600.07 LINE",
"83.858 0 LINE",
"280.017 0 LINE",
"280.017 600.07 LINE"
);
},
{
closed = 1;
nodes = (
"272.195 323.533 LINE",
"272.195 278.162 LINE",
"481.815 278.162 LINE",
"481.815 323.533 LINE"
);
},
{
closed = 1;
nodes = (
"83.858 62.412 LINE",
"83.903 32.141 OFFCURVE",
"59.905 10 OFFCURVE",
"32.038 10 CURVE SMOOTH",
"30.977 10 OFFCURVE",
"21.014 10 OFFCURVE",
"21.014 10 CURVE",
"21.014 0 LINE",
"86.902 0 LINE",
"86.902 62.412 LINE SMOOTH"
);
},
{
closed = 1;
nodes = (
"278.057 0 LINE",
"343.409 0 LINE",
"343.409 10 LINE",
"343.409 10 OFFCURVE",
"333.445 10 OFFCURVE",
"332.921 10 CURVE SMOOTH",
"303.971 10 OFFCURVE",
"281.056 32.141 OFFCURVE",
"280.019 62.412 CURVE",
"278.057 62.412 LINE"
);
},
{
closed = 1;
nodes = (
"280.022 537.657 LINE",
"281.058 567.929 OFFCURVE",
"303.974 590.07 OFFCURVE",
"332.923 590.07 CURVE SMOOTH",
"333.438 590.07 OFFCURVE",
"343.401 590.071 OFFCURVE",
"343.401 590.071 CURVE",
"343.401 600.07 LINE",
"278.06 600.07 LINE",
"278.06 537.657 LINE"
);
},
{
closed = 1;
nodes = (
"86.905 600.07 LINE",
"21.017 600.07 LINE",
"21.017 590.071 LINE",
"21.017 590.071 OFFCURVE",
"30.98 590.07 OFFCURVE",
"32.041 590.07 CURVE SMOOTH",
"59.908 590.07 OFFCURVE",
"83.906 567.929 OFFCURVE",
"83.86 537.657 CURVE",
"86.905 537.657 LINE"
);
},
{
closed = 1;
nodes = (
"474.978 62.412 LINE",
"473.942 32.141 OFFCURVE",
"451.026 10 OFFCURVE",
"422.077 10 CURVE SMOOTH",
"421.551 10 OFFCURVE",
"411.588 10 OFFCURVE",
"411.588 10 CURVE",
"411.588 0 LINE",
"476.94 0 LINE",
"476.94 62.412 LINE"
);
},
{
closed = 1;
nodes = (
"667.01 0 LINE",
"732.898 0 LINE",
"732.898 10 LINE",
"732.898 10 OFFCURVE",
"721.852 10 OFFCURVE",
"721.874 10 CURVE SMOOTH",
"692.924 10 OFFCURVE",
"670.009 32.141 OFFCURVE",
"670.055 62.412 CURVE",
"667.01 62.412 LINE"
);
},
{
closed = 1;
nodes = (
"671.143 537.657 LINE",
"671.097 567.929 OFFCURVE",
"694.012 590.07 OFFCURVE",
"722.962 590.07 CURVE SMOOTH",
"722.94 590.07 OFFCURVE",
"733.986 590.071 OFFCURVE",
"733.986 590.071 CURVE",
"733.986 600.07 LINE",
"668.098 600.07 LINE",
"668.098 537.657 LINE"
);
},
{
closed = 1;
nodes = (
"476.943 600.07 LINE",
"411.591 600.07 LINE",
"411.591 590.071 LINE",
"411.591 590.071 OFFCURVE",
"421.555 590.07 OFFCURVE",
"422.079 590.07 CURVE SMOOTH",
"451.029 590.07 OFFCURVE",
"473.944 567.929 OFFCURVE",
"474.981 537.657 CURVE",
"476.943 537.657 LINE"
);
}
);
width = 754;
}
);
leftKerningGroup = h;
rightKerningGroup = h;
unicode = 0068;
},
